{
.appVersion = "3337";
.formatVersion = 3;
axes = (
{
name = Weight;
tag = wght;
},
{
hidden = 1;
name = "Optical size";
tag = opsz;
}
);
classes = (
{
automatic = 1;

glyphs = (
{
glyphname = .notdef;
layers = (
{
layerId = "3B122060-26E0-4730-9241-82784E6CB359";
shapes = (
{
closed = 1;
nodes = (
(954,0,l),
(954,1600,l),
(140,1600,l),
(140,0,l)
);
},
{
closed = 1;
nodes = (
(541,705,l),
(826,76,l),
(256,76,l)
);
},
{
closed = 1;
nodes = (
(220,1411,l),
(497,801,l),
(220,191,l)
);
},
{
closed = 1;
nodes = (
(584,802,l),
(874,1440,l),
(874,163,l)
);
},
{
closed = 1;
nodes = (
(257,1524,l),
(824,1524,l),
(541,898,l)
);
}
);
width = 1094;
},
{
background = {
shapes = (
{
closed = 1;
nodes = (
(410,0,l),
(410,492,l),
(354,1336,l),
(446,1336,l),
(532,472,l),
(654,0,l),
(1026,0,l),
(1160,472,l),
(1244,1336,l),
(1338,1336,l),
(1280,492,l),
(1280,0,l),
(1590,0,l),
(1590,1600,l),
(1050,1600,l),
(916,994,l),
(892,264,l),
(800,264,l),
(774,994,l),
(642,1600,l),
(100,1600,l),
(100,0,l)
);
}
);
};
layerId = "1DFA7D5B-2E97-4B89-827F-FB43F8066DC1";
shapes = (
{
closed = 1;
nodes = (
(1590,0,l),
(1590,1600,l),
(100,1600,l),
(100,0,l)
);
},
{
closed = 1;
nodes = (
(846,566,l),
(1103,264,l),
(589,264,l)
);
},
{
closed = 1;
nodes = (
(400,1090,l),
(648,798,l),
(400,506,l)
);
},
{
closed = 1;
nodes = (
(1043,798,l),
(1290,1089,l),
(1290,507,l)
);
},
{
closed = 1;
nodes = (
(585,1336,l),
(1105,1336,l),
(845,1030,l)
);
}
);
width = 1690;
},
{
background = {
shapes = (
{
closed = 1;
nodes = (
(380,0,l),
(380,492,l),
(324,1336,l),
(376,1336,l),
(462,472,l),
(584,0,l),
(906,0,l),
(1030,472,l),
(1114,1336,l),
(1168,1336,l),
(1110,492,l),
(1110,0,l),
(1410,0,l),
(1410,1600,l),
(930,1600,l),
(796,994,l),
(772,264,l),
(720,264,l),
(694,994,l),
(562,1600,l),
(80,1600,l),
(80,0,l)
);
}
);
};
layerId = "5013C991-8699-46CB-BB1C-82E334DBD38B";
shapes = (
{
closed = 1;
nodes = (
(1410,0,l),
(1410,1600,l),
(80,1600,l),
(80,0,l)
);
},
{
closed = 1;
nodes = (
(746,525,l),
(918,264,l),
(573,264,l)
);
},
{
closed = 1;
nodes = (
(380,1080,l),
(566,798,l),
(380,516,l)
);
},
{
closed = 1;
nodes = (
(925,798,l),
(1110,1078,l),
(1110,517,l)
);
},
{
closed = 1;
nodes = (
(571,1336,l),
(920,1336,l),
(746,1071,l)
);
}
);
width = 1490;
},
{
background = {
shapes = (
{
closed = 1;
nodes = (
(160,0,l),
(160,548,l),
(160,1560,l),
(196,1560,l),
(314,452,l),
(358,10,l),
(456,10,l),
(500,452,l),
(618,1560,l),
(654,1560,l),
(654,548,l),
(654,0,l),
(694,0,l),
(694,1600,l),
(582,1600,l),
(506,918,l),
(420,50,l),
(394,50,l),
(308,918,l),
(232,1600,l),
(120,1600,l),
(120,0,l)
);
}
);
};
layerId = "3D06B89B-468F-44E0-A3D7-A5BC6911123E";
shapes = (
{
closed = 1;
nodes = (
(694,0,l),
(694,1600,l),
(120,1600,l),
(120,0,l)
);
},
{
closed = 1;
nodes = (
(407,739,l),
(636,40,l),
(178,40,l)
);
},
{
closed = 1;
nodes = (
(160,1494,l),
(386,804,l),
(160,114,l)
);
},
{
closed = 1;
nodes = (
(428,804,l),
(654,1494,l),
(654,114,l)
);
},
{
closed = 1;
nodes = (
(180,1560,l),
(634,1560,l),
(407,868,l)
);
}
);
width = 814;
},
{
background = {
shapes = (
{
closed = 1;
nodes = (
(216,0,l),
(216,462,l),
(200,1504,l),
(242,1504,l),
(352,458,l),
(414,8,l),
(568,8,l),
(632,458,l),
(742,1504,l),
(786,1504,l),
(768,462,l),
(768,0,l),
(874,0,l),
(874,1600,l),
(670,1600,l),
(578,938,l),
(510,104,l),
(474,104,l),
(404,938,l),
(314,1600,l),
(110,1600,l),
(110,0,l)
);
}
);
};
layerId = "C388322D-F001-4130-A10A-708FB59AF746";
shapes = (
{
closed = 1;
nodes = (
(874,0,l),
(874,1600,l),
(110,1600,l),
(110,0,l)
);
},
{
closed = 1;
nodes = (
(492,657,l),
(716,96,l),
(268,96,l)
);
},
{
closed = 1;
nodes = (
(215,1350,l),
(435,800,l),
(215,249,l)
);
},
{
closed = 1;
nodes = (
(549,799,l),
(769,1350,l),
(769,249,l)
);
},
{
closed = 1;
nodes = (
(267,1504,l),
(717,1504,l),
(492,942,l)
);
}
);
width = 984;
},
{
background = {
shapes = (
{
closed = 1;
nodes = (
(263,0,l),
(263,501,l),
(249,1477,l),
(332,1477,l),
(439,457,l),
(504,8,l),
(727,8,l),
(795,457,l),
(902,1477,l),
(985,1477,l),
(971,501,l),
(971,0,l),
(1108,0,l),
(1108,1600,l),
(799,1600,l),
(710,937,l),
(641,131,l),
(593,131,l),
(523,937,l),
(435,1600,l),
(125,1600,l),
(125,0,l)
);
}
);
};
layerId = "EB6D3A46-95FC-4F29-8169-EF2A3FEDBD5C";
shapes = (
{
closed = 1;
nodes = (
(1108,0,l),
(1108,1600,l),
(125,1600,l),
(125,0,l)
);
},
{
closed = 1;
nodes = (
(617,642,l),
(900,123,l),
(334,123,l)
);
},
{
closed = 1;
nodes = (
(260,1297,l),
(540,783,l),
(260,271,l)
);
},
{
closed = 1;
nodes = (
(694,783,l),
(973,1295,l),
(973,273,l)
);
},
{
closed = 1;
nodes = (
(315,1477,l),
(919,1477,l),
(617,924,l)
);
}
);
width = 1233;
}
);
metricLeft = H;
metricRight = H;
},
{
glyphname = A;
kernLeft = A;
kernRight = A;
layers = (
{
anchors = (
{
name = bottom;
pos = (322,0);
},
{
name = ogonek;
pos = (534,12);
},
{
name = top;
pos = (322,1600);
}
);
layerId = "3B122060-26E0-4730-9241-82784E6CB359";
shapes = (
{
closed = 1;
nodes = (
(148,0,l),
(192,518,l),
(362,518,l),
(382,594,l),
(198,594,l),
(226,922,l),
(278,1524,l),
(442,1524,l),
(436,1600,l),
(210,1600,l),
(66,0,l)
);
},
{
closed = 1;
nodes = (
(578,0,l),
(446,1452,l),
(370,1452,l),
(418,926,l),
(496,0,l)
);
}
);
width = 644;
},
{
anchors = (
{
name = bottom;
pos = (514,0);
},
{
name = ogonek;
pos = (796,0);
},
{
name = top;
pos = (514,1600);
}
);
layerId = "1DFA7D5B-2E97-4B89-827F-FB43F8066DC1";
shapes = (
{
closed = 1;
nodes = (
(344,0,l),
(398,334,l),
(494,334,l),
(564,598,l),
(426,598,l),
(472,960,l),
(480,1336,l),
(808,1336,l),
(776,1600,l),
(258,1600,l),
(36,0,l)
);
},
{
closed = 1;
nodes = (
(992,0,l),
(816,1234,l),
(560,1234,l),
(566,960,l),
(684,0,l)
);
}
);
width = 1028;
},
{
anchors = (
{
name = bottom;
pos = (478,0);
},
{
name = ogonek;
pos = (742,0);
},
{
name = top;
pos = (478,1600);
}
);
layerId = "5013C991-8699-46CB-BB1C-82E334DBD38B";
shapes = (
{
closed = 1;
nodes = (
(328,0,l),
(382,334,l),
(452,334,l),
(522,598,l),
(400,598,l),
(442,912,l),
(464,1336,l),
(772,1336,l),
(738,1600,l),
(242,1600,l),
(20,0,l)
);
},
{
closed = 1;
nodes = (
(956,0,l),
(778,1236,l),
(530,1236,l),
(540,914,l),
(648,0,l)
);
}
);
width = 976;
},
{
anchors = (
{
name = bottom;
pos = (266,0);
},
{
name = ogonek;
pos = (452,0);
},
{
name = top;
pos = (266,1600);
}
);
layerId = "3D06B89B-468F-44E0-A3D7-A5BC6911123E";
shapes = (
{
closed = 1;
nodes = (
(100,0,l),
(146,536,l),
(320,536,l),
(330,576,l),
(150,576,l),
(180,920,l),
(234,1560,l),
(330,1560,l),
(328,1600,l),
(202,1600,l),
(60,0,l)
);
},
{
closed = 1;
nodes = (
(468,0,l),
(332,1520,l),
(296,1520,l),
(348,922,l),
(428,0,l)
);
}
);
width = 528;
},
{
anchors = (
{
name = bottom;
pos = (368,0);
},
{
name = ogonek;
pos = (597,9);
},
{
name = top;
pos = (368,1600);
}
);
layerId = "EB6D3A46-95FC-4F29-8169-EF2A3FEDBD5C";
shapes = (
{
closed = 1;
nodes = (
(195,0,l),
(241,472,l),
(393,472,l),
(425,595,l),
(253,595,l),
(285,932,l),
(326,1477,l),
(531,1477,l),
(519,1600,l),
(220,1600,l),
(56,0,l)
);
},
{
closed = 1;
nodes = (
(679,0,l),
(536,1398,l),
(415,1398,l),
(453,935,l),
(541,0,l)
);
}
);
width = 735;
},
{
anchors = (
{
name = bottom;
pos = (317,0);
},
{
name = ogonek;
pos = (522,0);
},
{
name = top;
pos = (317,1600);
}
);
layerId = "C388322D-F001-4130-A10A-708FB59AF746";
shapes = (
{
closed = 1;
nodes = (
(155,0,l),
(203,486,l),
(351,486,l),
(376,582,l),
(211,582,l),
(244,918,l),
(290,1504,l),
(439,1504,l),
(429,1600,l),
(210,1600,l),
(48,0,l)
);
},
{
closed = 1;
nodes = (
(588,0,l),
(442,1449,l),
(353,1449,l),
(394,920,l),
(481,0,l)
);
}
);
width = 636;
}
);
unicode = 65;
},
{
glyphname = AE;
kernLeft = A;
kernRight = E;
layers = (
{
anchors = (
{
name = bottom;
pos = (520,0);
},
{
name = top;
pos = (544,1600);
}
);
layerId = "3B122060-26E0-4730-9241-82784E6CB359";
shapes = (
{
closed = 1;
nodes = (
(150,0,l),
(234,504,l),
(374,504,l),
(396,580,l),
(248,580,l),
(304,914,l),
(400,1526,l),
(894,1526,l),
(894,1600,l),
(334,1600,l),
(66,0,l)
);
},
{
closed = 1;
nodes = (
(894,0,l),
(894,76,l),
(648,76,l),
(648,0,l)
);
},
{
closed = 1;
nodes = (
(556,0,l),
(556,1434,l),
(476,1434,l),
(476,0,l)
);
},
{
closed = 1;
nodes = (
(874,762,l),
(874,838,l),
(648,838,l),
(648,762,l)
);
}
);
width = 964;
},
{
anchors = (
{
name = bottom;
pos = (810,0);
},
{
name = top;
pos = (858,1600);
}
);
layerId = "1DFA7D5B-2E97-4B89-827F-FB43F8066DC1";
shapes = (
{
closed = 1;
nodes = (
(364,0,l),
(436,334,l),
(562,334,l),
(632,598,l),
(492,598,l),
(552,872,l),
(596,1336,l),
(1420,1336,l),
(1420,1600,l),
(368,1600,l),
(36,0,l)
);
},
{
closed = 1;
nodes = (
(1420,0,l),
(1420,264,l),
(1122,264,l),
(1122,0,l)
);
},
{
closed = 1;
nodes = (
(988,0,l),
(988,1204,l),
(688,1204,l),
(688,0,l)
);
},
{
closed = 1;
nodes = (
(1400,682,l),
(1400,946,l),
(1122,946,l),
(1122,682,l)
);
}
);
width = 1476;
},
{
anchors = (
{
name = bottom;
pos = (756,0);
},
{
name = top;
pos = (802,1600);
}
);
layerId = "5013C991-8699-46CB-BB1C-82E334DBD38B";
shapes = (
{
closed = 1;
nodes = (
(348,0,l),
(420,334,l),
(526,334,l),
(600,598,l),
(476,598,l),
(536,872,l),
(580,1336,l),
(1324,1336,l),
(1324,1600,l),
(352,1600,l),
(20,0,l)
);
},
{
closed = 1;
nodes = (
(1324,0,l),
(1324,264,l),
(1030,264,l),
(1030,0,l)
);
},
{
closed = 1;
nodes = (
(932,0,l),
(932,1236,l),
(632,1236,l),
(632,0,l)
);
},
{
closed = 1;
nodes = (
(1304,682,l),
(1304,946,l),
(1030,946,l),
(1030,682,l)
);
}
);
width = 1368;
},
{
anchors = (
{
name = bottom;
pos = (376,0);
},
{
name = top;
pos = (410,1600);
}
);
layerId = "3D06B89B-468F-44E0-A3D7-A5BC6911123E";
shapes = (
{
closed = 1;
nodes = (
(100,0,l),
(174,536,l),
(286,536,l),
(298,576,l),
(178,576,l),
(226,922,l),
(316,1560,l),
(674,1560,l),
(674,1600,l),
(282,1600,l),
(60,0,l)
);
},
{
closed = 1;
nodes = (
(674,0,l),
(674,40,l),
(476,40,l),
(476,0,l)
);
},
{
closed = 1;
nodes = (
(396,0,l),
(396,1480,l),
(356,1480,l),
(356,0,l)
);
},
{
closed = 1;
nodes = (
(654,780,l),
(654,820,l),
(476,820,l),
(476,780,l)
);
}
);
width = 724;
},
{
anchors = (
{
name = bottom;
pos = (592,0);
},
{
name = top;
pos = (620,1600);
}
);
layerId = "EB6D3A46-95FC-4F29-8169-EF2A3FEDBD5C";
shapes = (
{
closed = 1;
nodes = (
(201,0,l),
(282,462,l),
(419,462,l),
(453,585,l),
(307,585,l),
(364,904,l),
(447,1479,l),
(1023,1479,l),
(1023,1600,l),
(340,1600,l),
(56,0,l)
);
},
{
closed = 1;
nodes = (
(1023,0,l),
(1023,123,l),
(764,123,l),
(764,0,l)
);
},
{
closed = 1;
nodes = (
(662,0,l),
(662,1377,l),
(527,1377,l),
(527,0,l)
);
},
{
closed = 1;
nodes = (
(1003,742,l),
(1003,865,l),
(764,865,l),
(764,742,l)
);
}
);
width = 1079;
},
{
anchors = (
{
name = bottom;
pos = (475,0);
},
{
name = top;
pos = (506,1600);
}
);
layerId = "C388322D-F001-4130-A10A-708FB59AF746";
shapes = (
{
closed = 1;
nodes = (
(160,0,l),
(234,486,l),
(344,486,l),
(372,582,l),
(251,582,l),
(302,910,l),
(380,1504,l),
(835,1504,l),
(835,1600,l),
(298,1600,l),
(48,0,l)
);
},
{
closed = 1;
nodes = (
(835,0,l),
(835,96,l),
(613,96,l),
(613,0,l)
);
},
{
closed = 1;
nodes = (
(528,0,l),
(528,1419,l),
(423,1419,l),
(423,0,l)
);
},
{
closed = 1;
nodes = (
(815,756,l),
(815,852,l),
(613,852,l),
(613,756,l)
);
}
);
width = 881;
}
);
metricLeft = A;
metricRight = E;
unicode = 198;
},
{
glyphname = B;
kernLeft = H;
kernRight = B;
layers = (
{
layerId = "3B122060-26E0-4730-9241-82784E6CB359";
shapes = (
{
closed = 1;
nodes = (
(220,0,l),
(220,1600,l),
(140,1600,l),
(140,0,l)
);
},
{
closed = 1;
nodes = (
(386,0,ls),
(548,0,o),
(614,56,o),
(618,196,cs),
(622,352,o),
(624,466,o),
(618,624,cs),
(614,718,o),
(578,770,o),
(490,790,c),
(490,810,l),
(574,828,o),
(606,880,o),
(610,976,cs),
(614,1102,o),
(612,1218,o),
(610,1404,cs),
(608,1544,o),
(542,1600,o),
(378,1600,cs),
(312,1600,l),
(312,1524,l),
(378,1524,ls),
(496,1524,o),
(528,1498,o),
(530,1404,cs),
(534,1248,o),
(536,1132,o),
(530,976,cs),
(526,870,o),
(502,840,o),
(402,840,cs),
(312,840,l),
(312,760,l),
(394,760,ls),
(502,760,o),
(534,730,o),
(538,624,cs),
(544,468,o),
(544,352,o),
(538,196,cs),
(534,104,o),
(504,80,o),
(386,80,cs),
(312,80,l),
(312,0,l)
);
}
);
width = 734;
},
{
layerId = "1DFA7D5B-2E97-4B89-827F-FB43F8066DC1";
shapes = (
{
closed = 1;
nodes = (
(400,0,l),
(400,1600,l),
(100,1600,l),
(100,0,l)
);
},
{
closed = 1;
nodes = (
(534,0,ls),
(832,0,o),
(952,112,o),
(964,390,cs),
(966,436,o),
(966,470,o),
(964,514,cs),
(958,664,o),
(904,748,o),
(782,788,c),
(782,836,l),
(900,876,o),
(954,958,o),
(962,1104,cs),
(964,1138,o),
(964,1172,o),
(964,1210,cs),
(964,1488,o),
(832,1600,o),
(534,1600,cs),
(532,1600,l),
(532,1336,l),
(534,1336,ls),
(618,1336,o),
(664,1296,o),
(664,1226,cs),
(664,1188,o),
(664,1150,o),
(664,1112,cs),
(664,1006,o),
(618,946,o),
(534,946,cs),
(532,946,l),
(532,682,l),
(534,682,ls),
(626,682,o),
(664,632,o),
(664,500,cs),
(664,464,o),
(664,430,o),
(664,394,cs),
(664,310,o),
(618,264,o),
(534,264,cs),
(532,264,l),
(532,0,l)
);
}
);
width = 1031;
},
{
layerId = "5013C991-8699-46CB-BB1C-82E334DBD38B";
shapes = (
{
closed = 1;
nodes = (
(380,0,l),
(380,1600,l),
(80,1600,l),
(80,0,l)
);
},
{
closed = 1;
nodes = (
(490,0,ls),
(788,0,o),
(908,112,o),
(920,390,cs),
(922,436,o),
(922,470,o),
(920,514,cs),
(914,664,o),
(860,748,o),
(738,788,c),
(738,836,l),
(856,876,o),
(910,958,o),
(918,1104,cs),
(920,1138,o),
(920,1172,o),
(920,1210,cs),
(920,1488,o),
(788,1600,o),
(490,1600,cs),
(480,1600,l),
(480,1336,l),
(490,1336,ls),
(574,1336,o),
(620,1296,o),
(620,1226,cs),
(620,1188,o),
(620,1150,o),
(620,1112,cs),
(620,1006,o),
(574,946,o),
(490,946,cs),
(480,946,l),
(480,682,l),
(490,682,ls),
(582,682,o),
(620,632,o),
(620,500,cs),
(620,464,o),
(620,430,o),
(620,394,cs),
(620,310,o),
(574,264,o),
(490,264,cs),
(480,264,l),
(480,0,l)
);
}
);
width = 985;
},
{
layerId = "3D06B89B-468F-44E0-A3D7-A5BC6911123E";
shapes = (
{
closed = 1;
nodes = (
(160,0,l),
(160,1600,l),
(120,1600,l),
(120,0,l)
);
},
{
closed = 1;
nodes = (
(286,0,ls),
(404,0,o),
(454,54,o),
(458,186,cs),
(462,342,o),
(462,466,o),
(458,624,cs),
(456,714,o),
(430,764,o),
(370,784,c),
(370,814,l),
(428,836,o),
(454,884,o),
(456,976,cs),
(460,1102,o),
(460,1228,o),
(456,1414,cs),
(452,1546,o),
(402,1600,o),
(284,1600,cs),
(240,1600,l),
(240,1560,l),
(284,1560,ls),
(374,1560,o),
(412,1518,o),
(416,1414,cs),
(422,1258,o),
(422,1132,o),
(416,976,cs),
(412,864,o),
(374,820,o),
(282,820,cs),
(240,820,l),
(240,780,l),
(274,780,ls),
(372,780,o),
(414,736,o),
(418,624,cs),
(424,468,o),
(424,342,o),
(418,186,cs),
(414,82,o),
(376,40,o),
(286,40,cs),
(240,40,l),
(240,0,l)
);
}
);
width = 559;
},
{
layerId = "EB6D3A46-95FC-4F29-8169-EF2A3FEDBD5C";
shapes = (
{
closed = 1;
nodes = (
(260,0,l),
(260,1600,l),
(125,1600,l),
(125,0,l)
);
},
{
closed = 1;
nodes = (
(418,0,ls),
(614,0,o),
(694,70,o),
(700,245,cs),
(703,373,o),
(705,467,o),
(700,597,cs),
(695,705,o),
(655,765,o),
(558,790,c),
(558,817,l),
(651,840,o),
(688,900,o),
(693,1008,cs),
(697,1111,o),
(695,1207,o),
(694,1356,cs),
(692,1530,o),
(610,1600,o),
(412,1600,cs),
(362,1600,l),
(362,1477,l),
(412,1477,ls),
(522,1477,o),
(557,1448,o),
(559,1360,cs),
(562,1233,o),
(563,1137,o),
(559,1010,cs),
(556,904,o),
(526,867,o),
(430,867,cs),
(362,867,l),
(362,741,l),
(424,741,ls),
(528,741,o),
(562,706,o),
(565,593,cs),
(569,467,o),
(569,372,o),
(565,246,cs),
(562,156,o),
(528,126,o),
(418,126,cs),
(362,126,l),
(362,0,l)
);
}
);
width = 800;
},
{
layerId = "C388322D-F001-4130-A10A-708FB59AF746";
shapes = (
{
closed = 1;
nodes = (
(215,0,l),
(215,1600,l),
(110,1600,l),
(110,0,l)
);
},
{
closed = 1;
nodes = (
(337,0,ls),
(500,0,o),
(568,69,o),
(574,237,cs),
(577,366,o),
(577,467,o),
(574,597,cs),
(571,702,o),
(538,760,o),
(462,785,c),
(462,820,l),
(535,846,o),
(568,903,o),
(572,1008,cs),
(575,1111,o),
(575,1214,o),
(572,1363,cs),
(569,1532,o),
(499,1600,o),
(336,1600,cs),
(300,1600,l),
(300,1504,l),
(336,1504,ls),
(424,1504,o),
(464,1463,o),
(467,1367,cs),
(472,1241,o),
(472,1137,o),
(467,1010,cs),
(464,900,o),
(424,852,o),
(334,852,cs),
(300,852,l),
(300,756,l),
(328,756,ls),
(425,756,o),
(466,710,o),
(469,593,cs),
(473,467,o),
(473,364,o),
(469,238,cs),
(466,139,o),
(426,96,o),
(337,96,cs),
(300,96,l),
(300,0,l)
);
}
);
width = 661;
}
);
metricLeft = H;
unicode = 66;
},
{
glyphname = C;
kernLeft = O;
kernRight = C;
layers = (
{
anchors = (
{
name = bottom;
pos = (352,0);
},
{
name = top;
pos = (352,1600);
}
);
background = {
shapes = (
{
closed = 1;
nodes = (
(450,-20,o),
(532,66,o),
(532,180,cs),
(532,480,l),
(492,480,l),
(492,180,ls),
(492,88,o),
(428,20,o),
(342,20,cs),
(256,20,o),
(192,88,o),
(192,180,cs),
(192,1400,ls),
(192,1492,o),
(256,1580,o),
(342,1580,cs),
(428,1580,o),
(492,1492,o),
(492,1400,cs),
(492,1140,l),
(532,1140,l),
(532,1400,ls),
(532,1514,o),
(450,1620,o),
(342,1620,cs),
(234,1620,o),
(152,1514,o),
(152,1400,cs),
(152,180,ls),
(152,66,o),
(234,-20,o),
(342,-20,cs)
);
}
);
};
layerId = "3B122060-26E0-4730-9241-82784E6CB359";
shapes = (
{
closed = 1;
nodes = (
(314,65,l),
(228,72,o),
(196,104,o),
(194,194,cs),
(184,686,o),
(184,912,o),
(194,1402,cs),
(196,1492,o),
(229,1525,o),
(314,1531,c),
(314,1607,l),
(179,1598,o),
(116,1538,o),
(114,1402,cs),
(108,958,o),
(108,640,o),
(114,194,cs),
(116,58,o),
(180,-2,o),
(314,-11,c)
);
},
{
closed = 1;
nodes = (
(538,2,o),
(599,63,o),
(606,194,cs),
(612,308,o),
(610,400,o),
(604,564,c),
(524,564,l),
(528,378,o),
(530,286,o),
(526,194,cs),
(523,108,o),
(491,75,o),
(406,66,c),
(406,-10,l)
);
},
{
closed = 1;
nodes = (
(598,1068,l),
(604,1194,o),
(604,1276,o),
(598,1402,cs),
(591,1532,o),
(533,1593,o),
(406,1605,c),
(406,1529,l),
(485,1520,o),
(515,1486,o),
(518,1402,cs),
(522,1276,o),
(522,1194,o),
(518,1068,c)
);
}
);
width = 690;
},
{
anchors = (
{
name = bottom;
pos = (518,0);
},
{
name = top;
pos = (518,1600);
}
);
layerId = "1DFA7D5B-2E97-4B89-827F-FB43F8066DC1";
shapes = (
{
closed = 1;
nodes = (
(460,233,l),
(409,249,o),
(385,291,o),
(384,366,cs),
(376,658,o),
(376,942,o),
(384,1236,cs),
(385,1310,o),
(409,1351,o),
(460,1367,c),
(460,1618,l),
(204,1601,o),
(88,1477,o),
(84,1222,cs),
(78,920,o),
(78,680,o),
(84,382,cs),
(90,115,o),
(198,-2,o),
(460,-18,c)
);
},
{
closed = 1;
nodes = (
(854,-2,o),
(963,115,o),
(970,382,cs),
(972,446,o),
(972,536,o),
(970,600,c),
(670,600,l),
(674,510,o),
(674,452,o),
(670,366,cs),
(667,290,o),
(644,249,o),
(592,232,c),
(592,-18,l)
);
},
{
closed = 1;
nodes = (
(960,1000,l),
(962,1066,o),
(964,1154,o),
(962,1220,cs),
(955,1471,o),
(840,1599,o),
(592,1618,c),
(592,1366,l),
(639,1349,o),
(661,1308,o),
(662,1236,cs),
(664,1162,o),
(662,1074,o),
(660,1000,c)
);
}
);
width = 1033;
},
{
anchors = (
{
name = bottom;
pos = (487,0);
},
{
name = top;
pos = (487,1600);
}
);
layerId = "5013C991-8699-46CB-BB1C-82E334DBD38B";
shapes = (
{
closed = 1;
nodes = (
(445,230,l),
(400,243,o),
(375,276,o),
(373,326,cs),
(363,604,o),
(363,996,o),
(373,1276,cs),
(375,1324,o),
(400,1357,o),
(445,1370,c),
(445,1618,l),
(187,1602,o),
(77,1452,o),
(73,1222,cs),
(69,996,o),
(69,604,o),
(73,382,cs),
(79,110,o),
(180,-6,o),
(445,-19,c)
);
},
{
closed = 1;
nodes = (
(803,-6,o),
(911,111,o),
(919,382,cs),
(921,446,o),
(921,536,o),
(919,600,c),
(619,600,l),
(621,528,o),
(621,398,o),
(619,326,cs),
(617,276,o),
(592,243,o),
(545,230,c),
(545,-19,l)
);
},
{
closed = 1;
nodes = (
(909,1000,l),
(911,1066,o),
(913,1154,o),
(911,1220,cs),
(903,1489,o),
(797,1606,o),
(545,1619,c),
(545,1369,l),
(586,1355,o),
(610,1323,o),
(611,1276,cs),
(613,1202,o),
(611,1074,o),
(609,1000,c)
);
}
);
width = 980;
},
{
anchors = (
{
name = bottom;
pos = (274,0);
},
{
name = top;
pos = (274,1600);
}
);
background = {
shapes = (
{
closed = 1;
nodes = (
(406,-20,o),
(488,66,o),
(488,180,cs),
(488,480,l),
(448,480,l),
(448,180,ls),
(448,88,o),
(384,20,o),
(298,20,cs),
(212,20,o),
(148,88,o),
(148,180,cs),
(148,1400,ls),
(148,1492,o),
(212,1580,o),
(298,1580,cs),
(384,1580,o),
(448,1492,o),
(448,1400,cs),
(448,1140,l),
(488,1140,l),
(488,1400,ls),
(488,1514,o),
(406,1620,o),
(298,1620,cs),
(190,1620,o),
(108,1514,o),
(108,1400,cs),
(108,180,ls),
(108,66,o),
(190,-20,o),
(298,-20,cs)
);
}
);
};
layerId = "3D06B89B-468F-44E0-A3D7-A5BC6911123E";
shapes = (
{
closed = 1;
nodes = (
(244,30,l),
(176,39,o),
(152,80,o),
(150,174,cs),
(142,636,o),
(142,962,o),
(150,1422,cs),
(152,1518,o),
(176,1558,o),
(244,1566,c),
(244,1606,l),
(151,1597,o),
(112,1543,o),
(110,1422,cs),
(102,962,o),
(102,636,o),
(110,174,cs),
(112,55,o),
(151,0,o),
(244,-10,c)
);
},
{
closed = 1;
nodes = (
(419,3,o),
(459,59,o),
(462,174,cs),
(466,314,o),
(464,424,o),
(460,564,c),
(420,564,l),
(422,434,o),
(424,304,o),
(422,174,cs),
(420,83,o),
(395,42,o),
(324,31,c),
(324,-9,l)
);
},
{
closed = 1;
nodes = (
(454,1068,l),
(456,1150,o),
(456,1340,o),
(454,1422,cs),
(451,1535,o),
(412,1591,o),
(324,1605,c),
(324,1564,l),
(389,1553,o),
(412,1513,o),
(414,1422,cs),
(416,1304,o),
(416,1186,o),
(414,1068,c)
);
}
);
width = 548;
},
{
anchors = (
{
name = bottom;
pos = (401,0);
},
{
name = top;
pos = (401,1600);
}
);
layerId = "EB6D3A46-95FC-4F29-8169-EF2A3FEDBD5C";
shapes = (
{
closed = 1;
nodes = (
(358,107,l),
(281,116,o),
(251,151,o),
(249,237,cs),
(240,679,o),
(240,920,o),
(249,1361,cs),
(251,1447,o),
(281,1481,o),
(358,1490,c),
(358,1610,l),
(193,1599,o),
(116,1523,o),
(114,1357,cs),
(108,949,o),
(108,650,o),
(114,241,cs),
(117,73,o),
(192,-2,o),
(358,-13,c)
);
},
{
closed = 1;
nodes = (
(625,1,o),
(697,76,o),
(705,241,cs),
(710,343,o),
(708,434,o),
(703,573,c),
(568,573,l),
(572,411,o),
(574,328,o),
(570,237,cs),
(566,154,o),
(537,118,o),
(460,108,c),
(460,-12,l)
);
},
{
closed = 1;
nodes = (
(696,1051,l),
(701,1162,o),
(702,1246,o),
(697,1357,cs),
(689,1517,o),
(617,1594,o),
(460,1608,c),
(460,1489,l),
(531,1477,o),
(559,1442,o),
(562,1361,cs),
(565,1248,o),
(565,1164,o),
(561,1051,c)
);
}
);
width = 802;
},
{
anchors = (
{
name = bottom;
pos = (327,0);
},
{
name = top;
pos = (327,1600);
}
);
layerId = "C388322D-F001-4130-A10A-708FB59AF746";
shapes = (
{
closed = 1;
nodes = (
(294,80,l),
(231,90,o),
(207,129,o),
(205,212,cs),
(197,628,o),
(197,971,o),
(205,1386,cs),
(207,1470,o),
(232,1507,o),
(294,1517,c),
(294,1609,l),
(159,1598,o),
(102,1520,o),
(100,1372,cs),
(93,971,o),
(93,628,o),
(100,226,cs),
(103,69,o),
(157,-2,o),
(294,-12,c)
);
},
{
closed = 1;
nodes = (
(514,1,o),
(571,72,o),
(576,226,cs),
(579,347,o),
(578,452,o),
(574,573,c),
(469,573,l),
(471,458,o),
(473,328,o),
(471,212,cs),
(469,132,o),
(443,92,o),
(379,81,c),
(379,-12,l)
);
},
{
closed = 1;
nodes = (
(567,1051,l),
(569,1129,o),
(570,1294,o),
(568,1372,cs),
(563,1524,o),
(507,1595,o),
(379,1608,c),
(379,1516,l),
(438,1504,o),
(461,1465,o),
(463,1386,cs),
(465,1279,o),
(464,1158,o),
(462,1051,c)
);
}
);
width = 653;
}
);
metricLeft = O;
unicode = 67;
},
{
glyphname = D;
kernLeft = H;
kernRight = O;
layers = (
{
anchors = (
{
name = bottom;
pos = (370,0);
},
{
name = center;
pos = (374,800);
},
{
name = top;
pos = (352,1600);
}
);
layerId = "3B122060-26E0-4730-9241-82784E6CB359";
shapes = (
{
closed = 1;
nodes = (
(220,0,l),
(220,1600,l),
(140,1600,l),
(140,0,l)
);
},
{
closed = 1;
nodes = (
(390,0,ls),
(540,0,o),
(602,54,o),
(604,186,cs),
(610,624,o),
(610,974,o),
(604,1414,cs),
(602,1546,o),
(536,1600,o),
(372,1600,cs),
(312,1600,l),
(312,1524,l),
(372,1524,ls),
(490,1524,o),
(522,1498,o),
(524,1414,cs),
(534,932,o),
(534,668,o),
(524,186,cs),
(522,102,o),
(494,76,o),
(390,76,cs),
(312,76,l),
(312,0,l)
);
}
);
width = 718;
},
{
anchors = (
{
name = bottom;
pos = (480,0);
},
{
name = center;
pos = (520,800);
},
{
name = top;
pos = (520,1600);
}
);
layerId = "1DFA7D5B-2E97-4B89-827F-FB43F8066DC1";
shapes = (
{
closed = 1;
nodes = (
(400,0,l),
(400,1600,l),
(100,1600,l),
(100,0,l)
);
},
{
closed = 1;
nodes = (
(534,0,ls),
(834,0,o),
(958,118,o),
(964,412,cs),
(970,690,o),
(970,912,o),
(964,1190,cs),
(958,1482,o),
(834,1600,o),
(534,1600,cs),
(532,1600,l),
(532,1336,l),
(534,1336,ls),
(618,1336,o),
(662,1296,o),
(664,1226,cs),
(672,942,o),
(672,660,o),
(664,376,cs),
(662,304,o),
(618,264,o),
(534,264,cs),
(532,264,l),
(532,0,l)
);
}
);
width = 1048;
},
{
anchors = (
{
name = bottom;
pos = (460,0);
},
{
name = center;
pos = (500,800);
},
{
name = top;
pos = (500,1600);
}
);
layerId = "5013C991-8699-46CB-BB1C-82E334DBD38B";
shapes = (
{
closed = 1;
nodes = (
(380,0,l),
(380,1600,l),
(80,1600,l),
(80,0,l)
);
},
{
closed = 1;
nodes = (
(486,0,ls),
(786,0,o),
(910,118,o),
(916,412,cs),
(922,690,o),
(922,912,o),
(916,1190,cs),
(910,1482,o),
(786,1600,o),
(486,1600,cs),
(480,1600,l),
(480,1336,l),
(486,1336,ls),
(570,1336,o),
(614,1296,o),
(616,1226,cs),
(624,942,o),
(624,660,o),
(616,376,cs),
(614,304,o),
(570,264,o),
(486,264,cs),
(480,264,l),
(480,0,l)
);
}
);
width = 990;
},
{
anchors = (
{
name = bottom;
pos = (290,0);
},
{
name = center;
pos = (294,800);
},
{
name = top;
pos = (274,1600);
}
);
layerId = "3D06B89B-468F-44E0-A3D7-A5BC6911123E";
shapes = (
{
closed = 1;
nodes = (
(160,0,l),
(160,1600,l),
(120,1600,l),
(120,0,l)
);
},
{
closed = 1;
nodes = (
(290,0,ls),
(412,0,o),
(462,54,o),
(464,186,cs),
(470,624,o),
(470,974,o),
(464,1414,cs),
(462,1546,o),
(412,1600,o),
(292,1600,cs),
(240,1600,l),
(240,1560,l),
(292,1560,ls),
(386,1560,o),
(422,1518,o),
(424,1414,cs),
(428,1004,o),
(428,596,o),
(424,186,cs),
(422,82,o),
(386,40,o),
(290,40,cs),
(240,40,l),
(240,0,l)
);
}
);
width = 572;
},
{
anchors = (
{
name = bottom;
pos = (393,0);
},
{
name = center;
pos = (406,800);
},
{
name = top;
pos = (389,1600);
}
);
layerId = "EB6D3A46-95FC-4F29-8169-EF2A3FEDBD5C";
shapes = (
{
closed = 1;
nodes = (
(260,0,l),
(260,1600,l),
(125,1600,l),
(125,0,l)
);
},
{
closed = 1;
nodes = (
(421,0,ls),
(609,0,o),
(686,70,o),
(689,243,cs),
(695,641,o),
(695,959,o),
(689,1358,cs),
(686,1530,o),
(606,1600,o),
(408,1600,cs),
(362,1600,l),
(362,1477,l),
(408,1477,ls),
(517,1477,o),
(552,1448,o),
(554,1367,cs),
(564,935,o),
(564,666,o),
(554,234,cs),
(552,153,o),
(520,123,o),
(421,123,cs),
(362,123,l),
(362,0,l)
);
}
);
width = 803;
},
{
anchors = (
{
name = bottom;
pos = (333,0);
},
{
name = center;
pos = (346,800);
},
{
name = top;
pos = (331,1600);
}
);
layerId = "C388322D-F001-4130-A10A-708FB59AF746";
shapes = (
{
closed = 1;
nodes = (
(215,0,l),
(215,1600,l),
(110,1600,l),
(110,0,l)
);
},
{
closed = 1;
nodes = (
(339,0,ls),
(506,0,o),
(574,70,o),
(577,243,cs),
(583,641,o),
(583,959,o),
(577,1358,cs),
(574,1530,o),
(506,1600,o),
(341,1600,cs),
(300,1600,l),
(300,1504,l),
(341,1504,ls),
(432,1504,o),
(470,1463,o),
(472,1367,cs),
(477,989,o),
(477,612,o),
(472,234,cs),
(470,138,o),
(432,96,o),
(339,96,cs),
(300,96,l),
(300,0,l)
);
}
);
width = 676;
}
);
metricLeft = H;
metricRight = O;
unicode = 68;
},
{
glyphname = Eth;
kernLeft = H;
kernRight = O;
layers = (
{
layerId = "3B122060-26E0-4730-9241-82784E6CB359";
shapes = (
{
closed = 1;
nodes = (
(140,878,l),
(284,878,l),
(284,946,l),
(140,946,l)
);
},
{
closed = 1;
nodes = (
(382,878,l),
(506,878,l),
(506,946,l),
(382,946,l)
);
},
{
pos = (98,0);
ref = D;
}
);
width = 816;
},
{
layerId = "1DFA7D5B-2E97-4B89-827F-FB43F8066DC1";
shapes = (
{
closed = 1;
nodes = (
(100,720,l),
(296,720,l),
(296,946,l),
(100,946,l)
);
},
{
closed = 1;
nodes = (
(582,720,l),
(716,720,l),
(716,946,l),
(582,946,l)
);
},
{
pos = (138,0);
ref = D;
}
);
width = 1186;
},
{
layerId = "5013C991-8699-46CB-BB1C-82E334DBD38B";
shapes = (
{
closed = 1;
nodes = (
(80,720,l),
(314,720,l),
(314,946,l),
(80,946,l)
);
},
{
closed = 1;
nodes = (
(532,720,l),
(632,720,l),
(632,946,l),
(532,946,l)
);
},
{
pos = (78,0);
ref = D;
}
);
width = 1068;
},
{
layerId = "3D06B89B-468F-44E0-A3D7-A5BC6911123E";
shapes = (
{
closed = 1;
nodes = (
(120,906,l),
(242,906,l),
(242,946,l),
(120,946,l)
);
},
{
closed = 1;
nodes = (
(320,906,l),
(422,906,l),
(422,946,l),
(320,946,l)
);
},
{
pos = (98,0);
ref = D;
}
);
width = 670;
},
{
layerId = "EB6D3A46-95FC-4F29-8169-EF2A3FEDBD5C";
shapes = (
{
closed = 1;
nodes = (
(125,839,l),
(277,839,l),
(277,946,l),
(125,946,l)
);
},
{
closed = 1;
nodes = (
(422,839,l),
(549,839,l),
(549,946,l),
(422,946,l)
);
},
{
alignment = -1;
pos = (98,0);
ref = D;
}
);
width = 901;
},
{
layerId = "C388322D-F001-4130-A10A-708FB59AF746";
shapes = (
{
closed = 1;
nodes = (
(110,860,l),
(265,860,l),
(265,946,l),
(110,946,l)
);
},
{
closed = 1;
nodes = (
(378,860,l),
(480,860,l),
(480,946,l),
(378,946,l)
);
},
{
alignment = -1;
pos = (98,0);
ref = D;
}
);
width = 774;
}
);
metricLeft = H;
metricRight = O;
unicode = 208;
},
{
glyphname = E;
kernLeft = H;
kernRight = E;
layers = (
{
anchors = (
{
name = bottom;
pos = (362,-4);
},
{
name = ogonek;
pos = (512,0);
},
{
name = top;
pos = (342,1596);
},
{
name = topleft;
pos = (160,1600);
}
);
layerId = "3B122060-26E0-4730-9241-82784E6CB359";
shapes = (
{
closed = 1;
nodes = (
(220,0,l),
(220,1600,l),
(140,1600,l),
(140,0,l)
);
},
{
closed = 1;
nodes = (
(558,0,l),
(558,76,l),
(312,76,l),
(312,0,l)
);
},
{
closed = 1;
nodes = (
(538,762,l),
(538,838,l),
(312,838,l),
(312,762,l)
);
},
{
closed = 1;
nodes = (
(558,1524,l),
(558,1600,l),
(312,1600,l),
(312,1524,l)
);
}
);
width = 628;
},
{
anchors = (
{
name = bottom;
pos = (496,0);
},
{
name = ogonek;
pos = (628,0);
},
{
name = top;
pos = (468,1600);
},
{
name = topleft;
pos = (100,1600);
}
);
layerId = "1DFA7D5B-2E97-4B89-827F-FB43F8066DC1";
shapes = (
{
closed = 1;
nodes = (
(400,0,l),
(400,1600,l),
(100,1600,l),
(100,0,l)
);
},
{
closed = 1;
nodes = (
(832,0,l),
(832,264,l),
(534,264,l),
(534,0,l)
);
},
{
closed = 1;
nodes = (
(812,682,l),
(812,946,l),
(534,946,l),
(534,682,l)
);
},
{
closed = 1;
nodes = (
(832,1336,l),
(832,1600,l),
(534,1600,l),
(534,1336,l)
);
}
);
width = 888;
},
{
anchors = (
{
name = bottom;
pos = (436,0);
},
{
name = ogonek;
pos = (560,0);
},
{
name = top;
pos = (430,1600);
},
{
name = topleft;
pos = (40,1600);
}
);
layerId = "5013C991-8699-46CB-BB1C-82E334DBD38B";
shapes = (
{
closed = 1;
nodes = (
(380,0,l),
(380,1600,l),
(80,1600,l),
(80,0,l)
);
},
{
closed = 1;
nodes = (
(772,0,l),
(772,264,l),
(478,264,l),
(478,0,l)
);
},
{
closed = 1;
nodes = (
(752,682,l),
(752,946,l),
(478,946,l),
(478,682,l)
);
},
{
closed = 1;
nodes = (
(772,1336,l),
(772,1600,l),
(478,1600,l),
(478,1336,l)
);
}
);
width = 816;
},
{
anchors = (
{
name = bottom;
pos = (270,0);
},
{
name = ogonek;
pos = (392,0);
},
{
name = top;
pos = (270,1600);
},
{
name = topleft;
pos = (80,1600);
}
);
layerId = "3D06B89B-468F-44E0-A3D7-A5BC6911123E";
shapes = (
{
closed = 1;
nodes = (
(160,0,l),
(160,1600,l),
(120,1600,l),
(120,0,l)
);
},
{
closed = 1;
nodes = (
(438,0,l),
(438,40,l),
(240,40,l),
(240,0,l)
);
},
{
closed = 1;
nodes = (
(418,780,l),
(418,820,l),
(240,820,l),
(240,780,l)
);
},
{
closed = 1;
nodes = (
(438,1560,l),
(438,1600,l),
(240,1600,l),
(240,1560,l)
);
}
);
width = 488;
},
{
anchors = (
{
name = bottom;
pos = (391,-3);
},
{
name = ogonek;
pos = (536,0);
},
{
name = top;
pos = (369,1597);
},
{
name = topleft;
pos = (140,1600);
}
);
layerId = "EB6D3A46-95FC-4F29-8169-EF2A3FEDBD5C";
shapes = (
{
closed = 1;
nodes = (
(260,0,l),
(260,1600,l),
(125,1600,l),
(125,0,l)
);
},
{
closed = 1;
nodes = (
(622,0,l),
(622,123,l),
(363,123,l),
(363,0,l)
);
},
{
closed = 1;
nodes = (
(602,742,l),
(602,865,l),
(363,865,l),
(363,742,l)
);
},
{
closed = 1;
nodes = (
(622,1477,l),
(622,1600,l),
(363,1600,l),
(363,1477,l)
);
}
);
width = 678;
},
{
anchors = (
{
name = bottom;
pos = (312,0);
},
{
name = ogonek;
pos = (434,0);
},
{
name = top;
pos = (310,1600);
},
{
name = topleft;
pos = (70,1600);
}
);
layerId = "C388322D-F001-4130-A10A-708FB59AF746";
shapes = (
{
closed = 1;
nodes = (
(215,0,l),
(215,1600,l),
(110,1600,l),
(110,0,l)
);
},
{
closed = 1;
nodes = (
(522,0,l),
(522,96,l),
(300,96,l),
(300,0,l)
);
},
{
closed = 1;
nodes = (
(502,756,l),
(502,852,l),
(300,852,l),
(300,756,l)
);
},
{
closed = 1;
nodes = (
(522,1504,l),
(522,1600,l),
(300,1600,l),
(300,1504,l)
);
}
);
width = 568;
}
);
metricLeft = H;
unicode = 69;
},
{
glyphname = Schwa;
kernLeft = O;
kernRight = O;
layers = (
{
layerId = "3B122060-26E0-4730-9241-82784E6CB359";
shapes = (
{
closed = 1;
nodes = (
(114,64,o),
(166,4,o),
(292,-8,c),
(292,68,l),
(216,76,o),
(194,110,o),
(192,194,cs),
(186,424,o),
(190,548,o),
(192,740,c),
(392,740,l),
(392,816,l),
(112,816,l),
(110,614,o),
(108,416,o),
(112,194,c)
);
},
{
closed = 1;
nodes = (
(504,2,o),
(554,62,o),
(556,194,cs),
(562,638,o),
(562,956,o),
(556,1402,cs),
(554,1534,o),
(504,1594,o),
(382,1604,c),
(382,1526,l),
(452,1518,o),
(474,1486,o),
(476,1402,cs),
(486,910,o),
(486,684,o),
(476,194,cs),
(474,110,o),
(452,76,o),
(382,68,c),
(382,-8,l)
);
},
{
closed = 1;
nodes = (
(194,1032,l),
(192,1162,o),
(190,1272,o),
(192,1402,cs),
(194,1488,o),
(219,1519,o),
(300,1526,c),
(300,1604,l),
(171,1593,o),
(116,1533,o),
(112,1402,cs),
(108,1262,o),
(110,1172,o),
(114,1032,c)
);
}
);
width = 670;
},
{
layerId = "1DFA7D5B-2E97-4B89-827F-FB43F8066DC1";
shapes = (
{
closed = 1;
nodes = (
(85,116,o),
(191,-2,o),
(451,-18,c),
(451,234,l),
(407,248,o),
(383,278,o),
(381,324,cs),
(377,438,o),
(375,554,o),
(375,682,c),
(533,682,l),
(533,888,l),
(81,888,l),
(79,682,o),
(79,546,o),
(81,380,c)
);
},
{
closed = 1;
nodes = (
(847,-2,o),
(955,114,o),
(959,378,cs),
(965,680,o),
(965,920,o),
(959,1218,cs),
(953,1484,o),
(845,1602,o),
(583,1618,c),
(583,1368,l),
(631,1354,o),
(657,1322,o),
(659,1274,cs),
(669,970,o),
(669,630,o),
(659,324,cs),
(657,278,o),
(631,246,o),
(583,232,c),
(583,-18,l)
);
},
{
closed = 1;
nodes = (
(381,1000,l),
(379,1072,o),
(379,1202,o),
(381,1274,cs),
(382,1322,o),
(410,1354,o),
(459,1368,c),
(459,1618,l),
(197,1602,o),
(88,1485,o),
(81,1218,cs),
(79,1140,o),
(79,1078,o),
(81,1000,c)
);
}
);
width = 1043;
},
{
layerId = "5013C991-8699-46CB-BB1C-82E334DBD38B";
shapes = (
{
closed = 1;
nodes = (
(75,112,o),
(185,-6,o),
(437,-18,c),
(437,232,l),
(395,244,o),
(373,276,o),
(371,324,cs),
(367,438,o),
(365,554,o),
(365,682,c),
(515,682,l),
(515,888,l),
(71,888,l),
(69,682,o),
(69,546,o),
(71,380,c)
);
},
{
closed = 1;
nodes = (
(795,-2,o),
(905,148,o),
(909,378,cs),
(913,604,o),
(913,996,o),
(909,1218,cs),
(903,1490,o),
(801,1606,o),
(537,1618,c),
(537,1370,l),
(583,1356,o),
(607,1324,o),
(609,1274,cs),
(619,996,o),
(619,604,o),
(609,324,cs),
(607,276,o),
(583,244,o),
(537,230,c),
(537,-18,l)
);
},
{
closed = 1;
nodes = (
(371,1000,l),
(369,1072,o),
(369,1202,o),
(371,1274,cs),
(373,1324,o),
(398,1357,o),
(445,1370,c),
(445,1619,l),
(187,1606,o),
(79,1489,o),
(71,1218,cs),
(69,1154,o),
(69,1064,o),
(71,1000,c)
);
}
);
width = 982;
},
{
layerId = "3D06B89B-468F-44E0-A3D7-A5BC6911123E";
shapes = (
{
closed = 1;
nodes = (
(108,56,o),
(150,2,o),
(252,-10,c),
(252,30,l),
(178,42,o),
(148,86,o),
(146,174,cs),
(144,398,o),
(144,574,o),
(146,776,c),
(356,776,l),
(356,816,l),
(106,816,l),
(104,598,o),
(104,414,o),
(106,174,c)
);
},
{
closed = 1;
nodes = (
(428,0,o),
(468,56,o),
(470,174,cs),
(478,618,o),
(478,976,o),
(470,1422,cs),
(468,1540,o),
(428,1594,o),
(332,1606,c),
(332,1566,l),
(400,1554,o),
(428,1510,o),
(430,1422,cs),
(438,976,o),
(438,618,o),
(430,174,cs),
(428,86,o),
(400,42,o),
(332,30,c),
(332,-10,l)
);
},
{
closed = 1;
nodes = (
(148,1032,l),
(146,1218,o),
(144,1330,o),
(146,1422,cs),
(148,1512,o),
(181,1556,o),
(260,1566,c),
(260,1606,l),
(155,1596,o),
(110,1540,o),
(106,1422,cs),
(102,1308,o),
(104,1196,o),
(108,1032,c)
);
}
);
width = 580;
},
{
layerId = "EB6D3A46-95FC-4F29-8169-EF2A3FEDBD5C";
shapes = (
{
closed = 1;
nodes = (
(114,77,o),
(180,3,o),
(339,-11,c),
(339,110,l),
(271,119,o),
(249,152,o),
(247,227,cs),
(241,428,o),
(244,550,o),
(245,726,c),
(435,726,l),
(435,834,l),
(112,834,l),
(110,631,o),
(108,449,o),
(112,241,c)
);
},
{
closed = 1;
nodes = (
(597,1,o),
(662,75,o),
(664,240,cs),
(670,649,o),
(670,947,o),
(664,1356,cs),
(661,1522,o),
(597,1596,o),
(440,1608,c),
(440,1487,l),
(504,1477,o),
(527,1445,o),
(529,1370,cs),
(539,925,o),
(539,671,o),
(529,227,cs),
(527,152,o),
(504,119,o),
(440,109,c),
(440,-11,l)
);
},
{
closed = 1;
nodes = (
(248,1024,l),
(246,1140,o),
(245,1255,o),
(247,1370,cs),
(248,1446,o),
(274,1478,o),
(347,1487,c),
(347,1608,l),
(185,1596,o),
(116,1521,o),
(112,1356,cs),
(108,1232,o),
(110,1149,o),
(113,1024,c)
);
}
);
width = 778;
},
{
layerId = "C388322D-F001-4130-A10A-708FB59AF746";
shapes = (
{
closed = 1;
nodes = (
(99,70,o),
(158,0,o),
(298,-12,c),
(298,81,l),
(232,93,o),
(204,134,o),
(202,212,cs),
(199,408,o),
(199,569,o),
(200,753,c),
(395,753,l),
(395,834,l),
(97,834,l),
(95,619,o),
(95,447,o),
(97,226,c)
);
},
{
closed = 1;
nodes = (
(519,-1,o),
(577,79,o),
(579,225,cs),
(586,615,o),
(586,981,o),
(579,1371,cs),
(576,1528,o),
(521,1597,o),
(383,1609,c),
(383,1517,l),
(445,1505,o),
(472,1464,o),
(474,1385,cs),
(483,981,o),
(483,615,o),
(474,212,cs),
(472,134,o),
(445,93,o),
(383,80,c),
(383,-12,l)
);
},
{
closed = 1;
nodes = (
(203,1024,l),
(201,1182,o),
(200,1298,o),
(202,1385,cs),
(203,1465,o),
(235,1506,o),
(306,1517,c),
(306,1609,l),
(162,1598,o),
(101,1527,o),
(97,1371,cs),
(93,1270,o),
(95,1163,o),
(98,1024,c)
);
}
);
width = 679;
}
);
metricLeft = O;
metricRight = O;
unicode = 399;
},
{
glyphname = F;
kernLeft = H;
kernRight = F;
layers = (
{
layerId = "3B122060-26E0-4730-9241-82784E6CB359";
shapes = (
{
closed = 1;
nodes = (
(220,0,l),
(220,1600,l),
(140,1600,l),
(140,0,l)
);
},
{
closed = 1;
nodes = (
(558,762,l),
(558,838,l),
(312,838,l),
(312,762,l)
);
},
{
closed = 1;
nodes = (
(578,1524,l),
(578,1600,l),
(312,1600,l),
(312,1524,l)
);
}
);
width = 623;
},
{
layerId = "1DFA7D5B-2E97-4B89-827F-FB43F8066DC1";
shapes = (
{
closed = 1;
nodes = (
(400,0,l),
(400,1600,l),
(100,1600,l),
(100,0,l)
);
},
{
closed = 1;
nodes = (
(812,682,l),
(812,946,l),
(532,946,l),
(532,682,l)
);
},
{
closed = 1;
nodes = (
(832,1336,l),
(832,1600,l),
(532,1600,l),
(532,1336,l)
);
}
);
width = 872;
},
{
layerId = "5013C991-8699-46CB-BB1C-82E334DBD38B";
shapes = (
{
closed = 1;
nodes = (
(380,0,l),
(380,1600,l),
(80,1600,l),
(80,0,l)
);
},
{
closed = 1;
nodes = (
(752,682,l),
(752,946,l),
(480,946,l),
(480,682,l)
);
},
{
closed = 1;
nodes = (
(772,1336,l),
(772,1600,l),
(480,1600,l),
(480,1336,l)
);
}
);
width = 812;
},
{
layerId = "3D06B89B-468F-44E0-A3D7-A5BC6911123E";
shapes = (
{
closed = 1;
nodes = (
(160,0,l),
(160,1600,l),
(120,1600,l),
(120,0,l)
);
},
{
closed = 1;
nodes = (
(418,780,l),
(418,820,l),
(220,820,l),
(220,780,l)
);
},
{
closed = 1;
nodes = (
(438,1560,l),
(438,1600,l),
(220,1600,l),
(220,1560,l)
);
}
);
width = 478;
},
{
layerId = "EB6D3A46-95FC-4F29-8169-EF2A3FEDBD5C";
shapes = (
{
closed = 1;
nodes = (
(260,0,l),
(260,1600,l),
(125,1600,l),
(125,0,l)
);
},
{
closed = 1;
nodes = (
(617,742,l),
(617,865,l),
(362,865,l),
(362,742,l)
);
},
{
closed = 1;
nodes = (
(637,1477,l),
(637,1600,l),
(362,1600,l),
(362,1477,l)
);
}
);
width = 673;
},
{
layerId = "C388322D-F001-4130-A10A-708FB59AF746";
shapes = (
{
closed = 1;
nodes = (
(215,0,l),
(215,1600,l),
(110,1600,l),
(110,0,l)
);
},
{
closed = 1;
nodes = (
(502,756,l),
(502,852,l),
(285,852,l),
(285,756,l)
);
},
{
closed = 1;
nodes = (
(522,1504,l),
(522,1600,l),
(285,1600,l),
(285,1504,l)
);
}
);
width = 552;
}
);
metricLeft = H;
unicode = 70;
},
{
glyphname = G;
kernLeft = O;
kernRight = G;
layers = (
{
anchors = (
{
name = bottom;
pos = (356,0);
},
{
name = top;
pos = (356,1600);
}
);
background = {
shapes = (
{
closed = 1;
nodes = (
(468,-20,o),
(550,66,o),
(550,180,cs),
(550,596,l),
(510,596,l),
(510,180,ls),
(510,88,o),
(446,20,o),
(360,20,cs),
(274,20,o),
(210,88,o),
(210,180,cs),
(210,1420,ls),
(210,1512,o),
(274,1580,o),
(360,1580,cs),
(446,1580,o),
(510,1512,o),
(510,1420,cs),
(510,1140,l),
(550,1140,l),
(550,1420,ls),
(550,1534,o),
(468,1620,o),
(360,1620,cs),
(252,1620,o),
(170,1534,o),
(170,1420,cs),
(170,180,ls),
(170,66,o),
(252,-20,o),
(360,-20,cs)
);
},
{
closed = 1;
nodes = (
(334,596,l),
(550,596,l),
(550,636,l),
(334,636,l)
);
}
);
};
layerId = "3B122060-26E0-4730-9241-82784E6CB359";
shapes = (
{
closed = 1;
nodes = (
(312,67,l),
(217,74,o),
(196,107,o),
(194,196,cs),
(186,670,o),
(186,930,o),
(194,1404,cs),
(196,1493,o),
(218,1526,o),
(312,1533,c),
(312,1609,l),
(168,1599,o),
(116,1539,o),
(114,1404,cs),
(108,972,o),
(108,628,o),
(114,196,cs),
(116,61,o),
(167,1,o),
(312,-9,c)
);
},
{
closed = 1;
nodes = (
(550,1,o),
(604,61,o),
(606,196,cs),
(608,318,o),
(608,422,o),
(606,614,c),
(340,614,l),
(340,534,l),
(526,534,l),
(528,406,o),
(528,324,o),
(526,196,cs),
(524,106,o),
(502,74,o),
(402,67,c),
(402,-9,l)
);
},
{
closed = 1;
nodes = (
(598,1070,l),
(602,1196,o),
(602,1278,o),
(598,1404,cs),
(594,1538,o),
(543,1598,o),
(402,1608,c),
(402,1532,l),
(493,1525,o),
(515,1493,o),
(518,1404,cs),
(522,1278,o),
(522,1196,o),
(518,1070,c)
);
}
);
width = 699;
},
{
anchors = (
{
name = bottom;
pos = (520,0);
},
{
name = top;
pos = (520,1600);
}
);
background = {
shapes = (
{
closed = 1;
nodes = (
(540,-20,o),
(666,108,o),
(666,280,cs),
(666,600,l),
(466,600,l),
(466,280,ls),
(466,222,o),
(426,180,o),
(374,180,cs),
(324,180,o),
(286,222,o),
(286,280,cs),
(286,1320,ls),
(286,1378,o),
(324,1420,o),
(374,1420,cs),
(426,1420,o),
(466,1378,o),
(466,1320,cs),
(466,1000,l),
(666,1000,l),
(666,1320,ls),
(666,1492,o),
(540,1620,o),
(374,1620,cs),
(210,1620,o),
(86,1492,o),
(86,1320,cs),
(86,280,ls),
(86,108,o),
(210,-20,o),
(374,-20,cs)
);
},
{
closed = 1;
nodes = (
(372,600,l),
(666,600,l),
(666,800,l),
(372,800,l)
);
}
);
};
layerId = "1DFA7D5B-2E97-4B89-827F-FB43F8066DC1";
shapes = (
{
closed = 1;
nodes = (
(462,232,l),
(413,246,o),
(390,282,o),
(386,346,cs),
(370,626,o),
(370,976,o),
(386,1256,cs),
(390,1319,o),
(413,1354,o),
(462,1368,c),
(462,1618,l),
(206,1601,o),
(97,1477,o),
(86,1202,cs),
(78,986,o),
(78,606,o),
(86,382,cs),
(95,116,o),
(204,-2,o),
(462,-18,c)
);
},
{
closed = 1;
nodes = (
(847,-1,o),
(955,116,o),
(968,382,cs),
(974,504,o),
(976,660,o),
(970,782,c),
(568,782,l),
(568,522,l),
(678,522,l),
(682,476,o),
(682,392,o),
(678,346,cs),
(672,281,o),
(647,245,o),
(594,231,c),
(594,-18,l)
);
},
{
closed = 1;
nodes = (
(964,1000,l),
(968,1062,o),
(968,1158,o),
(964,1220,cs),
(947,1484,o),
(841,1601,o),
(594,1618,c),
(594,1367,l),
(639,1352,o),
(660,1317,o),
(664,1256,cs),
(668,1168,o),
(668,1088,o),
(664,1000,c)
);
}
);
width = 1044;
},
{
anchors = (
{
name = bottom;
pos = (490,0);
},
{
name = top;
pos = (490,1600);
}
);
background = {
shapes = (
{
closed = 1;
nodes = (
(510,-20,o),
(636,108,o),
(636,280,cs),
(636,600,l),
(436,600,l),
(436,280,ls),
(436,222,o),
(396,180,o),
(344,180,cs),
(294,180,o),
(256,222,o),
(256,280,cs),
(256,1320,ls),
(256,1378,o),
(294,1420,o),
(344,1420,cs),
(396,1420,o),
(436,1378,o),
(436,1320,cs),
(436,1000,l),
(636,1000,l),
(636,1320,ls),
(636,1492,o),
(510,1620,o),
(344,1620,cs),
(180,1620,o),
(56,1492,o),
(56,1320,cs),
(56,280,ls),
(56,108,o),
(180,-20,o),
(344,-20,cs)
);
},
{
closed = 1;
nodes = (
(342,600,l),
(636,600,l),
(636,800,l),
(342,800,l)
);
}
);
};
layerId = "5013C991-8699-46CB-BB1C-82E334DBD38B";
shapes = (
{
closed = 1;
nodes = (
(448,230,l),
(403,243,o),
(379,276,o),
(376,326,cs),
(360,606,o),
(360,996,o),
(376,1276,cs),
(379,1325,o),
(403,1357,o),
(448,1370,c),
(448,1619,l),
(189,1606,o),
(87,1488,o),
(76,1202,cs),
(68,986,o),
(68,606,o),
(76,382,cs),
(85,110,o),
(184,-6,o),
(448,-19,c)
);
},
{
closed = 1;
nodes = (
(798,-6,o),
(905,111,o),
(918,382,cs),
(924,504,o),
(926,660,o),
(920,782,c),
(518,782,l),
(518,522,l),
(628,522,l),
(632,476,o),
(632,372,o),
(628,326,cs),
(623,276,o),
(595,243,o),
(548,230,c),
(548,-19,l)
);
},
{
closed = 1;
nodes = (
(914,1000,l),
(918,1062,o),
(918,1158,o),
(914,1220,cs),
(897,1488,o),
(792,1605,o),
(548,1619,c),
(548,1368,l),
(588,1355,o),
(611,1323,o),
(614,1276,cs),
(618,1202,o),
(618,1074,o),
(614,1000,c)
);
}
);
width = 986;
},
{
anchors = (
{
name = bottom;
pos = (274,0);
},
{
name = top;
pos = (274,1600);
}
);
background = {
shapes = (
{
closed = 1;
nodes = (
(422,-20,o),
(504,66,o),
(504,180,cs),
(504,596,l),
(464,596,l),
(464,180,ls),
(464,88,o),
(400,20,o),
(314,20,cs),
(228,20,o),
(164,88,o),
(164,180,cs),
(164,1420,ls),
(164,1512,o),
(228,1580,o),
(314,1580,cs),
(400,1580,o),
(464,1512,o),
(464,1420,cs),
(464,1140,l),
(504,1140,l),
(504,1420,ls),
(504,1534,o),
(422,1620,o),
(314,1620,cs),
(206,1620,o),
(124,1534,o),
(124,1420,cs),
(124,180,ls),
(124,66,o),
(206,-20,o),
(314,-20,cs)
);
},
{
closed = 1;
nodes = (
(288,596,l),
(504,596,l),
(504,636,l),
(288,636,l)
);
}
);
};
layerId = "3D06B89B-468F-44E0-A3D7-A5BC6911123E";
shapes = (
{
closed = 1;
nodes = (
(240,33,l),
(175,45,o),
(148,89,o),
(148,176,cs),
(144,622,o),
(144,978,o),
(148,1424,cs),
(150,1511,o),
(177,1555,o),
(240,1567,c),
(240,1608,l),
(149,1596,o),
(110,1540,o),
(108,1424,cs),
(102,978,o),
(102,622,o),
(108,176,cs),
(110,60,o),
(148,5,o),
(240,-7,c)
);
},
{
closed = 1;
nodes = (
(417,3,o),
(458,58,o),
(460,176,cs),
(462,398,o),
(462,522,o),
(460,614,c),
(274,614,l),
(274,574,l),
(420,574,l),
(422,432,o),
(422,318,o),
(420,176,cs),
(418,87,o),
(389,43,o),
(320,33,c),
(320,-8,l)
);
},
{
closed = 1;
nodes = (
(452,1070,l),
(456,1196,o),
(456,1298,o),
(452,1424,cs),
(448,1540,o),
(409,1596,o),
(320,1608,c),
(320,1567,l),
(382,1555,o),
(409,1511,o),
(412,1424,cs),
(416,1298,o),
(416,1196,o),
(412,1070,c)
);
}
);
width = 545;
},
{
anchors = (
{
name = bottom;
pos = (405,0);
},
{
name = top;
pos = (405,1600);
}
);
layerId = "EB6D3A46-95FC-4F29-8169-EF2A3FEDBD5C";
shapes = (
{
closed = 1;
nodes = (
(357,109,l),
(274,117,o),
(252,151,o),
(250,234,cs),
(240,659,o),
(240,942,o),
(250,1367,cs),
(252,1450,o),
(274,1483,o),
(357,1492,c),
(357,1611,l),
(185,1600,o),
(119,1524,o),
(115,1354,cs),
(108,976,o),
(108,623,o),
(115,243,cs),
(118,75,o),
(184,0,o),
(357,-11,c)
);
},
{
closed = 1;
nodes = (
(632,0,o),
(699,74,o),
(704,243,cs),
(707,365,o),
(708,482,o),
(705,656,c),
(405,656,l),
(405,531,l),
(572,531,l),
(574,424,o),
(574,341,o),
(572,234,cs),
(569,150,o),
(546,116,o),
(458,108,c),
(458,-11,l)
);
},
{
closed = 1;
nodes = (
(697,1053,l),
(701,1163,o),
(701,1248,o),
(697,1358,cs),
(690,1525,o),
(625,1599,o),
(458,1611,c),
(458,1491,l),
(537,1482,o),
(558,1449,o),
(562,1367,cs),
(566,1251,o),
(566,1169,o),
(562,1053,c)
);
}
);
width = 797;
},
{
anchors = (
{
name = bottom;
pos = (328,0);
},
{
name = top;
pos = (328,1600);
}
);
layerId = "C388322D-F001-4130-A10A-708FB59AF746";
shapes = (
{
closed = 1;
nodes = (
(292,83,l),
(231,95,o),
(205,136,o),
(205,214,cs),
(198,618,o),
(198,983,o),
(205,1387,cs),
(207,1465,o),
(233,1505,o),
(292,1517,c),
(292,1610,l),
(158,1599,o),
(104,1527,o),
(100,1369,cs),
(93,980,o),
(93,618,o),
(100,228,cs),
(103,73,o),
(157,2,o),
(292,-10,c)
);
},
{
closed = 1;
nodes = (
(512,1,o),
(569,72,o),
(574,228,cs),
(577,425,o),
(578,557,o),
(575,656,c),
(335,656,l),
(335,561,l),
(472,561,l),
(474,443,o),
(474,332,o),
(472,214,cs),
(469,134,o),
(440,93,o),
(377,82,c),
(377,-11,l)
);
},
{
closed = 1;
nodes = (
(567,1053,l),
(571,1163,o),
(571,1263,o),
(567,1373,cs),
(560,1527,o),
(505,1598,o),
(377,1610,c),
(377,1517,l),
(433,1505,o),
(459,1464,o),
(462,1387,cs),
(466,1274,o),
(466,1166,o),
(462,1053,c)
);
}
);
width = 651;
}
);
metricLeft = O;
unicode = 71;
},
{
glyphname = H;
kernLeft = H;
kernRight = H;
layers = (
{
anchors = (
{
name = bottom;
pos = (380,0);
},
{
name = center;
pos = (380,800);
},
{
name = top;
pos = (380,1600);
},
{
name = topleft;
pos = (100,1600);
}
);
layerId = "3B122060-26E0-4730-9241-82784E6CB359";
shapes = (
{
closed = 1;
nodes = (
(220,0,l),
(220,1600,l),
(140,1600,l),
(140,0,l)
);
},
{
closed = 1;
nodes = (
(448,762,l),
(468,838,l),
(179,838,l),
(179,762,l)
);
},
{
closed = 1;
nodes = (
(620,0,l),
(620,1600,l),
(540,1600,l),
(540,0,l)
);
}
);
width = 760;
},
{
anchors = (
{
name = bottom;
pos = (526,0);
},
{
name = center;
pos = (526,800);
},
{
name = top;
pos = (526,1600);
},
{
name = topleft;
pos = (60,1600);
}
);
layerId = "1DFA7D5B-2E97-4B89-827F-FB43F8066DC1";
shapes = (
{
closed = 1;
nodes = (
(400,0,l),
(400,1600,l),
(100,1600,l),
(100,0,l)
);
},
{
closed = 1;
nodes = (
(516,682,l),
(586,946,l),
(300,946,l),
(300,682,l)
);
},
{
closed = 1;
nodes = (
(950,0,l),
(950,1600,l),
(650,1600,l),
(650,0,l)
);
}
);
width = 1050;
},
{
anchors = (
{
name = bottom;
pos = (486,0);
},
{
name = center;
pos = (486,800);
},
{
name = top;
pos = (486,1600);
},
{
name = topleft;
pos = (40,1600);
}
);
layerId = "5013C991-8699-46CB-BB1C-82E334DBD38B";
shapes = (
{
closed = 1;
nodes = (
(380,0,l),
(380,1600,l),
(80,1600,l),
(80,0,l)
);
},
{
closed = 1;
nodes = (
(460,682,l),
(530,946,l),
(260,946,l),
(260,682,l)
);
},
{
closed = 1;
nodes = (
(890,0,l),
(890,1600,l),
(590,1600,l),
(590,0,l)
);
}
);
width = 970;
},
{
anchors = (
{
name = bottom;
pos = (300,0);
},
{
name = center;
pos = (300,800);
},
{
name = top;
pos = (300,1600);
},
{
name = topleft;
pos = (520,1600);
}
);
layerId = "3D06B89B-468F-44E0-A3D7-A5BC6911123E";
shapes = (
{
closed = 1;
nodes = (
(160,0,l),
(160,1600,l),
(120,1600,l),
(120,0,l)
);
},
{
closed = 1;
nodes = (
(370,780,l),
(380,820,l),
(142,820,l),
(142,780,l)
);
},
{
closed = 1;
nodes = (
(480,0,l),
(480,1600,l),
(440,1600,l),
(440,0,l)
);
}
);
width = 600;
},
{
anchors = (
{
name = bottom;
pos = (412,0);
},
{
name = center;
pos = (412,800);
},
{
name = top;
pos = (412,1600);
},
{
name = topleft;
pos = (85,1600);
}
);
layerId = "EB6D3A46-95FC-4F29-8169-EF2A3FEDBD5C";
shapes = (
{
closed = 1;
nodes = (
(260,0,l),
(260,1600,l),
(125,1600,l),
(125,0,l)
);
},
{
closed = 1;
nodes = (
(460,742,l),
(493,865,l),
(197,865,l),
(197,742,l)
);
},
{
closed = 1;
nodes = (
(698,0,l),
(698,1600,l),
(563,1600,l),
(563,0,l)
);
}
);
width = 823;
},
{
anchors = (
{
name = bottom;
pos = (347,0);
},
{
name = center;
pos = (347,800);
},
{
name = top;
pos = (347,1600);
},
{
name = topleft;
pos = (400,1600);
}
);
layerId = "C388322D-F001-4130-A10A-708FB59AF746";
shapes = (
{
closed = 1;
nodes = (
(215,0,l),
(215,1600,l),
(110,1600,l),
(110,0,l)
);
},
{
closed = 1;
nodes = (
(393,756,l),
(418,852,l),
(172,852,l),
(172,756,l)
);
},
{
closed = 1;
nodes = (
(583,0,l),
(583,1600,l),
(478,1600,l),
(478,0,l)
);
}
);
width = 693;
}
);
unicode = 72;
},
{
glyphname = Hbar;
kernLeft = H;
kernRight = H;
layers = (
{
layerId = "3B122060-26E0-4730-9241-82784E6CB359";
shapes = (
{
closed = 1;
nodes = (
(140,1142,l),
(284,1142,l),
(284,1210,l),
(140,1210,l)
);
},
{
closed = 1;
nodes = (
(342,1142,l),
(752,1142,l),
(752,1210,l),
(342,1210,l)
);
},
{
pos = (66,0);
ref = H;
}
);
width = 892;
},
{
layerId = "1DFA7D5B-2E97-4B89-827F-FB43F8066DC1";
metricLeft = "=30";
metricRight = "=30";
shapes = (
{
closed = 1;
nodes = (
(30,1054,l),
(352,1054,l),
(352,1280,l),
(30,1280,l)
);
},
{
closed = 1;
nodes = (
(526,1054,l),
(1072,1054,l),
(1072,1280,l),
(526,1280,l)
);
},
{
pos = (46,0);
ref = H;
}
);
width = 1102;
},
{
layerId = "5013C991-8699-46CB-BB1C-82E334DBD38B";
metricLeft = "=30";
metricRight = "=30";
shapes = (
{
closed = 1;
nodes = (
(30,1054,l),
(326,1054,l),
(326,1280,l),
(30,1280,l)
);
},
{
closed = 1;
nodes = (
(538,1054,l),
(1062,1054,l),
(1062,1280,l),
(538,1280,l)
);
},
{
pos = (66,0);
ref = H;
}
);
width = 1092;
},
{
layerId = "3D06B89B-468F-44E0-A3D7-A5BC6911123E";
metricLeft = "=15";
metricRight = "=15";
shapes = (
{
closed = 1;
nodes = (
(15,1160,l),
(115,1160,l),
(115,1200,l),
(15,1200,l)
);
},
{
closed = 1;
nodes = (
(223,1160,l),
(545,1160,l),
(545,1200,l),
(223,1200,l)
);
},
{
pos = (-19,0);
ref = H;
}
);
width = 560;
},
{
layerId = "EB6D3A46-95FC-4F29-8169-EF2A3FEDBD5C";
metricLeft = "=62";
metricRight = "=62";
shapes = (
{
closed = 1;
nodes = (
(62,1120,l),
(250,1120,l),
(250,1228,l),
(62,1228,l)
);
},
{
closed = 1;
nodes = (
(338,1120,l),
(782,1120,l),
(782,1228,l),
(338,1228,l)
);
},
{
alignment = -1;
pos = (10,0);
ref = H;
}
);
width = 844;
},
{
layerId = "C388322D-F001-4130-A10A-708FB59AF746";
metricLeft = "=55";
shapes = (
{
closed = 1;
nodes = (
(55,1134,l),
(203,1134,l),
(203,1220,l),
(55,1220,l)
);
},
{
closed = 1;
nodes = (
(337,1134,l),
(711,1134,l),
(711,1220,l),
(337,1220,l)
);
},
{
alignment = -1;
pos = (39,0);
ref = H;
}
);
width = 821;
}
);
metricLeft = H;
metricRight = H;
unicode = 294;
},
{
glyphname = I;
kernLeft = H;
kernRight = H;
layers = (
{
anchors = (
{
name = bottom;
pos = (180,0);
},
{
name = ogonek;
pos = (178,0);
},
{
name = top;
pos = (180,1600);
},
{
name = topleft;
pos = (100,1600);
}
);
layerId = "3B122060-26E0-4730-9241-82784E6CB359";
shapes = (
{
closed = 1;
nodes = (
(220,0,l),
(220,1600,l),
(140,1600,l),
(140,0,l)
);
}
);
width = 360;
},
{
anchors = (
{
name = bottom;
pos = (250,0);
},
{
name = ogonek;
pos = (208,0);
},
{
name = top;
pos = (250,1600);
},
{
name = topleft;
pos = (60,1600);
}
);
layerId = "1DFA7D5B-2E97-4B89-827F-FB43F8066DC1";
shapes = (
{
closed = 1;
nodes = (
(400,0,l),
(400,1600,l),
(100,1600,l),
(100,0,l)
);
}
);
width = 500;
},
{
anchors = (
{
name = bottom;
pos = (230,0);
},
{
name = ogonek;
pos = (181,0);
},
{
name = top;
pos = (230,1600);
},
{
name = topleft;
pos = (40,1600);
}
);
layerId = "5013C991-8699-46CB-BB1C-82E334DBD38B";
shapes = (
{
closed = 1;
nodes = (
(380,0,l),
(380,1600,l),
(80,1600,l),
(80,0,l)
);
}
);
width = 460;
},
{
anchors = (
{
name = bottom;
pos = (140,0);
},
{
name = ogonek;
pos = (142,0);
},
{
name = top;
pos = (140,1600);
},
{
name = topleft;
pos = (80,1600);
}
);
layerId = "3D06B89B-468F-44E0-A3D7-A5BC6911123E";
shapes = (
{
closed = 1;
nodes = (
(160,0,l),
(160,1600,l),
(120,1600,l),
(120,0,l)
);
}
);
width = 280;
},
{
anchors = (
{
name = bottom;
pos = (193,0);
},
{
name = ogonek;
pos = (181,0);
},
{
name = top;
pos = (193,1600);
},
{
name = topleft;
pos = (85,1600);
}
);
layerId = "EB6D3A46-95FC-4F29-8169-EF2A3FEDBD5C";
shapes = (
{
closed = 1;
nodes = (
(260,0,l),
(260,1600,l),
(125,1600,l),
(125,0,l)
);
}
);
width = 385;
},
{
anchors = (
{
name = bottom;
pos = (163,0);
},
{
name = ogonek;
pos = (152,0);
},
{
name = top;
pos = (163,1600);
},
{
name = topleft;
pos = (70,1600);
}
);
layerId = "C388322D-F001-4130-A10A-708FB59AF746";
shapes = (
{
closed = 1;
nodes = (
(215,0,l),
(215,1600,l),
(110,1600,l),
(110,0,l)
);
}
);
width = 325;
}
);
metricLeft = H;
metricRight = H;
unicode = 73;
},
{
glyphname = J;
kernLeft = J;
kernRight = J;
layers = (
{
anchors = (
{
name = bottom;
pos = (292,0);
},
{
name = top;
pos = (332,1600);
}
);
layerId = "3B122060-26E0-4730-9241-82784E6CB359";
shapes = (
{
closed = 1;
nodes = (
(238,69,l),
(171,79,o),
(151,114,o),
(148,196,cs),
(142,326,o),
(144,436,o),
(148,566,c),
(68,566,l),
(64,426,o),
(64,336,o),
(68,196,cs),
(72,64,o),
(121,4,o),
(238,-8,c)
);
},
{
closed = 1;
nodes = (
(462,2,o),
(516,63,o),
(516,196,cs),
(516,1600,l),
(436,1600,l),
(436,196,ls),
(436,112,o),
(412,76,o),
(330,68,c),
(330,-8,l)
);
}
);
width = 638;
},
{
anchors = (
{
name = bottom;
pos = (459,-20);
},
{
name = top;
pos = (515,1600);
}
);
layerId = "1DFA7D5B-2E97-4B89-827F-FB43F8066DC1";
shapes = (
{
closed = 1;
nodes = (
(393,232,l),
(346,247,o),
(324,282,o),
(323,346,cs),
(321,418,o),
(321,528,o),
(323,600,c),
(41,600,l),
(39,536,o),
(39,446,o),
(41,382,cs),
(48,117,o),
(151,-1,o),
(393,-18,c)
);
},
{
closed = 1;
nodes = (
(785,-2,o),
(889,116,o),
(889,382,cs),
(889,1600,l),
(589,1600,l),
(589,346,ls),
(589,283,o),
(570,248,o),
(525,233,c),
(525,-18,l)
);
}
);
width = 971;
},
{
anchors = (
{
name = bottom;
pos = (433,-20);
},
{
name = top;
pos = (489,1600);
}
);
layerId = "5013C991-8699-46CB-BB1C-82E334DBD38B";
shapes = (
{
closed = 1;
nodes = (
(383,230,l),
(339,243,o),
(319,276,o),
(317,326,cs),
(315,398,o),
(315,528,o),
(317,600,c),
(35,600,l),
(33,536,o),
(33,446,o),
(35,382,cs),
(43,111,o),
(128,-6,o),
(383,-19,c)
);
},
{
closed = 1;
nodes = (
(747,-6,o),
(843,110,o),
(843,382,cs),
(843,1600,l),
(543,1600,l),
(543,326,ls),
(543,276,o),
(525,244,o),
(483,231,c),
(483,-19,l)
);
}
);
width = 905;
},
{
anchors = (
{
name = bottom;
pos = (249,0);
},
{
name = top;
pos = (289,1600);
}
);
layerId = "3D06B89B-468F-44E0-A3D7-A5BC6911123E";
shapes = (
{
closed = 1;
nodes = (
(201,33,l),
(133,44,o),
(108,88,o),
(105,176,cs),
(101,306,o),
(101,436,o),
(105,566,c),
(65,566,l),
(61,426,o),
(61,316,o),
(65,176,cs),
(67,59,o),
(106,3,o),
(201,-8,c)
);
},
{
closed = 1;
nodes = (
(374,4,o),
(413,59,o),
(413,176,cs),
(413,1600,l),
(373,1600,l),
(373,176,ls),
(373,88,o),
(346,45,o),
(281,33,c),
(281,-8,l)
);
}
);
width = 515;
},
{
anchors = (
{
name = bottom;
pos = (332,-5);
},
{
name = top;
pos = (376,1600);
}
);
layerId = "EB6D3A46-95FC-4F29-8169-EF2A3FEDBD5C";
shapes = (
{
closed = 1;
nodes = (
(275,110,l),
(213,121,o),
(192,156,o),
(190,234,cs),
(185,349,o),
(186,459,o),
(190,575,c),
(59,575,l),
(56,454,o),
(56,364,o),
(59,243,cs),
(64,77,o),
(126,3,o),
(275,-10,c)
);
},
{
closed = 1;
nodes = (
(541,1,o),
(607,76,o),
(607,243,cs),
(607,1600,l),
(472,1600,l),
(472,234,ls),
(472,155,o),
(449,119,o),
(377,109,c),
(377,-11,l)
);
}
);
width = 714;
},
{
anchors = (
{
name = bottom;
pos = (300,-5);
},
{
name = top;
pos = (344,1600);
}
);
layerId = "C388322D-F001-4130-A10A-708FB59AF746";
shapes = (
{
closed = 1;
nodes = (
(251,82,l),
(189,94,o),
(165,135,o),
(163,214,cs),
(159,329,o),
(159,459,o),
(163,575,c),
(62,575,l),
(59,454,o),
(59,349,o),
(62,228,cs),
(65,72,o),
(116,1,o),
(251,-11,c)
);
},
{
closed = 1;
nodes = (
(472,1,o),
(525,72,o),
(525,228,cs),
(525,1600,l),
(420,1600,l),
(420,214,ls),
(420,135,o),
(395,94,o),
(336,83,c),
(336,-11,l)
);
}
);
width = 617;
}
);
metricRight = "=H-18";
unicode = 74;
},
{
glyphname = K;
kernLeft = H;
kernRight = K;
layers = (
{
anchors = (
{
name = bottom;
pos = (370,0);
},
{
name = top;
pos = (350,1600);
}
);
background = {
shapes = (
{
closed = 1;
nodes = (
(342,722,l),
(378,838,l),
(604,1600,l),
(520,1600,l),
(426,1282,l),
(256,698,l),
(210,698,l),
(206,318,l)
);
},
{
closed = 1;
nodes = (
(220,0,l),
(220,774,l),
(220,796,l),
(220,1284,l),
(220,1600,l),
(140,1600,l),
(140,0,l)
);
},
{
closed = 1;
nodes = (
(636,0,l),
(382,854,l),
(304,844,l),
(550,0,l)
);
}
);
};
layerId = "3B122060-26E0-4730-9241-82784E6CB359";
shapes = (
{
closed = 1;
nodes = (
(220,0,l),
(220,304,l),
(604,1600,l),
(520,1600,l),
(426,1282,l),
(256,698,l),
(140,698,l),
(140,0,l)
);
},
{
closed = 1;
nodes = (
(636,0,l),
(424,716,l),
(382,572,l),
(550,0,l)
);
},
{
closed = 1;
nodes = (
(220,790,l),
(220,1278,l),
(220,1600,l),
(140,1600,l),
(140,790,l)
);
}
);
width = 656;
},
{
anchors = (
{
name = bottom;
pos = (550,0);
},
{
name = top;
pos = (550,1600);
}
);
background = {
shapes = (
{
closed = 1;
nodes = (
(594,726,l),
(722,850,l),
(1024,1600,l),
(696,1600,l),
(552,1212,l),
(456,854,l),
(326,854,l),
(366,282,l)
);
},
{
closed = 1;
nodes = (
(406,0,l),
(406,544,l),
(382,854,l),
(416,1212,l),
(420,1600,l),
(100,1600,l),
(100,0,l)
);
},
{
closed = 1;
nodes = (
(1036,0,l),
(742,998,l),
(528,714,l),
(732,0,l)
);
}
);
};
layerId = "1DFA7D5B-2E97-4B89-827F-FB43F8066DC1";
shapes = (
{
closed = 1;
nodes = (
(406,0,l),
(406,240,l),
(1024,1600,l),
(696,1600,l),
(552,1212,l),
(456,854,l),
(100,854,l),
(100,0,l)
);
},
{
closed = 1;
nodes = (
(1036,0,l),
(794,819,l),
(612,414,l),
(732,0,l)
);
},
{
closed = 1;
nodes = (
(376,956,l),
(418,1218,l),
(420,1600,l),
(100,1600,l),
(100,956,l)
);
}
);
width = 1050;
},
{
anchors = (
{
name = bottom;
pos = (530,0);
},
{
name = top;
pos = (530,1600);
}
);
background = {
shapes = (
{
closed = 1;
nodes = (
(610,854,l),
(662,850,l),
(964,1600,l),
(636,1600,l),
(492,1212,l),
(396,854,l),
(306,854,l),
(346,282,l)
);
},
{
closed = 1;
nodes = (
(386,0,l),
(386,544,l),
(342,854,l),
(396,1212,l),
(400,1600,l),
(80,1600,l),
(80,0,l)
);
},
{
closed = 1;
nodes = (
(976,0,l),
(682,998,l),
(468,714,l),
(672,0,l)
);
}
);
};
layerId = "5013C991-8699-46CB-BB1C-82E334DBD38B";
shapes = (
{
closed = 1;
nodes = (
(386,0,l),
(386,240,l),
(964,1600,l),
(636,1600,l),
(492,1212,l),
(396,854,l),
(80,854,l),
(80,0,l)
);
},
{
closed = 1;
nodes = (
(976,0,l),
(734,826,l),
(558,404,l),
(672,0,l)
);
},
{
closed = 1;
nodes = (
(338,946,l),
(396,1212,l),
(400,1600,l),
(80,1600,l),
(80,946,l)
);
}
);
width = 993;
},
{
anchors = (
{
name = bottom;
pos = (298,0);
},
{
name = top;
pos = (278,1600);
}
);
background = {
shapes = (
{
closed = 1;
nodes = (
(230,820,l),
(238,838,l),
(464,1600,l),
(420,1600,l),
(326,1282,l),
(182,790,l),
(158,790,l),
(154,580,l)
);
},
{
closed = 1;
nodes = (
(160,0,l),
(160,774,l),
(160,796,l),
(160,1284,l),
(160,1600,l),
(120,1600,l),
(120,0,l)
);
},
{
closed = 1;
nodes = (
(496,0,l),
(242,854,l),
(204,844,l),
(450,0,l)
);
}
);
};
layerId = "3D06B89B-468F-44E0-A3D7-A5BC6911123E";
shapes = (
{
closed = 1;
nodes = (
(160,0,l),
(160,558,l),
(464,1600,l),
(420,1600,l),
(326,1282,l),
(182,790,l),
(120,790,l),
(120,0,l)
);
},
{
closed = 1;
nodes = (
(496,0,l),
(270,754,l),
(248,690,l),
(450,0,l)
);
},
{
closed = 1;
nodes = (
(160,830,l),
(160,1276,l),
(160,1600,l),
(120,1600,l),
(120,830,l)
);
}
);
width = 521;
},
{
anchors = (
{
name = bottom;
pos = (410,0);
},
{
name = top;
pos = (395,1600);
}
);
layerId = "EB6D3A46-95FC-4F29-8169-EF2A3FEDBD5C";
shapes = (
{
closed = 1;
nodes = (
(262,0,l),
(262,288,l),
(704,1600,l),
(559,1600,l),
(453,1265,l),
(301,737,l),
(125,737,l),
(125,0,l)
);
},
{
closed = 1;
nodes = (
(731,0,l),
(512,742,l),
(435,532,l),
(591,0,l)
);
},
{
closed = 1;
nodes = (
(254,832,l),
(265,1263,l),
(265,1600,l),
(125,1600,l),
(125,832,l)
);
}
);
width = 741;
},
{
anchors = (
{
name = bottom;
pos = (356,0);
},
{
name = top;
pos = (341,1600);
}
);
layerId = "C388322D-F001-4130-A10A-708FB59AF746";
shapes = (
{
closed = 1;
nodes = (
(217,0,l),
(217,479,l),
(589,1600,l),
(474,1600,l),
(368,1265,l),
(236,806,l),
(110,806,l),
(110,0,l)
);
},
{
closed = 1;
nodes = (
(616,0,l),
(386,772,l),
(326,619,l),
(506,0,l)
);
},
{
closed = 1;
nodes = (
(205,859,l),
(219,1260,l),
(220,1600,l),
(110,1600,l),
(110,859,l)
);
}
);
width = 641;
}
);
metricLeft = H;
unicode = 75;
},
{
glyphname = L;
kernLeft = H;
kernRight = L;
layers = (
{
anchors = (
{
name = bottom;
pos = (362,0);
},
{
name = center;
pos = (330,800);
},
{
name = top;
pos = (330,1600);
},
{
name = topright;
pos = (302,1302);
}
);
layerId = "3B122060-26E0-4730-9241-82784E6CB359";
shapes = (
{
closed = 1;
nodes = (
(220,0,l),
(220,1600,l),
(140,1600,l),
(140,0,l)
);
},
{
closed = 1;
nodes = (
(578,0,l),
(578,76,l),
(312,76,l),
(312,0,l)
);
}
);
width = 597;
},
{
anchors = (
{
name = bottom;
pos = (446,0);
},
{
name = center;
pos = (458,800);
},
{
name = top;
pos = (458,1600);
},
{
name = topright;
pos = (429,1242);
}
);
layerId = "1DFA7D5B-2E97-4B89-827F-FB43F8066DC1";
shapes = (
{
closed = 1;
nodes = (
(400,0,l),
(400,1600,l),
(100,1600,l),
(100,0,l)
);
},
{
closed = 1;
nodes = (
(794,0,l),
(794,264,l),
(532,264,l),
(532,0,l)
);
}
);
width = 820;
},
{
anchors = (
{
name = bottom;
pos = (428,0);
},
{
name = center;
pos = (438,800);
},
{
name = top;
pos = (438,1600);
},
{
name = topright;
pos = (398,1240);
}
);
layerId = "5013C991-8699-46CB-BB1C-82E334DBD38B";
shapes = (
{
closed = 1;
nodes = (
(380,0,l),
(380,1600,l),
(80,1600,l),
(80,0,l)
);
},
{
closed = 1;
nodes = (
(774,0,l),
(774,264,l),
(480,264,l),
(480,0,l)
);
}
);
width = 804;
},
{
anchors = (
{
name = bottom;
pos = (282,0);
},
{
name = center;
pos = (250,800);
},
{
name = top;
pos = (250,1600);
},
{
name = topright;
pos = (213,1323);
}
);
layerId = "3D06B89B-468F-44E0-A3D7-A5BC6911123E";
shapes = (
{
closed = 1;
nodes = (
(160,0,l),
(160,1600,l),
(120,1600,l),
(120,0,l)
);
},
{
closed = 1;
nodes = (
(438,0,l),
(438,40,l),
(240,40,l),
(240,0,l)
);
}
);
width = 450;
},
{
anchors = (
{
name = bottom;
pos = (368,0);
},
{
name = center;
pos = (357,800);
},
{
name = top;
pos = (357,1600);
},
{
name = topright;
pos = (302,1283);
}
);
layerId = "EB6D3A46-95FC-4F29-8169-EF2A3FEDBD5C";
shapes = (
{
closed = 1;
nodes = (
(260,0,l),
(260,1600,l),
(125,1600,l),
(125,0,l)
);
},
{
closed = 1;
nodes = (
(627,0,l),
(627,123,l),
(362,123,l),
(362,0,l)
);
}
);
width = 637;
},
{
anchors = (
{
name = bottom;
pos = (314,0);
},
{
name = center;
pos = (297,800);
},
{
name = top;
pos = (297,1600);
},
{
name = topright;
pos = (244,1301);
}
);
layerId = "C388322D-F001-4130-A10A-708FB59AF746";
shapes = (
{
closed = 1;
nodes = (
(215,0,l),
(215,1600,l),
(110,1600,l),
(110,0,l)
);
},
{
closed = 1;
nodes = (
(522,0,l),
(522,96,l),
(300,96,l),
(300,0,l)
);
}
);
width = 542;
}
);
metricLeft = H;
unicode = 76;
},
{
glyphname = Lslash;
kernLeft = H;
kernRight = L;
layers = (
{
layerId = "3B122060-26E0-4730-9241-82784E6CB359";
shapes = (
{
closed = 1;
nodes = (
(220,394,l),
(274,566,l),
(328,746,l),
(466,1200,l),
(386,1200,l),
(322,988,l),
(266,804,l),
(140,394,l)
);
},
{
pos = (120,0);
ref = L;
}
);
width = 717;
},
{
layerId = "1DFA7D5B-2E97-4B89-827F-FB43F8066DC1";
shapes = (
{
closed = 1;
nodes = (
(306,360,l),
(368,492,l),
(618,750,l),
(900,1200,l),
(674,1200,l),
(586,1022,l),
(362,780,l),
(100,360,l)
);
},
{
pos = (258,0);
ref = L;
}
);
width = 1078;
},
{
layerId = "5013C991-8699-46CB-BB1C-82E334DBD38B";
shapes = (
{
closed = 1;
nodes = (
(286,360,l),
(348,492,l),
(598,750,l),
(880,1200,l),
(654,1200,l),
(566,1022,l),
(342,780,l),
(80,360,l)
);
},
{
pos = (244,0);
ref = L;
}
);
width = 1048;
},
{
layerId = "3D06B89B-468F-44E0-A3D7-A5BC6911123E";
shapes = (
{
closed = 1;
nodes = (
(160,400,l),
(206,634,l),
(234,774,l),
(320,1200,l),
(280,1200,l),
(232,958,l),
(206,826,l),
(120,400,l)
);
},
{
pos = (80,0);
ref = L;
}
);
width = 530;
},
{
layerId = "EB6D3A46-95FC-4F29-8169-EF2A3FEDBD5C";
shapes = (
{
closed = 1;
nodes = (
(237,386,l),
(293,548,l),
(396,747,l),
(570,1200,l),
(453,1200,l),
(383,997,l),
(285,798,l),
(125,386,l)
);
},
{
alignment = -1;
pos = (150,0);
ref = L;
}
);
width = 787;
},
{
layerId = "C388322D-F001-4130-A10A-708FB59AF746";
shapes = (
{
closed = 1;
nodes = (
(192,390,l),
(242,599,l),
(325,768,l),
(460,1200,l),
(374,1200,l),
(316,974,l),
(240,815,l),
(110,390,l)
);
},
{
alignment = -1;
pos = (121,0);
ref = L;
}
);
width = 663;
}
);
metricLeft = H;
metricRight = L;
unicode = 321;
},
{
glyphname = M;
kernLeft = H;
kernRight = H;
layers = (
{
anchors = (
{
name = bottom;
pos = (430,0);
},
{
name = top;
pos = (430,1600);
}
);
background = {
shapes = (
{
closed = 1;
nodes = (
(200,0,l),
(200,460,l),
(136,940,l),
(120,940,l),
(120,0,l)
);
},
{
closed = 1;
nodes = (
(410,76,l),
(190,1600,l),
(110,1600,l),
(340,0,l),
(514,0,l),
(748,1600,l),
(668,1600,l),
(444,76,l)
);
},
{
closed = 1;
nodes = (
(746,940,l),
(730,940,l),
(666,460,l),
(666,0,l),
(746,0,l)
);
}
);
};
layerId = "3B122060-26E0-4730-9241-82784E6CB359";
shapes = (
{
closed = 1;
nodes = (
(634,10,l),
(680,452,l),
(794,1524,l),
(954,1524,l),
(954,1600,l),
(722,1600,l),
(648,918,l),
(564,86,l),
(530,86,l),
(446,918,l),
(372,1600,l),
(140,1600,l),
(140,1524,l),
(300,1524,l),
(414,452,l),
(460,10,l)
);
},
{
closed = 1;
nodes = (
(220,0,l),
(220,450,l),
(220,1452,l),
(140,1452,l),
(140,0,l)
);
},
{
closed = 1;
nodes = (
(954,0,l),
(954,1452,l),
(874,1452,l),
(874,450,l),
(874,0,l)
);
}
);
width = 1094;
},
{
anchors = (
{
name = bottom;
pos = (846,0);
},
{
name = top;
pos = (846,1600);
}
);
background = {
shapes = (
{
closed = 1;
nodes = (
(266,1118,l),
(192,1118,l),
(192,0,l),
(502,0,l),
(502,286,l)
);
},
{
closed = 1;
nodes = (
(858,264,l),
(834,614,l),
(564,1600,l),
(232,1600,l),
(682,0,l),
(1108,0,l),
(1558,1600,l),
(1226,1600,l),
(956,614,l),
(932,264,l)
);
},
{
closed = 1;
nodes = (
(1288,0,l),
(1598,0,l),
(1598,1118,l),
(1524,1118,l),
(1288,286,l)
);
}
);
};
layerId = "1DFA7D5B-2E97-4B89-827F-FB43F8066DC1";
shapes = (
{
closed = 1;
nodes = (
(1026,0,l),
(1160,472,l),
(1244,1336,l),
(1590,1336,l),
(1590,1600,l),
(1050,1600,l),
(916,994,l),
(892,264,l),
(800,264,l),
(774,994,l),
(642,1600,l),
(100,1600,l),
(100,1336,l),
(446,1336,l),
(532,472,l),
(654,0,l)
);
},
{
closed = 1;
nodes = (
(410,0,l),
(410,492,l),
(362,1244,l),
(100,1244,l),
(100,0,l)
);
},
{
closed = 1;
nodes = (
(1590,0,l),
(1590,1244,l),
(1328,1244,l),
(1280,492,l),
(1280,0,l)
);
}
);
width = 1690;
},
{
anchors = (
{
name = bottom;
pos = (746,0);
},
{
name = top;
pos = (746,1600);
}
);
layerId = "5013C991-8699-46CB-BB1C-82E334DBD38B";
shapes = (
{
closed = 1;
nodes = (
(906,0,l),
(1030,472,l),
(1114,1336,l),
(1410,1336,l),
(1410,1600,l),
(930,1600,l),
(796,994,l),
(772,264,l),
(720,264,l),
(694,994,l),
(562,1600,l),
(80,1600,l),
(80,1336,l),
(376,1336,l),
(462,472,l),
(584,0,l)
);
},
{
closed = 1;
nodes = (
(380,0,l),
(380,440,l),
(296,1236,l),
(80,1236,l),
(80,0,l)
);
},
{
closed = 1;
nodes = (
(1410,0,l),
(1410,1236,l),
(1196,1236,l),
(1110,440,l),
(1110,0,l)
);
}
);
width = 1490;
},
{
anchors = (
{
name = bottom;
pos = (408,0);
},
{
name = top;
pos = (408,1600);
}
);
layerId = "3D06B89B-468F-44E0-A3D7-A5BC6911123E";
shapes = (
{
closed = 1;
nodes = (
(456,10,l),
(500,452,l),
(618,1560,l),
(694,1560,l),
(694,1600,l),
(582,1600,l),
(506,918,l),
(420,50,l),
(394,50,l),
(308,918,l),
(232,1600,l),
(120,1600,l),
(120,1560,l),
(196,1560,l),
(314,452,l),
(358,10,l)
);
},
{
closed = 1;
nodes = (
(160,0,l),
(160,456,l),
(160,1500,l),
(120,1500,l),
(120,0,l)
);
},
{
closed = 1;
nodes = (
(694,0,l),
(694,1500,l),
(654,1500,l),
(654,446,l),
(654,0,l)
);
}
);
width = 814;
},
{
anchors = (
{
name = bottom;
pos = (529,0);
},
{
name = top;
pos = (529,1600);
}
);
layerId = "EB6D3A46-95FC-4F29-8169-EF2A3FEDBD5C";
shapes = (
{
closed = 1;
nodes = (
(755,8,l),
(805,478,l),
(901,1478,l),
(1107,1478,l),
(1107,1600,l),
(777,1600,l),
(717,918,l),
(641,130,l),
(591,130,l),
(513,920,l),
(453,1600,l),
(125,1600,l),
(125,1478,l),
(331,1478,l),
(429,466,l),
(479,8,l)
);
},
{
closed = 1;
nodes = (
(261,0,l),
(261,460,l),
(261,1406,l),
(125,1406,l),
(125,0,l)
);
},
{
closed = 1;
nodes = (
(1107,0,l),
(1107,1406,l),
(969,1406,l),
(969,460,l),
(969,0,l)
);
}
);
width = 1232;
},
{
anchors = (
{
name = bottom;
pos = (492,0);
},
{
name = top;
pos = (492,1600);
}
);
layerId = "C388322D-F001-4130-A10A-708FB59AF746";
shapes = (
{
closed = 1;
nodes = (
(634,8,l),
(672,474,l),
(758,1504,l),
(930,1504,l),
(930,1600,l),
(656,1600,l),
(608,1016,l),
(534,104,l),
(502,104,l),
(428,1006,l),
(380,1600,l),
(110,1600,l),
(110,1504,l),
(282,1504,l),
(366,478,l),
(404,8,l)
);
},
{
closed = 1;
nodes = (
(216,0,l),
(216,466,l),
(216,1440,l),
(110,1440,l),
(110,0,l)
);
},
{
closed = 1;
nodes = (
(930,0,l),
(930,1440,l),
(824,1440,l),
(824,458,l),
(824,0,l)
);
}
);
width = 1040;
}
);
metricLeft = H;
metricRight = H;
unicode = 77;
},
{
glyphname = N;
kernLeft = H;
kernRight = H;
layers = (
{
anchors = (
{
name = bottom;
pos = (462,0);
},
{
name = top;
pos = (476,1600);
}
);
layerId = "3B122060-26E0-4730-9241-82784E6CB359";
shapes = (
{
closed = 1;
nodes = (
(750,0,l),
(750,76,l),
(588,76,l),
(442,1096,l),
(370,1600,l),
(140,1600,l),
(140,1524,l),
(302,1524,l),
(432,600,l),
(518,0,l)
);
},
{
closed = 1;
nodes = (
(220,0,l),
(220,606,l),
(220,1452,l),
(140,1452,l),
(140,0,l)
);
},
{
closed = 1;
nodes = (
(750,148,l),
(750,1600,l),
(670,1600,l),
(670,1098,l),
(670,148,l)
);
}
);
width = 890;
},
{
anchors = (
{
name = bottom;
pos = (614,0);
},
{
name = top;
pos = (614,1600);
}
);
background = {
shapes = (
{
closed = 1;
nodes = (
(442,0,l),
(432,614,l),
(382,1336,l),
(438,1336,l),
(542,582,l),
(730,0,l),
(1208,0,l),
(1208,1600,l),
(888,1600,l),
(898,914,l),
(986,264,l),
(934,264,l),
(764,1070,l),
(604,1600,l),
(120,1600,l),
(120,0,l)
);
}
);
};
layerId = "1DFA7D5B-2E97-4B89-827F-FB43F8066DC1";
shapes = (
{
closed = 1;
nodes = (
(1138,0,l),
(1138,264,l),
(824,264,l),
(714,1090,l),
(594,1600,l),
(100,1600,l),
(100,1338,l),
(418,1338,l),
(500,524,l),
(620,0,l)
);
},
{
closed = 1;
nodes = (
(400,0,l),
(374,614,l),
(332,1236,l),
(100,1236,l),
(100,0,l)
);
},
{
closed = 1;
nodes = (
(1138,366,l),
(1138,1600,l),
(836,1600,l),
(860,914,l),
(904,366,l)
);
}
);
width = 1238;
},
{
anchors = (
{
name = bottom;
pos = (544,0);
},
{
name = top;
pos = (544,1600);
}
);
background = {
shapes = (
{
closed = 1;
nodes = (
(372,0,l),
(362,614,l),
(312,1336,l),
(368,1336,l),
(472,582,l),
(660,0,l),
(1138,0,l),
(1138,1600,l),
(818,1600,l),
(828,914,l),
(916,264,l),
(864,264,l),
(694,1070,l),
(534,1600,l),
(50,1600,l),
(50,0,l)
);
}
);
};
layerId = "5013C991-8699-46CB-BB1C-82E334DBD38B";
shapes = (
{
closed = 1;
nodes = (
(1006,0,l),
(1006,264,l),
(744,264,l),
(634,1090,l),
(514,1600,l),
(80,1600,l),
(80,1338,l),
(348,1338,l),
(430,524,l),
(550,0,l)
);
},
{
closed = 1;
nodes = (
(370,0,l),
(344,516,l),
(266,1238,l),
(80,1238,l),
(80,0,l)
);
},
{
closed = 1;
nodes = (
(1006,364,l),
(1006,1600,l),
(716,1600,l),
(730,1090,l),
(822,364,l)
);
}
);
width = 1086;
},
{
anchors = (
{
name = bottom;
pos = (322,0);
},
{
name = top;
pos = (336,1600);
}
);
layerId = "3D06B89B-468F-44E0-A3D7-A5BC6911123E";
shapes = (
{
closed = 1;
nodes = (
(530,0,l),
(530,40,l),
(454,40,l),
(302,1096,l),
(230,1600,l),
(120,1600,l),
(120,1560,l),
(196,1560,l),
(332,600,l),
(418,0,l)
);
},
{
closed = 1;
nodes = (
(160,0,l),
(160,594,l),
(160,1500,l),
(120,1500,l),
(120,0,l)
);
},
{
closed = 1;
nodes = (
(530,100,l),
(530,1600,l),
(490,1600,l),
(490,1104,l),
(490,100,l)
);
}
);
width = 650;
},
{
anchors = (
{
name = bottom;
pos = (495,0);
},
{
name = top;
pos = (505,1600);
}
);
layerId = "EB6D3A46-95FC-4F29-8169-EF2A3FEDBD5C";
shapes = (
{
closed = 1;
nodes = (
(841,0,l),
(841,124,l),
(641,124,l),
(505,1068,l),
(431,1600,l),
(125,1600,l),
(125,1478,l),
(325,1478,l),
(451,582,l),
(537,0,l)
);
},
{
closed = 1;
nodes = (
(259,0,l),
(253,608,l),
(253,1406,l),
(125,1406,l),
(125,0,l)
);
},
{
closed = 1;
nodes = (
(841,196,l),
(841,1600,l),
(705,1600,l),
(711,1052,l),
(711,196,l)
);
}
);
width = 966;
},
{
anchors = (
{
name = bottom;
pos = (378,0);
},
{
name = top;
pos = (388,1600);
}
);
layerId = "C388322D-F001-4130-A10A-708FB59AF746";
shapes = (
{
closed = 1;
nodes = (
(650,0,l),
(650,96,l),
(526,96,l),
(384,1094,l),
(320,1600,l),
(110,1600,l),
(110,1504,l),
(234,1504,l),
(358,582,l),
(436,0,l)
);
},
{
closed = 1;
nodes = (
(212,0,l),
(206,600,l),
(206,1440,l),
(110,1440,l),
(110,0,l)
);
},
{
closed = 1;
nodes = (
(650,162,l),
(650,1600,l),
(546,1600,l),
(552,1056,l),
(552,162,l)
);
}
);
width = 760;
}
);
metricLeft = H;
metricRight = H;
unicode = 78;
},
{
glyphname = Eng;
kernLeft = H;
kernRight = H;
layers = (
{
layerId = "3B122060-26E0-4730-9241-82784E6CB359";
shapes = (
{
closed = 1;
nodes = (
(702,-404,o),
(750,-328,o),
(750,-196,cs),
(750,46,l),
(674,46,l),
(674,-200,ls),
(674,-292,o),
(646,-334,o),
(522,-334,cs),
(468,-334,o),
(428,-332,o),
(398,-328,c),
(398,-392,l),
(434,-400,o),
(494,-404,o),
(526,-404,c)
);
},
{
ref = N;
}
);
width = 890;
},
{
layerId = "1DFA7D5B-2E97-4B89-827F-FB43F8066DC1";
shapes = (
{
closed = 1;
nodes = (
(994,-422,o),
(1138,-320,o),
(1138,-66,cs),
(1138,184,l),
(876,184,l),
(876,-94,ls),
(876,-166,o),
(794,-194,o),
(688,-194,cs),
(650,-194,o),
(578,-192,o),
(542,-190,c),
(542,-408,l),
(590,-416,o),
(642,-422,o),
(688,-422,c)
);
},
{
ref = N;
}
);
width = 1238;
},
{
layerId = "5013C991-8699-46CB-BB1C-82E334DBD38B";
shapes = (
{
closed = 1;
nodes = (
(862,-422,o),
(1006,-320,o),
(1006,-66,cs),
(1006,184,l),
(744,184,l),
(744,-94,ls),
(744,-166,o),
(662,-194,o),
(556,-194,cs),
(518,-194,o),
(446,-192,o),
(410,-190,c),
(410,-408,l),
(458,-416,o),
(510,-422,o),
(556,-422,c)
);
},
{
ref = N;
}
);
width = 1086;
},
{
layerId = "3D06B89B-468F-44E0-A3D7-A5BC6911123E";
shapes = (
{
closed = 1;
nodes = (
(488,-400,o),
(530,-348,o),
(530,-220,cs),
(530,22,l),
(490,22,l),
(490,-220,ls),
(490,-330,o),
(460,-360,o),
(364,-360,cs),
(322,-360,o),
(290,-358,o),
(262,-352,c),
(262,-390,l),
(288,-396,o),
(338,-400,o),
(368,-400,c)
);
},
{
ref = N;
}
);
width = 650;
},
{
layerId = "EB6D3A46-95FC-4F29-8169-EF2A3FEDBD5C";
shapes = (
{
closed = 1;
nodes = (
(793,-404,o),
(841,-328,o),
(841,-196,cs),
(841,46,l),
(715,46,l),
(715,-200,ls),
(715,-274,o),
(693,-294,o),
(613,-294,cs),
(559,-294,o),
(519,-292,o),
(489,-288,c),
(489,-392,l),
(525,-400,o),
(585,-404,o),
(617,-404,c)
);
},
{
ref = N;
}
);
width = 967;
},
{
layerId = "C388322D-F001-4130-A10A-708FB59AF746";
shapes = (
{
closed = 1;
nodes = (
(608,-400,o),
(650,-348,o),
(650,-220,cs),
(650,22,l),
(552,22,l),
(552,-220,ls),
(552,-292,o),
(538,-312,o),
(484,-312,cs),
(442,-312,o),
(410,-310,o),
(382,-304,c),
(382,-390,l),
(408,-396,o),
(458,-400,o),
(488,-400,c)
);
},
{
ref = N;
}
);
width = 760;
}
);
metricLeft = N;
metricRight = N;
unicode = 330;
},
{
glyphname = O;
kernLeft = O;
kernRight = O;
layers = (
{
anchors = (
{
name = bottom;
pos = (350,0);
},
{
name = center;
pos = (350,800);
},
{
name = ogonek;
pos = (276,0);
},
{
name = top;
pos = (350,1600);
},
{
name = topleft;
pos = (132,1600);
},
{
name = topright;
pos = (530,1860);
}
);
background = {
shapes = (
{
closed = 1;
nodes = (
(438,-20,o),
(528,70,o),
(528,180,cs),
(528,1420,ls),
(528,1530,o),
(438,1620,o),
(328,1620,cs),
(218,1620,o),
(128,1530,o),
(128,1420,cs),
(128,180,ls),
(128,70,o),
(218,-20,o),
(328,-20,cs)
);
},
{
closed = 1;
nodes = (
(240,20,o),
(168,92,o),
(168,180,cs),
(168,1420,ls),
(168,1508,o),
(240,1580,o),
(328,1580,cs),
(416,1580,o),
(488,1508,o),
(488,1420,cs),
(488,180,ls),
(488,92,o),
(416,20,o),
(328,20,cs)
);
}
);
};
layerId = "3B122060-26E0-4730-9241-82784E6CB359";
shapes = (
{
closed = 1;
nodes = (
(302,68,l),
(221,77,o),
(196,113,o),
(194,210,cs),
(186,702,o),
(186,922,o),
(194,1388,cs),
(196,1485,o),
(221,1523,o),
(302,1532,c),
(302,1608,l),
(171,1596,o),
(116,1530,o),
(114,1388,cs),
(108,948,o),
(108,670,o),
(114,210,cs),
(116,68,o),
(171,4,o),
(302,-8,c)
);
},
{
closed = 1;
nodes = (
(530,5,o),
(584,70,o),
(586,210,cs),
(592,670,o),
(592,948,o),
(586,1388,cs),
(584,1528,o),
(530,1595,o),
(402,1608,c),
(402,1531,l),
(480,1521,o),
(504,1483,o),
(506,1388,cs),
(514,908,o),
(514,688,o),
(506,210,cs),
(504,115,o),
(480,78,o),
(402,69,c),
(402,-8,l)
);
}
);
width = 700;
},
{
anchors = (
{
name = bottom;
pos = (528,0);
},
{
name = center;
pos = (528,800);
},
{
name = ogonek;
pos = (425,0);
},
{
name = top;
pos = (528,1600);
},
{
name = topleft;
pos = (60,1600);
},
{
name = topright;
pos = (794,1960);
}
);
background = {
shapes = (
{
closed = 1;
nodes = (
(520,-10,o),
(654,108,o),
(654,254,cs),
(654,1350,ls),
(654,1492,o),
(520,1610,o),
(340,1610,cs),
(162,1610,o),
(28,1492,o),
(28,1350,cs),
(28,254,ls),
(28,108,o),
(162,-10,o),
(340,-10,cs)
);
},
{
closed = 1;
nodes = (
(288,204,o),
(248,236,o),
(248,280,cs),
(248,1322,ls),
(248,1364,o),
(288,1396,o),
(340,1396,cs),
(394,1396,o),
(434,1364,o),
(434,1322,cs),
(434,280,ls),
(434,236,o),
(394,204,o),
(340,204,cs)
);
}
);
};
layerId = "1DFA7D5B-2E97-4B89-827F-FB43F8066DC1";
shapes = (
{
closed = 1;
nodes = (
(464,233,l),
(413,249,o),
(389,291,o),
(388,366,cs),
(374,658,o),
(374,944,o),
(388,1236,cs),
(389,1310,o),
(413,1351,o),
(464,1367,c),
(464,1618,l),
(199,1603,o),
(90,1486,o),
(84,1220,cs),
(78,920,o),
(78,682,o),
(84,382,cs),
(90,114,o),
(199,-3,o),
(464,-18,c)
);
},
{
closed = 1;
nodes = (
(849,-1,o),
(957,116,o),
(966,382,cs),
(978,680,o),
(978,918,o),
(966,1220,cs),
(957,1484,o),
(849,1601,o),
(594,1618,c),
(594,1368,l),
(646,1352,o),
(669,1310,o),
(670,1236,cs),
(684,944,o),
(684,658,o),
(670,366,cs),
(669,290,o),
(646,248,o),
(594,232,c),
(594,-18,l)
);
}
);
width = 1055;
},
{
anchors = (
{
name = bottom;
pos = (498,0);
},
{
name = center;
pos = (498,800);
},
{
name = ogonek;
pos = (386,0);
},
{
name = top;
pos = (498,1600);
},
{
name = topleft;
pos = (30,1600);
},
{
name = topright;
pos = (789,1960);
}
);
background = {
shapes = (
{
closed = 1;
nodes = (
(490,-10,o),
(624,108,o),
(624,254,cs),
(624,1350,ls),
(624,1492,o),
(490,1610,o),
(310,1610,cs),
(132,1610,o),
(-2,1492,o),
(-2,1350,cs),
(-2,254,ls),
(-2,108,o),
(132,-10,o),
(310,-10,cs)
);
},
{
closed = 1;
nodes = (
(258,204,o),
(218,236,o),
(218,280,cs),
(218,1322,ls),
(218,1364,o),
(258,1396,o),
(310,1396,cs),
(364,1396,o),
(404,1364,o),
(404,1322,cs),
(404,280,ls),
(404,236,o),
(364,204,o),
(310,204,cs)
);
}
);
};
layerId = "5013C991-8699-46CB-BB1C-82E334DBD38B";
shapes = (
{
closed = 1;
nodes = (
(448,230,l),
(403,243,o),
(378,276,o),
(376,326,cs),
(364,598,o),
(364,1004,o),
(376,1276,cs),
(378,1324,o),
(403,1357,o),
(448,1370,c),
(448,1619,l),
(189,1607,o),
(80,1490,o),
(74,1220,cs),
(68,958,o),
(68,644,o),
(74,382,cs),
(80,110,o),
(189,-7,o),
(448,-19,c)
);
},
{
closed = 1;
nodes = (
(804,-5,o),
(907,112,o),
(916,382,cs),
(926,644,o),
(926,954,o),
(916,1220,cs),
(907,1488,o),
(804,1605,o),
(548,1619,c),
(548,1370,l),
(592,1357,o),
(616,1324,o),
(618,1276,cs),
(630,1004,o),
(630,598,o),
(618,326,cs),
(616,276,o),
(593,243,o),
(548,230,c),
(548,-19,l)
);
}
);
width = 993;
},
{
anchors = (
{
name = bottom;
pos = (282,0);
},
{
name = center;
pos = (284,800);
},
{
name = ogonek;
pos = (224,0);
},
{
name = top;
pos = (282,1600);
},
{
name = topleft;
pos = (114,1600);
},
{
name = topright;
pos = (421,1842);
}
);
background = {
shapes = (
{
closed = 1;
nodes = (
(392,-20,o),
(482,70,o),
(482,180,cs),
(482,1420,ls),
(482,1530,o),
(392,1620,o),
(282,1620,cs),
(172,1620,o),
(82,1530,o),
(82,1420,cs),
(82,180,ls),
(82,70,o),
(172,-20,o),
(282,-20,cs)
);
},
{
closed = 1;
nodes = (
(194,20,o),
(122,92,o),
(122,180,cs),
(122,1420,ls),
(122,1508,o),
(194,1580,o),
(282,1580,cs),
(370,1580,o),
(442,1508,o),
(442,1420,cs),
(442,180,ls),
(442,92,o),
(370,20,o),
(282,20,cs)
);
}
);
};
layerId = "3D06B89B-468F-44E0-A3D7-A5BC6911123E";
shapes = (
{
closed = 1;
nodes = (
(244,32,l),
(175,42,o),
(150,80,o),
(148,170,cs),
(140,628,o),
(138,988,o),
(148,1428,cs),
(150,1520,o),
(175,1558,o),
(244,1568,c),
(244,1608,l),
(149,1596,o),
(112,1542,o),
(110,1428,cs),
(102,978,o),
(102,620,o),
(110,170,cs),
(112,57,o),
(149,4,o),
(244,-8,c)
);
},
{
closed = 1;
nodes = (
(422,2,o),
(462,56,o),
(462,170,cs),
(466,620,o),
(466,978,o),
(462,1428,cs),
(462,1544,o),
(422,1598,o),
(324,1608,c),
(324,1568,l),
(392,1556,o),
(418,1520,o),
(420,1428,cs),
(426,988,o),
(430,628,o),
(420,170,cs),
(418,80,o),
(393,42,o),
(324,32,c),
(324,-8,l)
);
}
);
width = 569;
},
{
anchors = (
{
name = bottom;
pos = (402,0);
},
{
name = center;
pos = (402,800);
},
{
name = ogonek;
pos = (320,0);
},
{
name = top;
pos = (402,1600);
},
{
name = topleft;
pos = (121,1600);
},
{
name = topright;
pos = (601,1860);
}
);
layerId = "EB6D3A46-95FC-4F29-8169-EF2A3FEDBD5C";
shapes = (
{
closed = 1;
nodes = (
(350,109,l),
(276,120,o),
(251,157,o),
(250,249,cs),
(240,691,o),
(240,928,o),
(250,1350,cs),
(251,1441,o),
(276,1480,o),
(350,1491,c),
(350,1611,l),
(185,1598,o),
(116,1519,o),
(114,1346,cs),
(108,941,o),
(108,673,o),
(114,253,cs),
(116,80,o),
(185,2,o),
(350,-11,c)
);
},
{
closed = 1;
nodes = (
(617,4,o),
(684,81,o),
(688,253,cs),
(696,673,o),
(696,941,o),
(688,1346,cs),
(684,1517,o),
(617,1596,o),
(457,1610,c),
(457,1490,l),
(529,1479,o),
(552,1440,o),
(554,1350,cs),
(564,917,o),
(564,681,o),
(554,249,cs),
(552,158,o),
(529,121,o),
(457,110,c),
(457,-10,l)
);
}
);
width = 804;
},
{
anchors = (
{
name = bottom;
pos = (335,0);
},
{
name = center;
pos = (337,800);
},
{
name = ogonek;
pos = (264,0);
},
{
name = top;
pos = (335,1600);
},
{
name = topleft;
pos = (92,1600);
},
{
name = topright;
pos = (534,1860);
}
);
layerId = "C388322D-F001-4130-A10A-708FB59AF746";
shapes = (
{
closed = 1;
nodes = (
(294,82,l),
(231,92,o),
(206,129,o),
(204,209,cs),
(195,621,o),
(194,992,o),
(204,1390,cs),
(206,1471,o),
(231,1508,o),
(294,1518,c),
(294,1611,l),
(158,1599,o),
(103,1529,o),
(100,1376,cs),
(93,973,o),
(93,626,o),
(100,223,cs),
(103,71,o),
(158,1,o),
(294,-11,c)
);
},
{
closed = 1;
nodes = (
(517,0,o),
(572,70,o),
(575,223,cs),
(580,626,o),
(580,972,o),
(575,1376,cs),
(572,1530,o),
(517,1600,o),
(379,1611,c),
(379,1518,l),
(441,1506,o),
(467,1471,o),
(469,1390,cs),
(476,992,o),
(479,621,o),
(469,209,cs),
(467,129,o),
(442,92,o),
(379,82,c),
(379,-11,l)
);
}
);
width = 674;
}
);
unicode = 79;
},
{
glyphname = Oslash;
kernLeft = O;
kernRight = O;
layers = (
{
layerId = "3B122060-26E0-4730-9241-82784E6CB359";
shapes = (
{
closed = 1;
nodes = (
(450,796,l),
(450,976,l),
(314,682,l),
(314,502,l)
);
},
{
ref = O;
}
);
width = 700;
},
{
layerId = "1DFA7D5B-2E97-4B89-827F-FB43F8066DC1";
shapes = (
{
closed = 1;
nodes = (
(616,664,l),
(616,1036,l),
(440,796,l),
(440,424,l)
);
},
{
ref = O;
}
);
width = 1055;
},
{
layerId = "5013C991-8699-46CB-BB1C-82E334DBD38B";
shapes = (
{
closed = 1;
nodes = (
(580,676,l),
(580,1048,l),
(436,850,l),
(436,478,l)
);
},
{
ref = O;
}
);
width = 993;
},
{
layerId = "3D06B89B-468F-44E0-A3D7-A5BC6911123E";
shapes = (
{
closed = 1;
nodes = (
(398,908,l),
(398,1000,l),
(206,626,l),
(206,534,l)
);
},
{
ref = O;
}
);
width = 569;
},
{
layerId = "EB6D3A46-95FC-4F29-8169-EF2A3FEDBD5C";
shapes = (
{
closed = 1;
nodes = (
(492,763,l),
(492,991,l),
(346,711,l),
(346,483,l)
);
},
{
alignment = -1;
ref = O;
}
);
width = 804;
},
{
layerId = "C388322D-F001-4130-A10A-708FB59AF746";
shapes = (
{
closed = 1;
nodes = (
(444,850,l),
(444,1012,l),
(264,682,l),
(264,520,l)
);
},
{
alignment = -1;
ref = O;
}
);
width = 674;
}
);
metricLeft = O;
metricRight = O;
unicode = 216;
},
{
glyphname = P;
kernLeft = H;
kernRight = P;
layers = (
{
layerId = "3B122060-26E0-4730-9241-82784E6CB359";
shapes = (
{
closed = 1;
nodes = (
(220,0,l),
(220,1600,l),
(140,1600,l),
(140,0,l)
);
},
{
closed = 1;
nodes = (
(362,690,ls),
(508,690,o),
(570,744,o),
(576,876,cs),
(584,1044,o),
(582,1198,o),
(576,1414,cs),
(572,1546,o),
(510,1600,o),
(364,1600,cs),
(312,1600,l),
(312,1524,l),
(364,1524,ls),
(464,1524,o),
(494,1500,o),
(496,1414,cs),
(504,1178,o),
(504,1062,o),
(496,876,cs),
(492,790,o),
(466,766,o),
(362,766,cs),
(312,766,l),
(312,690,l)
);
}
);
width = 651;
},
{
layerId = "1DFA7D5B-2E97-4B89-827F-FB43F8066DC1";
shapes = (
{
closed = 1;
nodes = (
(400,0,l),
(400,1600,l),
(100,1600,l),
(100,0,l)
);
},
{
closed = 1;
nodes = (
(534,508,ls),
(832,508,o),
(954,620,o),
(964,898,cs),
(968,1010,o),
(968,1098,o),
(964,1210,cs),
(954,1488,o),
(832,1600,o),
(534,1600,cs),
(532,1600,l),
(532,1336,l),
(534,1336,ls),
(618,1336,o),
(660,1296,o),
(664,1226,cs),
(670,1128,o),
(670,980,o),
(664,882,cs),
(660,812,o),
(618,772,o),
(534,772,cs),
(532,772,l),
(532,508,l)
);
}
);
width = 1022;
},
{
layerId = "5013C991-8699-46CB-BB1C-82E334DBD38B";
shapes = (
{
closed = 1;
nodes = (
(380,0,l),
(380,1600,l),
(80,1600,l),
(80,0,l)
);
},
{
closed = 1;
nodes = (
(482,508,ls),
(780,508,o),
(902,620,o),
(912,898,cs),
(916,1010,o),
(916,1098,o),
(912,1210,cs),
(902,1488,o),
(780,1600,o),
(482,1600,cs),
(480,1600,l),
(480,1336,l),
(482,1336,ls),
(566,1336,o),
(608,1296,o),
(612,1226,cs),
(618,1128,o),
(618,980,o),
(612,882,cs),
(608,812,o),
(566,772,o),
(482,772,cs),
(480,772,l),
(480,508,l)
);
}
);
width = 957;
},
{
layerId = "3D06B89B-468F-44E0-A3D7-A5BC6911123E";
shapes = (
{
closed = 1;
nodes = (
(160,0,l),
(160,1600,l),
(120,1600,l),
(120,0,l)
);
},
{
closed = 1;
nodes = (
(282,690,ls),
(400,690,o),
(450,744,o),
(456,876,cs),
(464,1044,o),
(464,1198,o),
(456,1414,cs),
(450,1546,o),
(400,1600,o),
(284,1600,cs),
(240,1600,l),
(240,1560,l),
(284,1560,ls),
(376,1560,o),
(412,1518,o),
(416,1414,cs),
(422,1222,o),
(422,1068,o),
(416,876,cs),
(412,772,o),
(376,730,o),
(282,730,cs),
(240,730,l),
(240,690,l)
);
}
);
width = 517;
},
{
layerId = "EB6D3A46-95FC-4F29-8169-EF2A3FEDBD5C";
shapes = (
{
closed = 1;
nodes = (
(260,0,l),
(260,1600,l),
(125,1600,l),
(125,0,l)
);
},
{
closed = 1;
nodes = (
(400,645,ls),
(584,645,o),
(661,713,o),
(668,882,cs),
(675,1036,o),
(674,1173,o),
(668,1363,cs),
(663,1532,o),
(586,1600,o),
(402,1600,cs),
(362,1600,l),
(362,1477,l),
(402,1477,ls),
(498,1477,o),
(531,1449,o),
(533,1367,cs),
(541,1166,o),
(541,1042,o),
(533,878,cs),
(529,796,o),
(499,768,o),
(400,768,cs),
(362,768,l),
(362,645,l)
);
}
);
width = 738;
},
{
layerId = "C388322D-F001-4130-A10A-708FB59AF746";
shapes = (
{
closed = 1;
nodes = (
(215,0,l),
(215,1600,l),
(110,1600,l),
(110,0,l)
);
},
{
closed = 1;
nodes = (
(332,645,ls),
(495,645,o),
(563,713,o),
(570,882,cs),
(577,1036,o),
(577,1173,o),
(570,1363,cs),
(563,1532,o),
(495,1600,o),
(334,1600,cs),
(300,1600,l),
(300,1504,l),
(334,1504,ls),
(424,1504,o),
(461,1463,o),
(465,1367,cs),
(471,1199,o),
(471,1046,o),
(465,878,cs),
(461,782,o),
(424,741,o),
(332,741,cs),
(300,741,l),
(300,645,l)
);
}
);
width = 630;
}
);
metricLeft = H;
unicode = 80;
},
{
glyphname = Thorn;
kernLeft = H;
kernRight = P;
layers = (
{
layerId = "3B122060-26E0-4730-9241-82784E6CB359";
shapes = (
{
closed = 1;
nodes = (
(342,370,ls),
(488,370,o),
(550,424,o),
(556,556,cs),
(564,724,o),
(562,878,o),
(556,1094,cs),
(552,1226,o),
(490,1280,o),
(344,1280,cs),
(312,1280,l),
(312,1204,l),
(344,1204,ls),
(444,1204,o),
(472,1178,o),
(476,1094,cs),
(486,882,o),
(482,768,o),
(476,556,cs),
(474,472,o),
(444,446,o),
(342,446,cs),
(312,446,l),
(312,370,l)
);
},
{
closed = 1;
nodes = (
(220,0,l),
(220,1600,l),
(140,1600,l),
(140,0,l)
);
}
);
width = 622;
},
{
layerId = "1DFA7D5B-2E97-4B89-827F-FB43F8066DC1";
shapes = (
{
closed = 1;
nodes = (
(546,268,ls),
(844,268,o),
(966,380,o),
(976,658,cs),
(980,770,o),
(980,858,o),
(976,970,cs),
(966,1248,o),
(844,1360,o),
(546,1360,cs),
(532,1360,l),
(532,1096,l),
(546,1096,ls),
(630,1096,o),
(672,1056,o),
(676,986,cs),
(682,888,o),
(682,740,o),
(676,642,cs),
(672,572,o),
(630,532,o),
(546,532,cs),
(532,532,l),
(532,268,l)
);
},
{
closed = 1;
nodes = (
(400,0,l),
(400,1600,l),
(100,1600,l),
(100,0,l)
);
}
);
width = 1020;
},
{
layerId = "5013C991-8699-46CB-BB1C-82E334DBD38B";
shapes = (
{
closed = 1;
nodes = (
(486,268,ls),
(784,268,o),
(906,380,o),
(916,658,cs),
(920,770,o),
(920,858,o),
(916,970,cs),
(906,1248,o),
(784,1360,o),
(486,1360,cs),
(480,1360,l),
(480,1096,l),
(486,1096,ls),
(570,1096,o),
(612,1056,o),
(616,986,cs),
(622,888,o),
(622,740,o),
(616,642,cs),
(612,572,o),
(570,532,o),
(486,532,cs),
(480,532,l),
(480,268,l)
);
},
{
closed = 1;
nodes = (
(380,0,l),
(380,1600,l),
(80,1600,l),
(80,0,l)
);
}
);
width = 958;
},
{
layerId = "3D06B89B-468F-44E0-A3D7-A5BC6911123E";
shapes = (
{
closed = 1;
nodes = (
(282,370,ls),
(400,370,o),
(450,424,o),
(456,556,cs),
(464,724,o),
(462,878,o),
(456,1094,cs),
(452,1226,o),
(400,1280,o),
(284,1280,cs),
(240,1280,l),
(240,1240,l),
(284,1240,ls),
(376,1240,o),
(412,1198,o),
(416,1094,cs),
(424,902,o),
(424,748,o),
(416,556,cs),
(412,452,o),
(376,410,o),
(282,410,cs),
(240,410,l),
(240,370,l)
);
},
{
closed = 1;
nodes = (
(160,0,l),
(160,1600,l),
(120,1600,l),
(120,0,l)
);
}
);
width = 522;
},
{
layerId = "EB6D3A46-95FC-4F29-8169-EF2A3FEDBD5C";
shapes = (
{
closed = 1;
nodes = (
(388,345,ls),
(572,345,o),
(649,413,o),
(656,582,cs),
(663,736,o),
(662,873,o),
(656,1063,cs),
(651,1232,o),
(574,1300,o),
(390,1300,cs),
(362,1300,l),
(362,1177,l),
(390,1177,ls),
(486,1177,o),
(517,1148,o),
(521,1067,cs),
(530,884,o),
(527,761,o),
(521,578,cs),
(519,497,o),
(486,468,o),
(388,468,cs),
(362,468,l),
(362,345,l)
);
},
{
closed = 1;
nodes = (
(260,0,l),
(260,1600,l),
(125,1600,l),
(125,0,l)
);
}
);
width = 717;
},
{
layerId = "C388322D-F001-4130-A10A-708FB59AF746";
shapes = (
{
closed = 1;
nodes = (
(333,345,ls),
(496,345,o),
(564,413,o),
(571,582,cs),
(578,736,o),
(577,873,o),
(571,1063,cs),
(566,1232,o),
(496,1300,o),
(335,1300,cs),
(300,1300,l),
(300,1204,l),
(335,1204,ls),
(425,1204,o),
(462,1163,o),
(466,1067,cs),
(474,899,o),
(474,746,o),
(466,578,cs),
(462,482,o),
(425,441,o),
(333,441,cs),
(300,441,l),
(300,345,l)
);
},
{
closed = 1;
nodes = (
(215,0,l),
(215,1600,l),
(110,1600,l),
(110,0,l)
);
}
);
width = 631;
}
);
metricLeft = H;
unicode = 222;
},
{
color = 1;
glyphname = Q;
kernLeft = O;
kernRight = O;
layers = (
{
background = {
shapes = (
{
closed = 1;
nodes = (
(376,-10,o),
(426,42,o),
(426,170,cs),
(430,620,o),
(430,978,o),
(426,1428,cs),
(426,1558,o),
(376,1610,o),
(250,1610,cs),
(124,1610,o),
(74,1558,o),
(74,1428,cs),
(70,978,o),
(70,620,o),
(74,170,cs),
(74,42,o),
(124,-10,o),
(250,-10,cs)
);
},
{
closed = 1;
nodes = (
(156,30,o),
(116,70,o),
(114,170,cs),
(108,620,o),
(108,978,o),
(114,1428,cs),
(116,1530,o),
(156,1570,o),
(250,1570,cs),
(344,1570,o),
(384,1530,o),
(386,1428,cs),
(392,978,o),
(392,620,o),
(386,170,cs),
(384,70,o),
(344,30,o),
(250,30,cs)
);
}
);
};
layerId = "3B122060-26E0-4730-9241-82784E6CB359";
shapes = (
{
closed = 1;
nodes = (
(116,68,o),
(171,4,o),
(302,-8,c),
(302,68,l),
(221,77,o),
(196,113,o),
(194,210,cs),
(186,702,o),
(186,922,o),
(194,1388,cs),
(196,1485,o),
(221,1523,o),
(302,1532,c),
(302,1608,l),
(171,1596,o),
(116,1530,o),
(114,1388,cs),
(108,948,o),
(108,670,o),
(114,210,c)
);
},
{
closed = 1;
nodes = (
(324,-144,o),
(366,-180,o),
(456,-174,c),
(456,-102,l),
(416,-106,o),
(400,-94,o),
(392,-50,c),
(312,-50,l)
);
},
{
closed = 1;
nodes = (
(530,5,o),
(584,70,o),
(586,210,cs),
(592,670,o),
(592,948,o),
(586,1388,cs),
(584,1528,o),
(530,1595,o),
(402,1608,c),
(402,1531,l),
(480,1521,o),
(504,1483,o),
(506,1388,cs),
(514,908,o),
(514,688,o),
(506,210,cs),
(504,115,o),
(480,78,o),
(402,69,c),
(402,-8,l)
);
}
);
width = 700;
},
{
background = {
shapes = (
{
closed = 1;
nodes = (
(780,-20,o),
(900,94,o),
(906,382,cs),
(912,680,o),
(912,918,o),
(906,1220,cs),
(900,1506,o),
(780,1620,o),
(486,1620,cs),
(192,1620,o),
(70,1506,o),
(64,1220,cs),
(58,920,o),
(58,682,o),
(64,382,cs),
(70,94,o),
(192,-20,o),
(486,-20,cs)
);
},
{
closed = 1;
nodes = (
(410,224,o),
(366,260,o),
(364,326,cs),
(352,598,o),
(352,1004,o),
(364,1276,cs),
(366,1340,o),
(410,1376,o),
(486,1376,cs),
(564,1376,o),
(604,1340,o),
(606,1276,cs),
(612,1004,o),
(612,598,o),
(606,326,cs),
(604,260,o),
(564,224,o),
(486,224,cs)
);
}
);
};
layerId = "1DFA7D5B-2E97-4B89-827F-FB43F8066DC1";
shapes = (
{
closed = 1;
nodes = (
(90,114,o),
(199,-3,o),
(464,-18,c),
(464,233,l),
(413,249,o),
(389,291,o),
(388,366,cs),
(374,658,o),
(374,944,o),
(388,1236,cs),
(389,1310,o),
(413,1351,o),
(464,1367,c),
(464,1618,l),
(199,1603,o),
(90,1486,o),
(84,1220,cs),
(78,920,o),
(78,682,o),
(84,382,c)
);
},
{
closed = 1;
nodes = (
(424,-264,o),
(548,-348,o),
(804,-328,c),
(804,-88,l),
(740,-96,o),
(698,-78,o),
(680,-38,c),
(392,-38,l)
);
},
{
closed = 1;
nodes = (
(849,-1,o),
(957,116,o),
(966,382,cs),
(978,680,o),
(978,918,o),
(966,1220,cs),
(957,1484,o),
(849,1601,o),
(594,1618,c),
(594,1368,l),
(646,1352,o),
(669,1310,o),
(670,1236,cs),
(684,944,o),
(684,658,o),
(670,366,cs),
(669,290,o),
(646,248,o),
(594,232,c),
(594,-18,l)
);
}
);
width = 1055;
},
{
background = {
shapes = (
{
closed = 1;
nodes = (
(770,-20,o),
(890,94,o),
(896,382,cs),
(902,680,o),
(902,918,o),
(896,1220,cs),
(890,1506,o),
(770,1620,o),
(476,1620,cs),
(182,1620,o),
(60,1506,o),
(54,1220,cs),
(48,920,o),
(48,682,o),
(54,382,cs),
(60,94,o),
(182,-20,o),
(476,-20,cs)
);
},
{
closed = 1;
nodes = (
(400,224,o),
(356,260,o),
(354,326,cs),
(342,598,o),
(342,1004,o),
(354,1276,cs),
(356,1340,o),
(400,1376,o),
(476,1376,cs),
(554,1376,o),
(594,1340,o),
(596,1276,cs),
(602,1004,o),
(602,598,o),
(596,326,cs),
(594,260,o),
(554,224,o),
(476,224,cs)
);
}
);
};
layerId = "5013C991-8699-46CB-BB1C-82E334DBD38B";
shapes = (
{
closed = 1;
nodes = (
(80,110,o),
(189,-7,o),
(448,-19,c),
(448,230,l),
(403,243,o),
(378,276,o),
(376,326,cs),
(364,598,o),
(364,1004,o),
(376,1276,cs),
(378,1324,o),
(403,1357,o),
(448,1370,c),
(448,1619,l),
(189,1607,o),
(80,1490,o),
(74,1220,cs),
(68,958,o),
(68,644,o),
(74,382,c)
);
},
{
closed = 1;
nodes = (
(408,-256,o),
(532,-337,o),
(784,-318,c),
(784,-78,l),
(725,-86,o),
(685,-72,o),
(666,-38,c),
(373,-38,l)
);
},
{
closed = 1;
nodes = (
(804,-5,o),
(907,112,o),
(916,382,cs),
(926,644,o),
(926,954,o),
(916,1220,cs),
(907,1488,o),
(804,1605,o),
(548,1619,c),
(548,1370,l),
(592,1357,o),
(616,1324,o),
(618,1276,cs),
(630,1004,o),
(630,598,o),
(618,326,cs),
(616,276,o),
(593,243,o),
(548,230,c),
(548,-19,l)
);
}
);
width = 993;
},
{
background = {
shapes = (
{
closed = 1;
nodes = (
(390,-10,o),
(440,42,o),
(440,170,cs),
(444,620,o),
(444,978,o),
(440,1428,cs),
(440,1558,o),
(390,1610,o),
(264,1610,cs),
(138,1610,o),
(88,1558,o),
(88,1428,cs),
(84,978,o),
(84,620,o),
(88,170,cs),
(88,42,o),
(138,-10,o),
(264,-10,cs)
);
},
{
closed = 1;
nodes = (
(170,30,o),
(130,70,o),
(128,170,cs),
(122,620,o),
(122,978,o),
(128,1428,cs),
(130,1530,o),
(170,1570,o),
(264,1570,cs),
(358,1570,o),
(398,1530,o),
(400,1428,cs),
(406,978,o),
(406,620,o),
(400,170,cs),
(398,70,o),
(358,30,o),
(264,30,cs)
);
}
);
};
layerId = "3D06B89B-468F-44E0-A3D7-A5BC6911123E";
shapes = (
{
closed = 1;
nodes = (
(112,57,o),
(149,4,o),
(244,-8,c),
(244,32,l),
(175,42,o),
(150,80,o),
(148,170,cs),
(140,628,o),
(138,988,o),
(148,1428,cs),
(150,1520,o),
(175,1558,o),
(244,1568,c),
(244,1608,l),
(149,1596,o),
(112,1542,o),
(110,1428,cs),
(102,978,o),
(102,620,o),
(110,170,c)
);
},
{
closed = 1;
nodes = (
(278,-128,o),
(322,-158,o),
(404,-154,c),
(404,-118,l),
(348,-122,o),
(318,-102,o),
(304,-50,c),
(264,-50,l)
);
},
{
closed = 1;
nodes = (
(422,2,o),
(462,56,o),
(462,170,cs),
(466,620,o),
(466,978,o),
(462,1428,cs),
(462,1544,o),
(422,1598,o),
(324,1608,c),
(324,1568,l),
(393,1558,o),
(418,1520,o),
(420,1428,cs),
(426,988,o),
(430,628,o),
(420,170,cs),
(418,80,o),
(393,42,o),
(324,32,c),
(324,-8,l)
);
}
);
width = 569;
},
{
layerId = "EB6D3A46-95FC-4F29-8169-EF2A3FEDBD5C";
shapes = (
{
closed = 1;
nodes = (
(116,80,o),
(185,2,o),
(350,-11,c),
(350,109,l),
(276,120,o),
(251,157,o),
(250,249,cs),
(240,691,o),
(240,928,o),
(250,1350,cs),
(251,1441,o),
(276,1480,o),
(350,1491,c),
(350,1611,l),
(185,1598,o),
(116,1519,o),
(114,1346,cs),
(108,941,o),
(108,673,o),
(114,253,c)
);
},
{
closed = 1;
nodes = (
(356,-174,o),
(419,-222,o),
(550,-213,c),
(550,-99,l),
(504,-104,o),
(482,-90,o),
(471,-47,c),
(339,-47,l)
);
},
{
closed = 1;
nodes = (
(617,4,o),
(684,81,o),
(688,253,cs),
(696,673,o),
(696,941,o),
(688,1346,cs),
(684,1517,o),
(617,1596,o),
(457,1610,c),
(457,1490,l),
(529,1479,o),
(552,1440,o),
(554,1350,cs),
(564,917,o),
(564,681,o),
(554,249,cs),
(552,158,o),
(529,121,o),
(457,110,c),
(457,-10,l)
);
}
);
width = 804;
},
{
layerId = "C388322D-F001-4130-A10A-708FB59AF746";
shapes = (
{
closed = 1;
nodes = (
(103,71,o),
(158,1,o),
(294,-11,c),
(294,82,l),
(231,92,o),
(206,129,o),
(204,209,cs),
(195,621,o),
(194,992,o),
(204,1390,cs),
(206,1471,o),
(231,1508,o),
(294,1518,c),
(294,1611,l),
(158,1599,o),
(103,1529,o),
(100,1376,cs),
(93,973,o),
(93,626,o),
(100,223,c)
);
},
{
closed = 1;
nodes = (
(310,-160,o),
(374,-203,o),
(498,-195,c),
(498,-108,l),
(441,-113,o),
(409,-94,o),
(393,-47,c),
(290,-47,l)
);
},
{
closed = 1;
nodes = (
(517,0,o),
(572,70,o),
(575,223,cs),
(580,626,o),
(580,972,o),
(575,1376,cs),
(572,1530,o),
(517,1600,o),
(379,1611,c),
(379,1518,l),
(442,1508,o),
(467,1471,o),
(469,1390,cs),
(476,992,o),
(479,621,o),
(469,209,cs),
(467,129,o),
(442,92,o),
(379,82,c),
(379,-11,l)
);
}
);
width = 674;
}
);
metricLeft = O;
metricRight = O;
unicode = 81;
},
{
glyphname = R;
kernLeft = H;
kernRight = R;
layers = (
{
anchors = (
{
name = bottom;
pos = (376,0);
},
{
name = top;
pos = (364,1600);
}
);
background = {
shapes = (
{
closed = 1;
nodes = (
(318,756,ls),
(438,756,o),
(488,800,o),
(492,924,cs),
(498,1066,o),
(498,1206,o),
(492,1414,cs),
(488,1546,o),
(438,1600,o),
(320,1600,cs),
(182,1600,l),
(182,1560,l),
(320,1560,ls),
(410,1560,o),
(448,1518,o),
(452,1414,cs),
(458,1238,o),
(458,1096,o),
(452,920,cs),
(448,816,o),
(410,774,o),
(318,774,cs),
(190,774,l),
(190,756,l)
);
},
{
closed = 1;
nodes = (
(498,0,l),
(500,138,o),
(498,306,o),
(496,588,cs),
(494,710,o),
(444,754,o),
(324,754,cs),
(182,754,l),
(182,734,l),
(324,734,ls),
(416,734,o),
(454,692,o),
(456,588,cs),
(460,400,o),
(460,232,o),
(458,0,c)
);
},
{
closed = 1;
nodes = (
(200,0,l),
(200,1600,l),
(160,1600,l),
(160,0,l)
);
},
{
closed = 1;
nodes = (
(410,740,l),
(410,774,l),
(190,774,l),
(190,740,l)
);
}
);
};
layerId = "3B122060-26E0-4730-9241-82784E6CB359";
shapes = (
{
closed = 1;
nodes = (
(630,0,l),
(482,664,l),
(556,686,o),
(590,740,o),
(594,836,cs),
(602,1016,o),
(602,1182,o),
(594,1414,cs),
(590,1546,o),
(528,1600,o),
(382,1600,cs),
(312,1600,l),
(312,1524,l),
(382,1524,ls),
(482,1524,o),
(510,1500,o),
(514,1414,cs),
(524,1186,o),
(520,1064,o),
(514,836,cs),
(512,752,o),
(482,728,o),
(380,728,cs),
(320,728,l),
(320,652,l),
(400,652,l),
(546,0,l)
);
},
{
closed = 1;
nodes = (
(220,0,l),
(220,1600,l),
(140,1600,l),
(140,0,l)
);
}
);
width = 702;
},
{
anchors = (
{
name = bottom;
pos = (520,0);
},
{
name = top;
pos = (492,1600);
}
);
background = {
shapes = (
{
closed = 1;
nodes = (
(486,736,ls),
(786,740,o),
(908,824,o),
(916,1044,cs),
(918,1102,o),
(918,1150,o),
(916,1210,cs),
(906,1488,o),
(784,1600,o),
(486,1600,cs),
(334,1600,l),
(334,1336,l),
(486,1336,ls),
(570,1336,o),
(616,1296,o),
(616,1226,cs),
(616,1162,o),
(616,1074,o),
(616,1010,cs),
(616,926,o),
(570,880,o),
(486,880,cs),
(326,880,l),
(326,734,l)
);
},
{
closed = 1;
nodes = (
(922,0,l),
(924,138,o),
(920,290,o),
(914,428,cs),
(904,654,o),
(786,734,o),
(494,734,cs),
(326,734,l),
(326,614,l),
(482,614,ls),
(564,614,o),
(610,562,o),
(614,470,cs),
(620,322,o),
(624,148,o),
(622,0,c)
);
},
{
closed = 1;
nodes = (
(400,0,l),
(400,1600,l),
(100,1600,l),
(100,0,l)
);
},
{
closed = 1;
nodes = (
(698,694,l),
(698,768,l),
(326,768,l),
(326,694,l)
);
}
);
};
layerId = "1DFA7D5B-2E97-4B89-827F-FB43F8066DC1";
shapes = (
{
closed = 1;
nodes = (
(994,0,l),
(806,596,l),
(908,654,o),
(956,762,o),
(962,930,cs),
(966,1042,o),
(966,1098,o),
(962,1210,cs),
(952,1488,o),
(830,1600,o),
(532,1600,cs),
(530,1600,l),
(530,1336,l),
(532,1336,ls),
(616,1336,o),
(658,1296,o),
(662,1226,cs),
(668,1128,o),
(668,1012,o),
(662,914,cs),
(658,844,o),
(616,804,o),
(532,804,cs),
(530,804,l),
(530,540,l),
(532,540,l),
(682,0,l)
);
},
{
closed = 1;
nodes = (
(400,0,l),
(400,1600,l),
(100,1600,l),
(100,0,l)
);
}
);
width = 1050;
},
{
anchors = (
{
name = bottom;
pos = (500,0);
},
{
name = top;
pos = (472,1600);
}
);
background = {
shapes = (
{
closed = 1;
nodes = (
(466,736,ls),
(766,740,o),
(888,824,o),
(896,1044,cs),
(898,1102,o),
(898,1150,o),
(896,1210,cs),
(886,1488,o),
(764,1600,o),
(466,1600,cs),
(314,1600,l),
(314,1336,l),
(466,1336,ls),
(550,1336,o),
(596,1296,o),
(596,1226,cs),
(596,1162,o),
(596,1074,o),
(596,1010,cs),
(596,926,o),
(550,880,o),
(466,880,cs),
(306,880,l),
(306,734,l)
);
},
{
closed = 1;
nodes = (
(902,0,l),
(904,138,o),
(900,290,o),
(894,428,cs),
(884,654,o),
(766,734,o),
(474,734,cs),
(306,734,l),
(306,614,l),
(462,614,ls),
(544,614,o),
(590,562,o),
(594,470,cs),
(600,322,o),
(604,148,o),
(602,0,c)
);
},
{
closed = 1;
nodes = (
(380,0,l),
(380,1600,l),
(80,1600,l),
(80,0,l)
);
},
{
closed = 1;
nodes = (
(678,694,l),
(678,768,l),
(306,768,l),
(306,694,l)
);
}
);
};
layerId = "5013C991-8699-46CB-BB1C-82E334DBD38B";
shapes = (
{
closed = 1;
nodes = (
(944,0,l),
(756,596,l),
(858,654,o),
(906,762,o),
(912,930,cs),
(916,1042,o),
(916,1098,o),
(912,1210,cs),
(902,1488,o),
(780,1600,o),
(482,1600,cs),
(480,1600,l),
(480,1336,l),
(482,1336,ls),
(566,1336,o),
(608,1296,o),
(612,1226,cs),
(618,1128,o),
(618,1012,o),
(612,914,cs),
(608,844,o),
(566,804,o),
(482,804,cs),
(480,804,l),
(480,540,l),
(482,540,l),
(632,0,l)
);
},
{
closed = 1;
nodes = (
(380,0,l),
(380,1600,l),
(80,1600,l),
(80,0,l)
);
}
);
width = 980;
},
{
anchors = (
{
name = bottom;
pos = (294,0);
},
{
name = top;
pos = (264,1600);
}
);
background = {
shapes = (
{
closed = 1;
nodes = (
(278,756,ls),
(398,756,o),
(448,800,o),
(452,924,cs),
(458,1066,o),
(458,1206,o),
(452,1414,cs),
(448,1546,o),
(398,1600,o),
(280,1600,cs),
(142,1600,l),
(142,1560,l),
(280,1560,ls),
(370,1560,o),
(408,1518,o),
(412,1414,cs),
(418,1238,o),
(418,1096,o),
(412,920,cs),
(408,816,o),
(370,774,o),
(278,774,cs),
(150,774,l),
(150,756,l)
);
},
{
closed = 1;
nodes = (
(458,0,l),
(460,138,o),
(458,306,o),
(456,588,cs),
(454,710,o),
(404,754,o),
(284,754,cs),
(142,754,l),
(142,734,l),
(284,734,ls),
(376,734,o),
(414,692,o),
(416,588,cs),
(420,400,o),
(420,232,o),
(418,0,c)
);
},
{
closed = 1;
nodes = (
(160,0,l),
(160,1600,l),
(120,1600,l),
(120,0,l)
);
},
{
closed = 1;
nodes = (
(370,740,l),
(370,774,l),
(150,774,l),
(150,740,l)
);
}
);
};
layerId = "3D06B89B-468F-44E0-A3D7-A5BC6911123E";
shapes = (
{
closed = 1;
nodes = (
(492,0,l),
(346,658,l),
(418,676,o),
(452,732,o),
(456,836,cs),
(464,1004,o),
(464,1198,o),
(456,1414,cs),
(450,1546,o),
(400,1600,o),
(284,1600,cs),
(240,1600,l),
(240,1560,l),
(284,1560,ls),
(376,1560,o),
(412,1518,o),
(416,1414,cs),
(422,1222,o),
(422,1028,o),
(416,836,cs),
(412,732,o),
(376,690,o),
(282,690,cs),
(220,690,l),
(220,650,l),
(304,650,l),
(448,0,l)
);
},
{
closed = 1;
nodes = (
(160,0,l),
(160,1600,l),
(120,1600,l),
(120,0,l)
);
}
);
width = 549;
},
{
anchors = (
{
name = bottom;
pos = (407,0);
},
{
name = top;
pos = (391,1600);
}
);
layerId = "EB6D3A46-95FC-4F29-8169-EF2A3FEDBD5C";
shapes = (
{
closed = 1;
nodes = (
(716,0,l),
(558,647,l),
(639,678,o),
(677,746,o),
(681,860,cs),
(688,1023,o),
(688,1161,o),
(681,1363,cs),
(676,1532,o),
(599,1600,o),
(415,1600,cs),
(362,1600,l),
(362,1477,l),
(415,1477,ls),
(511,1477,o),
(542,1449,o),
(546,1367,cs),
(555,1172,o),
(552,1051,o),
(546,856,cs),
(544,775,o),
(511,747,o),
(413,747,cs),
(368,747,l),
(368,624,l),
(428,624,l),
(575,0,l)
);
},
{
closed = 1;
nodes = (
(260,0,l),
(260,1600,l),
(125,1600,l),
(125,0,l)
);
}
);
width = 783;
},
{
anchors = (
{
name = bottom;
pos = (346,0);
},
{
name = top;
pos = (316,1600);
}
);
layerId = "C388322D-F001-4130-A10A-708FB59AF746";
shapes = (
{
closed = 1;
nodes = (
(605,0,l),
(449,643,l),
(528,671,o),
(566,740,o),
(570,860,cs),
(577,1014,o),
(577,1173,o),
(570,1363,cs),
(563,1532,o),
(495,1600,o),
(334,1600,cs),
(300,1600,l),
(300,1504,l),
(334,1504,ls),
(424,1504,o),
(461,1463,o),
(465,1367,cs),
(471,1199,o),
(471,1024,o),
(465,856,cs),
(461,760,o),
(424,719,o),
(332,719,cs),
(285,719,l),
(285,623,l),
(349,623,l),
(494,0,l)
);
},
{
closed = 1;
nodes = (
(215,0,l),
(215,1600,l),
(110,1600,l),
(110,0,l)
);
}
);
width = 660;
}
);
metricLeft = H;
unicode = 82;
},
{
glyphname = S;
kernLeft = S;
kernRight = S;
layers = (
{
anchors = (
{
name = bottom;
pos = (344,0);
},
{
name = top;
pos = (344,1600);
}
);
layerId = "3B122060-26E0-4730-9241-82784E6CB359";
shapes = (
{
closed = 1;
nodes = (
(300,68,l),
(217,75,o),
(191,108,o),
(188,196,cs),
(182,326,o),
(184,436,o),
(188,566,c),
(108,566,l),
(104,420,o),
(104,336,o),
(108,196,cs),
(112,63,o),
(167,3,o),
(300,-8,c)
);
},
{
closed = 1;
nodes = (
(522,2,o),
(575,62,o),
(580,196,cs),
(584,298,o),
(584,426,o),
(580,532,cs),
(574,722,o),
(528,784,o),
(364,824,cs),
(290,842,ls),
(214,862,o),
(192,908,o),
(190,1058,cs),
(188,1180,o),
(186,1282,o),
(190,1404,cs),
(193,1492,o),
(219,1525,o),
(300,1532,c),
(300,1608,l),
(166,1598,o),
(112,1538,o),
(110,1406,cs),
(108,1284,o),
(106,1160,o),
(108,1058,cs),
(112,858,o),
(152,794,o),
(290,758,cs),
(362,740,ls),
(468,712,o),
(498,668,o),
(500,532,cs),
(502,434,o),
(506,294,o),
(500,196,cs),
(495,109,o),
(471,76,o),
(392,68,c),
(392,-8,l)
);
},
{
closed = 1;
nodes = (
(574,1070,l),
(576,1200,o),
(576,1306,o),
(574,1404,cs),
(570,1537,o),
(517,1597,o),
(392,1608,c),
(392,1532,l),
(467,1523,o),
(491,1490,o),
(494,1404,cs),
(498,1306,o),
(498,1208,o),
(494,1070,c)
);
}
);
width = 683;
},
{
anchors = (
{
name = bottom;
pos = (507,0);
},
{
name = top;
pos = (507,1600);
}
);
background = {
shapes = (
{
closed = 1;
nodes = (
(533,618,o),
(569,602,o),
(569,538,cs),
(569,382,ls),
(569,316,o),
(533,280,o),
(467,280,cs),
(403,280,o),
(363,316,o),
(363,382,cs),
(363,600,l),
(63,600,l),
(61,536,o),
(61,456,o),
(63,392,cs),
(71,134,o),
(209,-10,o),
(467,-10,cs),
(725,-10,o),
(869,134,o),
(869,392,cs),
(871,438,o),
(871,484,o),
(871,530,cs),
(863,788,o),
(725,868,o),
(475,930,cs),
(467,932,ls),
(405,948,o),
(365,968,o),
(365,1034,cs),
(365,1220,ls),
(365,1284,o),
(401,1320,o),
(467,1320,cs),
(531,1320,o),
(563,1284,o),
(563,1220,cs),
(561,1000,l),
(861,1000,l),
(863,1066,o),
(865,1144,o),
(863,1210,cs),
(855,1468,o),
(725,1610,o),
(467,1610,cs),
(209,1610,o),
(71,1468,o),
(65,1210,cs),
(65,1160,o),
(63,1092,o),
(63,1042,cs),
(71,784,o),
(223,722,o),
(467,640,cs),
(473,638,ls)
);
}
);
};
layerId = "1DFA7D5B-2E97-4B89-827F-FB43F8066DC1";
shapes = (
{
closed = 1;
nodes = (
(443,233,l),
(395,247,o),
(367,279,o),
(363,326,cs),
(355,404,o),
(357,502,o),
(363,600,c),
(81,600,l),
(71,536,o),
(71,446,o),
(73,382,cs),
(84,116,o),
(191,-1,o),
(443,-18,c)
);
},
{
closed = 1;
nodes = (
(830,-2,o),
(938,116,o),
(949,382,cs),
(951,428,o),
(953,482,o),
(951,528,cs),
(943,734,o),
(855,870,o),
(629,918,cs),
(467,952,ls),
(399,966,o),
(371,1016,o),
(365,1070,cs),
(357,1138,o),
(357,1208,o),
(365,1276,cs),
(371,1321,o),
(398,1352,o),
(443,1367,c),
(443,1618,l),
(185,1602,o),
(76,1484,o),
(65,1220,cs),
(63,1170,o),
(63,1128,o),
(65,1070,cs),
(71,870,o),
(139,740,o),
(349,692,cs),
(533,650,ls),
(597,636,o),
(643,584,o),
(649,528,cs),
(657,460,o),
(657,394,o),
(649,326,cs),
(643,280,o),
(618,249,o),
(575,234,c),
(575,-18,l)
);
},
{
closed = 1;
nodes = (
(939,1000,l),
(943,1070,o),
(945,1162,o),
(943,1220,cs),
(932,1484,o),
(825,1601,o),
(575,1618,c),
(575,1368,l),
(624,1354,o),
(652,1322,o),
(653,1276,cs),
(657,1184,o),
(655,1092,o),
(651,1000,c)
);
}
);
width = 1016;
},
{
anchors = (
{
name = bottom;
pos = (473,0);
},
{
name = top;
pos = (473,1600);
}
);
background = {
shapes = (
{
closed = 1;
nodes = (
(499,618,o),
(535,602,o),
(535,538,cs),
(535,382,ls),
(535,316,o),
(499,280,o),
(433,280,cs),
(369,280,o),
(329,316,o),
(329,382,cs),
(329,600,l),
(29,600,l),
(27,536,o),
(27,456,o),
(29,392,cs),
(37,134,o),
(175,-10,o),
(433,-10,cs),
(691,-10,o),
(835,134,o),
(835,392,cs),
(837,438,o),
(837,484,o),
(837,530,cs),
(829,788,o),
(691,868,o),
(441,930,cs),
(433,932,ls),
(371,948,o),
(331,968,o),
(331,1034,cs),
(331,1220,ls),
(331,1284,o),
(367,1320,o),
(433,1320,cs),
(497,1320,o),
(529,1284,o),
(529,1220,cs),
(527,1000,l),
(827,1000,l),
(829,1066,o),
(831,1144,o),
(829,1210,cs),
(821,1468,o),
(691,1610,o),
(433,1610,cs),
(175,1610,o),
(37,1468,o),
(31,1210,cs),
(31,1160,o),
(29,1092,o),
(29,1042,cs),
(37,784,o),
(189,722,o),
(433,640,cs),
(439,638,ls)
);
}
);
};
layerId = "5013C991-8699-46CB-BB1C-82E334DBD38B";
shapes = (
{
closed = 1;
nodes = (
(425,230,l),
(378,243,o),
(354,276,o),
(349,326,cs),
(341,404,o),
(343,502,o),
(349,600,c),
(67,600,l),
(57,536,o),
(57,446,o),
(59,382,cs),
(70,111,o),
(168,-6,o),
(425,-19,c)
);
},
{
closed = 1;
nodes = (
(784,-6,o),
(884,111,o),
(895,382,cs),
(897,428,o),
(899,482,o),
(897,528,cs),
(889,734,o),
(819,864,o),
(595,918,cs),
(453,952,ls),
(385,968,o),
(357,1016,o),
(351,1070,cs),
(343,1138,o),
(343,1208,o),
(351,1276,cs),
(357,1325,o),
(379,1357,o),
(425,1370,c),
(425,1619,l),
(161,1606,o),
(62,1490,o),
(51,1220,cs),
(49,1170,o),
(49,1128,o),
(51,1070,cs),
(57,870,o),
(127,746,o),
(335,692,cs),
(499,650,ls),
(563,634,o),
(589,584,o),
(595,528,cs),
(603,460,o),
(603,394,o),
(595,326,cs),
(589,276,o),
(568,244,o),
(525,230,c),
(525,-19,l)
);
},
{
closed = 1;
nodes = (
(885,1000,l),
(889,1070,o),
(891,1162,o),
(889,1220,cs),
(878,1489,o),
(773,1605,o),
(525,1619,c),
(525,1369,l),
(570,1356,o),
(597,1324,o),
(599,1276,cs),
(603,1184,o),
(601,1092,o),
(597,1000,c)
);
}
);
width = 948;
},
{
anchors = (
{
name = bottom;
pos = (257,0);
},
{
name = top;
pos = (257,1600);
}
);
layerId = "3D06B89B-468F-44E0-A3D7-A5BC6911123E";
shapes = (
{
closed = 1;
nodes = (
(221,33,l),
(151,43,o),
(124,87,o),
(121,176,cs),
(117,306,o),
(117,436,o),
(121,566,c),
(81,566,l),
(77,408,o),
(77,332,o),
(81,176,cs),
(85,59,o),
(126,3,o),
(221,-8,c)
);
},
{
closed = 1;
nodes = (
(389,4,o),
(429,60,o),
(433,176,cs),
(437,318,o),
(437,366,o),
(433,532,cs),
(429,694,o),
(417,776,o),
(297,804,cs),
(223,822,ls),
(135,844,o),
(125,902,o),
(123,1058,cs),
(121,1180,o),
(119,1302,o),
(123,1424,cs),
(126,1513,o),
(152,1556,o),
(219,1567,c),
(219,1608,l),
(122,1597,o),
(83,1543,o),
(83,1426,cs),
(83,1304,o),
(79,1160,o),
(81,1058,cs),
(85,882,o),
(99,808,o),
(223,778,cs),
(295,760,ls),
(379,738,o),
(391,656,o),
(393,532,cs),
(395,374,o),
(397,314,o),
(393,176,cs),
(390,89,o),
(365,45,o),
(301,33,c),
(301,-7,l)
);
},
{
closed = 1;
nodes = (
(427,1070,l),
(429,1216,o),
(429,1342,o),
(427,1424,cs),
(423,1540,o),
(386,1595,o),
(299,1607,c),
(299,1566,l),
(360,1554,o),
(384,1510,o),
(387,1424,cs),
(391,1306,o),
(391,1188,o),
(387,1070,c)
);
}
);
width = 512;
},
{
anchors = (
{
name = bottom;
pos = (383,0);
},
{
name = top;
pos = (383,1600);
}
);
layerId = "EB6D3A46-95FC-4F29-8169-EF2A3FEDBD5C";
shapes = (
{
closed = 1;
nodes = (
(334,109,l),
(259,118,o),
(233,151,o),
(230,229,cs),
(223,346,o),
(225,453,o),
(230,575,c),
(99,575,l),
(94,449,o),
(94,364,o),
(97,243,cs),
(102,76,o),
(171,2,o),
(334,-11,c)
);
},
{
closed = 1;
nodes = (
(596,1,o),
(663,76,o),
(670,243,cs),
(674,331,o),
(674,440,o),
(671,531,cs),
(664,725,o),
(608,806,o),
(428,848,cs),
(332,870,ls),
(258,888,o),
(235,935,o),
(232,1061,cs),
(228,1170,o),
(227,1264,o),
(232,1372,cs),
(235,1449,o),
(262,1482,o),
(334,1491,c),
(334,1611,l),
(168,1599,o),
(101,1525,o),
(97,1360,cs),
(95,1256,o),
(93,1152,o),
(95,1061,cs),
(100,861,o),
(147,781,o),
(303,742,cs),
(403,718,ls),
(498,693,o),
(532,647,o),
(535,531,cs),
(539,441,o),
(542,319,o),
(535,229,cs),
(530,152,o),
(505,119,o),
(436,109,c),
(436,-11,l)
);
},
{
closed = 1;
nodes = (
(663,1053,l),
(666,1168,o),
(666,1270,o),
(664,1358,cs),
(659,1524,o),
(592,1598,o),
(436,1611,c),
(436,1491,l),
(504,1481,o),
(529,1448,o),
(532,1372,cs),
(536,1276,o),
(535,1179,o),
(531,1053,c)
);
}
);
width = 767;
},
{
anchors = (
{
name = bottom;
pos = (320,0);
},
{
name = top;
pos = (320,1600);
}
);
layerId = "C388322D-F001-4130-A10A-708FB59AF746";
shapes = (
{
closed = 1;
nodes = (
(281,82,l),
(217,93,o),
(190,134,o),
(187,214,cs),
(182,331,o),
(182,453,o),
(187,575,c),
(86,575,l),
(81,440,o),
(81,361,o),
(84,228,cs),
(89,72,o),
(145,1,o),
(281,-11,c)
);
},
{
closed = 1;
nodes = (
(496,2,o),
(552,73,o),
(557,228,cs),
(561,346,o),
(561,395,o),
(558,531,cs),
(553,704,o),
(526,798,o),
(380,833,cs),
(289,855,ls),
(206,875,o),
(192,931,o),
(189,1061,cs),
(185,1170,o),
(184,1279,o),
(189,1387,cs),
(193,1466,o),
(217,1507,o),
(279,1518,c),
(279,1611,l),
(140,1599,o),
(86,1530,o),
(84,1375,cs),
(83,1271,o),
(80,1152,o),
(82,1061,cs),
(87,879,o),
(115,793,o),
(260,757,cs),
(355,733,ls),
(434,712,o),
(449,638,o),
(452,531,cs),
(456,396,o),
(457,334,o),
(452,214,cs),
(448,136,o),
(424,95,o),
(366,83,c),
(366,-10,l)
);
},
{
closed = 1;
nodes = (
(550,1053,l),
(553,1180,o),
(553,1297,o),
(551,1373,cs),
(546,1527,o),
(491,1598,o),
(364,1610,c),
(364,1517,l),
(421,1505,o),
(446,1464,o),
(449,1387,cs),
(453,1276,o),
(452,1164,o),
(448,1053,c)
);
}
);
width = 639;
}
);
unicode = 83;
},
{
glyphname = Germandbls;
kernLeft = H;
kernRight = B;
layers = (
{
layerId = "3B122060-26E0-4730-9241-82784E6CB359";
shapes = (
{
closed = 1;
nodes = (
(160,0,l),
(160,1420,ls),
(160,1502,o),
(190,1526,o),
(296,1526,cs),
(538,1526,l),
(538,1602,l),
(296,1602,ls),
(142,1602,o),
(80,1548,o),
(80,1420,cs),
(80,0,l)
);
},
{
closed = 1;
nodes = (
(316,0,ls),
(478,0,o),
(544,78,o),
(548,226,cs),
(552,382,o),
(552,442,o),
(548,582,cs),
(544,740,o),
(482,826,o),
(358,820,c),
(522,1452,l),
(436,1452,l),
(274,818,l),
(274,744,l),
(334,744,ls),
(436,744,o),
(464,710,o),
(468,582,cs),
(472,448,o),
(472,362,o),
(468,226,cs),
(464,124,o),
(432,76,o),
(316,76,cs),
(252,76,l),
(252,0,l)
);
}
);
width = 630;
},
{
layerId = "1DFA7D5B-2E97-4B89-827F-FB43F8066DC1";
shapes = (
{
closed = 1;
nodes = (
(380,0,l),
(380,1256,ls),
(380,1320,o),
(426,1356,o),
(502,1356,cs),
(980,1356,l),
(980,1600,l),
(502,1600,ls),
(208,1600,o),
(80,1486,o),
(80,1200,cs),
(80,0,l)
);
},
{
closed = 1;
nodes = (
(586,0,ls),
(882,0,o),
(994,114,o),
(1006,402,cs),
(1008,448,o),
(1010,502,o),
(1008,548,cs),
(1000,734,o),
(944,858,o),
(770,920,c),
(946,1264,l),
(640,1264,l),
(488,904,l),
(488,670,l),
(610,670,ls),
(676,670,o),
(700,604,o),
(706,548,cs),
(714,480,o),
(714,414,o),
(706,346,cs),
(698,280,o),
(664,244,o),
(586,244,cs),
(514,244,l),
(514,0,l)
);
}
);
width = 1088;
},
{
layerId = "5013C991-8699-46CB-BB1C-82E334DBD38B";
shapes = (
{
closed = 1;
nodes = (
(380,0,l),
(380,1256,ls),
(380,1320,o),
(426,1356,o),
(502,1356,cs),
(960,1356,l),
(960,1600,l),
(502,1600,ls),
(208,1600,o),
(80,1486,o),
(80,1200,cs),
(80,0,l)
);
},
{
closed = 1;
nodes = (
(566,0,ls),
(862,0,o),
(974,114,o),
(986,402,cs),
(988,448,o),
(990,502,o),
(988,548,cs),
(980,734,o),
(924,858,o),
(750,920,c),
(936,1270,l),
(654,1270,l),
(476,904,l),
(480,670,l),
(590,670,ls),
(656,670,o),
(680,604,o),
(686,548,cs),
(694,480,o),
(694,414,o),
(686,346,cs),
(678,280,o),
(644,244,o),
(566,244,cs),
(478,244,l),
(478,0,l)
);
}
);
width = 1068;
},
{
background = {
shapes = (
{
closed = 0;
nodes = (
(310,820,l)
);
}
);
};
layerId = "3D06B89B-468F-44E0-A3D7-A5BC6911123E";
shapes = (
{
closed = 1;
nodes = (
(160,0,l),
(160,1418,ls),
(160,1526,o),
(196,1560,o),
(296,1560,cs),
(478,1560,l),
(478,1600,l),
(296,1600,ls),
(170,1600,o),
(120,1548,o),
(120,1418,cs),
(120,0,l)
);
},
{
closed = 1;
nodes = (
(296,0,ls),
(428,0,o),
(484,58,o),
(488,206,cs),
(492,362,o),
(492,442,o),
(488,582,cs),
(484,754,o),
(436,820,o),
(312,820,c),
(466,1500,l),
(424,1500,l),
(266,818,l),
(266,780,l),
(314,780,ls),
(406,780,o),
(444,724,o),
(448,582,cs),
(452,448,o),
(452,342,o),
(448,206,cs),
(444,88,o),
(400,40,o),
(296,40,cs),
(240,40,l),
(240,0,l)
);
}
);
width = 618;
},
{
layerId = "EB6D3A46-95FC-4F29-8169-EF2A3FEDBD5C";
shapes = (
{
closed = 1;
nodes = (
(215,0,l),
(215,1379,ls),
(215,1457,o),
(249,1484,o),
(348,1484,cs),
(649,1484,l),
(649,1602,l),
(348,1602,ls),
(159,1602,o),
(80,1533,o),
(80,1365,cs),
(80,0,l)
);
},
{
closed = 1;
nodes = (
(384,0,ls),
(579,0,o),
(657,87,o),
(663,270,cs),
(666,399,o),
(667,457,o),
(663,574,cs),
(658,739,o),
(598,834,o),
(461,845,c),
(628,1405,l),
(487,1405,l),
(328,840,l),
(328,726,l),
(403,726,ls),
(496,726,o),
(523,684,o),
(528,574,cs),
(533,456,o),
(533,375,o),
(528,256,cs),
(523,163,o),
(490,118,o),
(384,118,cs),
(318,118,l),
(318,0,l)
);
}
);
width = 745;
},
{
layerId = "C388322D-F001-4130-A10A-708FB59AF746";
shapes = (
{
closed = 1;
nodes = (
(215,0,l),
(215,1378,ls),
(215,1475,o),
(254,1509,o),
(348,1509,cs),
(599,1509,l),
(599,1600,l),
(348,1600,ls),
(180,1600,o),
(110,1533,o),
(110,1364,cs),
(110,0,l)
);
},
{
closed = 1;
nodes = (
(364,0,ls),
(537,0,o),
(607,72,o),
(613,255,cs),
(616,384,o),
(617,457,o),
(613,574,cs),
(608,749,o),
(558,830,o),
(422,845,c),
(584,1443,l),
(482,1443,l),
(319,840,l),
(320,753,l),
(383,753,ls),
(469,753,o),
(503,694,o),
(508,574,cs),
(513,456,o),
(513,360,o),
(508,241,cs),
(503,136,o),
(461,91,o),
(364,91,cs),
(300,91,l),
(300,0,l)
);
}
);
width = 731;
}
);
unicode = 7838;
},
{
glyphname = T;
kernLeft = T;
kernRight = T;
layers = (
{
anchors = (
{
name = bottom;
pos = (284,0);
},
{
name = center;
pos = (284,800);
},
{
name = top;
pos = (284,1600);
}
);
layerId = "3B122060-26E0-4730-9241-82784E6CB359";
shapes = (
{
closed = 1;
nodes = (
(324,0,l),
(324,1462,l),
(244,1462,l),
(244,0,l)
);
},
{
closed = 1;
nodes = (
(548,1524,l),
(548,1600,l),
(20,1600,l),
(20,1524,l)
);
}
);
width = 568;
},
{
anchors = (
{
name = bottom;
pos = (438,0);
},
{
name = center;
pos = (438,800);
},
{
name = top;
pos = (438,1600);
}
);
layerId = "1DFA7D5B-2E97-4B89-827F-FB43F8066DC1";
shapes = (
{
closed = 1;
nodes = (
(588,0,l),
(588,1244,l),
(288,1244,l),
(288,0,l)
);
},
{
closed = 1;
nodes = (
(864,1336,l),
(864,1600,l),
(10,1600,l),
(10,1336,l)
);
}
);
width = 874;
},
{
anchors = (
{
name = bottom;
pos = (420,0);
},
{
name = center;
pos = (420,800);
},
{
name = top;
pos = (420,1600);
}
);
layerId = "5013C991-8699-46CB-BB1C-82E334DBD38B";
shapes = (
{
closed = 1;
nodes = (
(570,0,l),
(570,1236,l),
(270,1236,l),
(270,0,l)
);
},
{
closed = 1;
nodes = (
(826,1336,l),
(826,1600,l),
(12,1600,l),
(12,1336,l)
);
}
);
width = 838;
},
{
anchors = (
{
name = bottom;
pos = (214,0);
},
{
name = center;
pos = (214,800);
},
{
name = top;
pos = (214,1600);
}
);
layerId = "3D06B89B-468F-44E0-A3D7-A5BC6911123E";
shapes = (
{
closed = 1;
nodes = (
(234,0,l),
(234,1520,l),
(194,1520,l),
(194,0,l)
);
},
{
closed = 1;
nodes = (
(408,1560,l),
(408,1600,l),
(20,1600,l),
(20,1560,l)
);
}
);
width = 428;
},
{
anchors = (
{
name = bottom;
pos = (320,0);
},
{
name = center;
pos = (320,800);
},
{
name = top;
pos = (320,1600);
}
);
layerId = "EB6D3A46-95FC-4F29-8169-EF2A3FEDBD5C";
shapes = (
{
closed = 1;
nodes = (
(388,0,l),
(388,1408,l),
(253,1408,l),
(253,0,l)
);
},
{
closed = 1;
nodes = (
(625,1477,l),
(625,1600,l),
(15,1600,l),
(15,1477,l)
);
}
);
width = 640;
},
{
anchors = (
{
name = bottom;
pos = (258,0);
},
{
name = center;
pos = (258,800);
},
{
name = top;
pos = (258,1600);
}
);
layerId = "C388322D-F001-4130-A10A-708FB59AF746";
shapes = (
{
closed = 1;
nodes = (
(310,0,l),
(310,1449,l),
(205,1449,l),
(205,0,l)
);
},
{
closed = 1;
nodes = (
(505,1504,l),
(505,1600,l),
(10,1600,l),
(10,1504,l)
);
}
);
width = 515;
}
);
unicode = 84;
},
{
color = 1;
glyphname = Tbar;
kernLeft = T;
kernRight = T;
layers = (
{
layerId = "3B122060-26E0-4730-9241-82784E6CB359";
shapes = (
{
closed = 1;
nodes = (
(424,678,l),
(424,746,l),
(144,746,l),
(144,678,l)
);
},
{
ref = T;
}
);
width = 568;
},
{
layerId = "1DFA7D5B-2E97-4B89-827F-FB43F8066DC1";
shapes = (
{
closed = 1;
nodes = (
(759,528,l),
(759,754,l),
(115,754,l),
(115,528,l)
);
},
{
ref = T;
}
);
width = 874;
},
{
layerId = "5013C991-8699-46CB-BB1C-82E334DBD38B";
shapes = (
{
closed = 1;
nodes = (
(728,528,l),
(728,754,l),
(110,754,l),
(110,528,l)
);
},
{
ref = T;
}
);
width = 838;
},
{
layerId = "3D06B89B-468F-44E0-A3D7-A5BC6911123E";
shapes = (
{
closed = 1;
nodes = (
(344,688,l),
(344,728,l),
(84,728,l),
(84,688,l)
);
},
{
ref = T;
}
);
width = 428;
},
{
layerId = "EB6D3A46-95FC-4F29-8169-EF2A3FEDBD5C";
shapes = (
{
closed = 1;
nodes = (
(506,641,l),
(506,748,l),
(135,748,l),
(135,641,l)
);
},
{
alignment = -1;
ref = T;
}
);
width = 640;
},
{
layerId = "C388322D-F001-4130-A10A-708FB59AF746";
shapes = (
{
closed = 1;
nodes = (
(432,648,l),
(432,735,l),
(83,735,l),
(83,648,l)
);
},
{
alignment = -1;
ref = T;
}
);
width = 515;
}
);
metricLeft = T;
metricRight = T;
unicode = 358;
},
{
glyphname = U;
kernLeft = U;
kernRight = U;
layers = (
{
anchors = (
{
name = bottom;
pos = (358,0);
},
{
name = ogonek;
pos = (292,0);
},
{
name = top;
pos = (358,1600);
},
{
name = topright;
pos = (620,1860);
}
);
layerId = "3B122060-26E0-4730-9241-82784E6CB359";
shapes = (
{
closed = 1;
nodes = (
(128,62,o),
(182,2,o),
(312,-8,c),
(312,72,l),
(229,79,o),
(204,109,o),
(204,190,cs),
(204,668,o),
(202,1122,o),
(206,1600,c),
(126,1600,l),
(122,1122,o),
(120,668,o),
(126,190,c)
);
},
{
closed = 1;
nodes = (
(534,2,o),
(588,62,o),
(590,190,cs),
(596,668,o),
(594,1122,o),
(590,1600,c),
(510,1600,l),
(514,1122,o),
(510,668,o),
(510,190,cs),
(510,109,o),
(486,79,o),
(404,72,c),
(404,-8,l)
);
}
);
width = 716;
},
{
anchors = (
{
name = bottom;
pos = (528,0);
},
{
name = ogonek;
pos = (413,0);
},
{
name = top;
pos = (528,1600);
},
{
name = topright;
pos = (864,1960);
}
);
layerId = "1DFA7D5B-2E97-4B89-827F-FB43F8066DC1";
shapes = (
{
closed = 1;
nodes = (
(90,115,o),
(198,-2,o),
(462,-18,c),
(462,234,l),
(412,251,o),
(386,289,o),
(386,346,cs),
(382,748,o),
(378,1198,o),
(386,1600,c),
(86,1600,l),
(80,1198,o),
(80,784,o),
(86,382,c)
);
},
{
closed = 1;
nodes = (
(856,-2,o),
(964,115,o),
(968,382,cs),
(974,784,o),
(974,1198,o),
(968,1600,c),
(668,1600,l),
(676,1198,o),
(672,748,o),
(668,346,cs),
(668,290,o),
(642,251,o),
(594,234,c),
(594,-18,l)
);
}
);
width = 1054;
},
{
anchors = (
{
name = bottom;
pos = (488,0);
},
{
name = ogonek;
pos = (355,0);
},
{
name = top;
pos = (488,1600);
},
{
name = topright;
pos = (790,1960);
}
);
layerId = "5013C991-8699-46CB-BB1C-82E334DBD38B";
shapes = (
{
closed = 1;
nodes = (
(70,111,o),
(175,-6,o),
(438,-19,c),
(438,230,l),
(391,243,o),
(366,276,o),
(366,326,cs),
(362,728,o),
(358,1198,o),
(366,1600,c),
(66,1600,l),
(60,1198,o),
(60,784,o),
(66,382,c)
);
},
{
closed = 1;
nodes = (
(799,-6,o),
(904,111,o),
(908,382,cs),
(914,784,o),
(914,1198,o),
(908,1600,c),
(608,1600,l),
(616,1198,o),
(612,728,o),
(608,326,cs),
(608,276,o),
(584,243,o),
(538,230,c),
(538,-19,l)
);
}
);
width = 974;
},
{
anchors = (
{
name = bottom;
pos = (277,0);
},
{
name = ogonek;
pos = (193,-10);
},
{
name = top;
pos = (277,1600);
},
{
name = topright;
pos = (487,1842);
}
);
layerId = "3D06B89B-468F-44E0-A3D7-A5BC6911123E";
shapes = (
{
closed = 1;
nodes = (
(107,57,o),
(146,3,o),
(237,-8,c),
(237,33,l),
(172,44,o),
(143,86,o),
(143,170,cs),
(139,648,o),
(141,1122,o),
(145,1600,c),
(105,1600,l),
(101,1122,o),
(101,648,o),
(105,170,c)
);
},
{
closed = 1;
nodes = (
(408,3,o),
(447,57,o),
(449,170,cs),
(453,648,o),
(453,1122,o),
(449,1600,c),
(409,1600,l),
(413,1122,o),
(413,648,o),
(409,170,cs),
(409,86,o),
(382,44,o),
(317,33,c),
(317,-8,l)
);
}
);
width = 554;
},
{
anchors = (
{
name = bottom;
pos = (395,0);
},
{
name = ogonek;
pos = (317,0);
},
{
name = top;
pos = (395,1600);
},
{
name = topright;
pos = (658,1860);
}
);
layerId = "EB6D3A46-95FC-4F29-8169-EF2A3FEDBD5C";
shapes = (
{
closed = 1;
nodes = (
(113,75,o),
(180,1,o),
(344,-11,c),
(344,112,l),
(269,122,o),
(244,154,o),
(244,229,cs),
(243,688,o),
(241,1141,o),
(246,1600,c),
(111,1600,l),
(106,1141,o),
(105,697,o),
(111,238,c)
);
},
{
closed = 1;
nodes = (
(609,1,o),
(677,75,o),
(679,238,cs),
(685,697,o),
(684,1141,o),
(679,1600,c),
(544,1600,l),
(549,1141,o),
(545,688,o),
(544,229,cs),
(544,154,o),
(520,122,o),
(446,112,c),
(446,-11,l)
);
}
);
width = 790;
},
{
anchors = (
{
name = bottom;
pos = (330,0);
},
{
name = ogonek;
pos = (234,-8);
},
{
name = top;
pos = (330,1600);
},
{
name = topright;
pos = (563,1860);
}
);
layerId = "C388322D-F001-4130-A10A-708FB59AF746";
shapes = (
{
closed = 1;
nodes = (
(98,71,o),
(153,1,o),
(288,-11,c),
(288,82,l),
(227,94,o),
(199,133,o),
(199,209,cs),
(195,668,o),
(196,1141,o),
(201,1600,c),
(96,1600,l),
(91,1141,o),
(91,682,o),
(96,223,c)
);
},
{
closed = 1;
nodes = (
(506,1,o),
(562,71,o),
(564,223,cs),
(569,682,o),
(569,1141,o),
(564,1600,c),
(459,1600,l),
(464,1141,o),
(463,668,o),
(459,209,cs),
(459,133,o),
(433,94,o),
(373,82,c),
(373,-11,l)
);
}
);
width = 660;
}
);
metricLeft = "=H-18";
metricRight = "=H-18";
unicode = 85;
},
{
glyphname = V;
kernLeft = V;
kernRight = V;
layers = (
{
layerId = "3B122060-26E0-4730-9241-82784E6CB359";
shapes = (
{
closed = 1;
nodes = (
(216,138,l),
(296,138,l),
(248,660,l),
(164,1600,l),
(80,1600,l)
);
},
{
closed = 1;
nodes = (
(228,0,l),
(440,0,l),
(588,1600,l),
(504,1600,l),
(420,660,l),
(368,76,l),
(221,76,l)
);
}
);
width = 668;
},
{
layerId = "1DFA7D5B-2E97-4B89-827F-FB43F8066DC1";
shapes = (
{
closed = 1;
nodes = (
(218,356,l),
(472,356,l),
(458,798,l),
(340,1600,l),
(30,1600,l)
);
},
{
closed = 1;
nodes = (
(272,0,l),
(796,0,l),
(1028,1600,l),
(718,1600,l),
(600,798,l),
(582,264,l),
(234,264,l)
);
}
);
width = 1058;
},
{
layerId = "5013C991-8699-46CB-BB1C-82E334DBD38B";
shapes = (
{
closed = 1;
nodes = (
(208,334,l),
(470,334,l),
(448,798,l),
(330,1600,l),
(20,1600,l)
);
},
{
closed = 1;
nodes = (
(262,0,l),
(746,0,l),
(978,1600,l),
(668,1600,l),
(550,798,l),
(532,264,l),
(224,264,l)
);
}
);
width = 998;
},
{
layerId = "3D06B89B-468F-44E0-A3D7-A5BC6911123E";
shapes = (
{
closed = 1;
nodes = (
(205,80,l),
(245,80,l),
(193,660,l),
(109,1600,l),
(65,1600,l)
);
},
{
closed = 1;
nodes = (
(213,0,l),
(305,0,l),
(453,1600,l),
(409,1600,l),
(325,660,l),
(271,40,l),
(209,40,l)
);
}
);
width = 518;
},
{
layerId = "EB6D3A46-95FC-4F29-8169-EF2A3FEDBD5C";
shapes = (
{
closed = 1;
nodes = (
(208,196,l),
(336,196,l),
(284,694,l),
(200,1600,l),
(60,1600,l)
);
},
{
closed = 1;
nodes = (
(230,0,l),
(520,0,l),
(688,1600,l),
(548,1600,l),
(470,694,l),
(412,124,l),
(214,124,l)
);
}
);
width = 748;
},
{
layerId = "C388322D-F001-4130-A10A-708FB59AF746";
shapes = (
{
closed = 1;
nodes = (
(202,162,l),
(296,162,l),
(246,694,l),
(166,1600,l),
(56,1600,l)
);
},
{
closed = 1;
nodes = (
(224,0,l),
(414,0,l),
(584,1600,l),
(472,1600,l),
(394,694,l),
(336,96,l),
(212,96,l)
);
}
);
width = 638;
}
);
unicode = 86;
},
{
glyphname = W;
kernLeft = W;
kernRight = W;
layers = (
{
anchors = (
{
name = bottom;
pos = (528,0);
},
{
name = top;
pos = (528,1600);
}
);
layerId = "3B122060-26E0-4730-9241-82784E6CB359";
shapes = (
{
closed = 1;
nodes = (
(884,0,l),
(888,76,l),
(744,76,l),
(672,1070,l),
(636,1590,l),
(422,1590,l),
(384,1070,l),
(322,138,l),
(398,138,l),
(426,568,l),
(496,1514,l),
(564,1514,l),
(632,568,l),
(672,0,l)
);
},
{
closed = 1;
nodes = (
(386,0,l),
(391,76,l),
(246,76,l),
(196,1070,l),
(170,1600,l),
(90,1600,l),
(174,0,l)
);
},
{
closed = 1;
nodes = (
(890,138,l),
(972,1600,l),
(892,1600,l),
(866,1070,l),
(814,138,l)
);
}
);
width = 1062;
},
{
anchors = (
{
name = bottom;
pos = (806,0);
},
{
name = top;
pos = (806,1600);
}
);
background = {
shapes = (
{
closed = 1;
nodes = (
(712,0,l),
(784,562,l),
(802,1292,l),
(852,1292,l),
(870,562,l),
(942,0,l),
(1464,0,l),
(1580,1600,l),
(1254,1600,l),
(1228,1144,l),
(1222,264,l),
(1162,264,l),
(1142,1144,l),
(1082,1590,l),
(572,1590,l),
(512,1144,l),
(500,264,l),
(440,264,l),
(426,1144,l),
(400,1600,l),
(74,1600,l),
(190,0,l)
);
}
);
};
layerId = "1DFA7D5B-2E97-4B89-827F-FB43F8066DC1";
shapes = (
{
closed = 1;
nodes = (
(1550,0,l),
(1576,264,l),
(1224,264,l),
(1228,868,l),
(1088,1590,l),
(664,1590,l),
(524,868,l),
(528,356,l),
(790,356,l),
(806,446,l),
(830,1336,l),
(922,1336,l),
(946,446,l),
(1020,0,l)
);
},
{
closed = 1;
nodes = (
(722,0,l),
(766,264,l),
(424,264,l),
(394,868,l),
(342,1600,l),
(40,1600,l),
(192,0,l)
);
},
{
closed = 1;
nodes = (
(1584,356,l),
(1712,1600,l),
(1410,1600,l),
(1358,868,l),
(1326,356,l)
);
}
);
width = 1752;
},
{
anchors = (
{
name = bottom;
pos = (800,0);
},
{
name = top;
pos = (800,1600);
}
);
background = {
shapes = (
{
closed = 1;
nodes = (
(706,0,l),
(778,562,l),
(796,1292,l),
(846,1292,l),
(864,562,l),
(936,0,l),
(1458,0,l),
(1574,1600,l),
(1248,1600,l),
(1222,1144,l),
(1216,264,l),
(1156,264,l),
(1136,1144,l),
(1076,1590,l),
(566,1590,l),
(506,1144,l),
(494,264,l),
(434,264,l),
(420,1144,l),
(394,1600,l),
(68,1600,l),
(184,0,l)
);
}
);
};
layerId = "5013C991-8699-46CB-BB1C-82E334DBD38B";
shapes = (
{
closed = 1;
nodes = (
(1426,0,l),
(1452,264,l),
(1140,264,l),
(1144,868,l),
(1004,1590,l),
(620,1590,l),
(480,868,l),
(472,334,l),
(744,334,l),
(762,446,l),
(786,1336,l),
(838,1336,l),
(862,446,l),
(936,0,l)
);
},
{
closed = 1;
nodes = (
(676,0,l),
(720,264,l),
(418,264,l),
(388,868,l),
(336,1600,l),
(34,1600,l),
(186,0,l)
);
},
{
closed = 1;
nodes = (
(1460,334,l),
(1586,1600,l),
(1284,1600,l),
(1232,868,l),
(1198,334,l)
);
}
);
width = 1620;
},
{
anchors = (
{
name = bottom;
pos = (392,0);
},
{
name = top;
pos = (392,1600);
}
);
layerId = "3D06B89B-468F-44E0-A3D7-A5BC6911123E";
shapes = (
{
closed = 1;
nodes = (
(604,0,l),
(606,40,l),
(546,40,l),
(472,1070,l),
(436,1590,l),
(342,1590,l),
(304,1070,l),
(236,80,l),
(272,80,l),
(306,568,l),
(378,1550,l),
(402,1550,l),
(472,568,l),
(512,0,l)
);
},
{
closed = 1;
nodes = (
(266,0,l),
(269,40,l),
(208,40,l),
(156,1070,l),
(130,1600,l),
(90,1600,l),
(174,0,l)
);
},
{
closed = 1;
nodes = (
(608,80,l),
(692,1600,l),
(652,1600,l),
(626,1070,l),
(572,80,l)
);
}
);
width = 782;
},
{
anchors = (
{
name = bottom;
pos = (595,0);
},
{
name = top;
pos = (595,1600);
}
);
layerId = "EB6D3A46-95FC-4F29-8169-EF2A3FEDBD5C";
shapes = (
{
closed = 1;
nodes = (
(1045,0,l),
(1053,124,l),
(867,124,l),
(801,1020,l),
(759,1590,l),
(457,1590,l),
(419,1020,l),
(365,196,l),
(485,196,l),
(515,538,l),
(573,1470,l),
(647,1470,l),
(713,538,l),
(753,0,l)
);
},
{
closed = 1;
nodes = (
(469,0,l),
(481,124,l),
(287,124,l),
(243,1020,l),
(209,1600,l),
(75,1600,l),
(175,0,l)
);
},
{
closed = 1;
nodes = (
(1059,196,l),
(1149,1600,l),
(1013,1600,l),
(981,1020,l),
(939,196,l)
);
}
);
width = 1224;
},
{
anchors = (
{
name = bottom;
pos = (506,0);
},
{
name = top;
pos = (506,1600);
}
);
layerId = "C388322D-F001-4130-A10A-708FB59AF746";
shapes = (
{
closed = 1;
nodes = (
(834,0,l),
(842,96,l),
(720,96,l),
(652,1020,l),
(618,1590,l),
(402,1590,l),
(366,1020,l),
(306,168,l),
(404,168,l),
(434,538,l),
(494,1496,l),
(524,1496,l),
(584,538,l),
(618,0,l)
);
},
{
closed = 1;
nodes = (
(390,0,l),
(398,96,l),
(254,96,l),
(208,1020,l),
(176,1600,l),
(70,1600,l),
(172,0,l)
);
},
{
closed = 1;
nodes = (
(854,168,l),
(942,1600,l),
(838,1600,l),
(808,1020,l),
(764,168,l)
);
}
);
width = 1012;
}
);
unicode = 87;
},
{
glyphname = X;
kernLeft = X;
kernRight = X;
layers = (
{
background = {
shapes = (
{
closed = 1;
nodes = (
(144,0,l),
(206,386,l),
(270,800,l),
(294,800,l),
(362,396,l),
(424,0,l),
(468,0,l),
(326,848,l),
(326,798,l),
(458,1600,l),
(414,1600,l),
(364,1272,l),
(294,846,l),
(270,846,l),
(204,1266,l),
(154,1600,l),
(110,1600,l),
(238,798,l),
(238,848,l),
(100,0,l)
);
}
);
};
layerId = "3B122060-26E0-4730-9241-82784E6CB359";
shapes = (
{
closed = 1;
nodes = (
(138,0,l),
(218,396,l),
(284,704,l),
(212,704,l),
(60,0,l)
);
},
{
closed = 1;
nodes = (
(222,766,l),
(340,766,l),
(412,396,l),
(486,0,l),
(564,0,l),
(404,842,l),
(284,842,l),
(216,1220,l),
(148,1600,l),
(70,1600,l)
);
},
{
closed = 1;
nodes = (
(418,904,l),
(554,1600,l),
(476,1600,l),
(402,1220,l),
(342,904,l)
);
}
);
width = 624;
},
{
background = {
shapes = (
{
closed = 1;
nodes = (
(320,0,l),
(414,394,l),
(442,702,l),
(496,702,l),
(528,394,l),
(624,0,l),
(926,0,l),
(688,896,l),
(682,726,l),
(918,1600,l),
(606,1600,l),
(530,1228,l),
(502,926,l),
(446,926,l),
(416,1228,l),
(340,1600,l),
(28,1600,l),
(264,786,l),
(254,932,l),
(14,0,l)
);
}
);
};
guides = (
{
pos = (152,405);
},
{
angle = 90;
pos = (152,405);
}
);
layerId = "1DFA7D5B-2E97-4B89-827F-FB43F8066DC1";
shapes = (
{
closed = 1;
nodes = (
(308,0,l),
(418,394,l),
(432,596,l),
(212,596,l),
(14,0,l)
);
},
{
closed = 1;
nodes = (
(312,688,l),
(524,688,l),
(550,394,l),
(656,0,l),
(950,0,l),
(672,952,l),
(444,952,l),
(418,1226,l),
(314,1600,l),
(20,1600,l)
);
},
{
closed = 1;
nodes = (
(768,1044,l),
(944,1600,l),
(650,1600,l),
(550,1226,l),
(536,1044,l)
);
}
);
width = 964;
},
{
background = {
shapes = (
{
closed = 1;
nodes = (
(309,0,l),
(403,394,l),
(431,702,l),
(485,702,l),
(517,394,l),
(613,0,l),
(915,0,l),
(677,896,l),
(671,726,l),
(907,1600,l),
(595,1600,l),
(519,1228,l),
(491,926,l),
(435,926,l),
(405,1228,l),
(329,1600,l),
(17,1600,l),
(253,786,l),
(243,932,l),
(3,0,l)
);
}
);
};
guides = (
{
pos = (151,405);
},
{
angle = 90;
pos = (151,405);
}
);
layerId = "5013C991-8699-46CB-BB1C-82E334DBD38B";
shapes = (
{
closed = 1;
nodes = (
(317,0,l),
(427,394,l),
(445,618,l),
(215,618,l),
(23,0,l)
);
},
{
closed = 1;
nodes = (
(339,688,l),
(513,688,l),
(539,394,l),
(645,0,l),
(939,0,l),
(663,952,l),
(473,952,l),
(447,1226,l),
(343,1600,l),
(49,1600,l)
);
},
{
closed = 1;
nodes = (
(785,1022,l),
(953,1600,l),
(659,1600,l),
(559,1226,l),
(543,1022,l)
);
}
);
width = 976;
},
{
background = {
shapes = (
{
closed = 1;
nodes = (
(66,0,l),
(128,386,l),
(192,800,l),
(216,800,l),
(284,396,l),
(346,0,l),
(390,0,l),
(248,848,l),
(248,798,l),
(380,1600,l),
(336,1600,l),
(286,1272,l),
(216,846,l),
(192,846,l),
(126,1266,l),
(76,1600,l),
(32,1600,l),
(160,798,l),
(160,848,l),
(22,0,l)
);
}
);
};
layerId = "3D06B89B-468F-44E0-A3D7-A5BC6911123E";
shapes = (
{
closed = 1;
nodes = (
(80,0,l),
(154,396,l),
(218,744,l),
(186,744,l),
(42,0,l)
);
},
{
closed = 1;
nodes = (
(200,784,l),
(240,784,l),
(314,396,l),
(388,0,l),
(426,0,l),
(268,824,l),
(228,824,l),
(158,1220,l),
(90,1600,l),
(52,1600,l)
);
},
{
closed = 1;
nodes = (
(284,864,l),
(416,1600,l),
(378,1600,l),
(310,1220,l),
(250,864,l)
);
}
);
width = 468;
},
{
layerId = "EB6D3A46-95FC-4F29-8169-EF2A3FEDBD5C";
shapes = (
{
closed = 1;
nodes = (
(177,0,l),
(265,396,l),
(318,677,l),
(209,677,l),
(45,0,l)
);
},
{
closed = 1;
nodes = (
(241,747,l),
(383,747,l),
(443,396,l),
(525,0,l),
(657,0,l),
(468,870,l),
(321,870,l),
(263,1222,l),
(186,1600,l),
(54,1600,l)
);
},
{
closed = 1;
nodes = (
(502,939,l),
(648,1600,l),
(516,1600,l),
(436,1222,l),
(387,939,l)
);
}
);
width = 702;
},
{
layerId = "C388322D-F001-4130-A10A-708FB59AF746";
shapes = (
{
closed = 1;
nodes = (
(152,0,l),
(235,396,l),
(288,713,l),
(206,713,l),
(50,0,l)
);
},
{
closed = 1;
nodes = (
(248,760,l),
(321,760,l),
(383,396,l),
(465,0,l),
(567,0,l),
(380,856,l),
(302,856,l),
(243,1222,l),
(166,1600,l),
(64,1600,l)
);
},
{
closed = 1;
nodes = (
(422,904,l),
(563,1600,l),
(461,1600,l),
(385,1222,l),
(336,904,l)
);
}
);
width = 617;
}
);
unicode = 88;
},
{
glyphname = Y;
kernLeft = Y;
kernRight = Y;
layers = (
{
anchors = (
{
name = bottom;
pos = (314,0);
},
{
name = top;
pos = (314,1600);
},
{
name = topleft;
pos = (80,1600);
}
);
layerId = "3B122060-26E0-4730-9241-82784E6CB359";
shapes = (
{
closed = 1;
nodes = (
(354,0,l),
(354,580,l),
(416,580,l),
(428,662,l),
(282,662,l),
(216,1112,l),
(144,1600,l),
(60,1600,l),
(212,580,l),
(274,580,l),
(274,0,l)
);
},
{
closed = 1;
nodes = (
(440,724,l),
(572,1600,l),
(488,1600,l),
(416,1112,l),
(358,724,l)
);
}
);
width = 632;
},
{
anchors = (
{
name = bottom;
pos = (466,0);
},
{
name = top;
pos = (466,1600);
},
{
name = topleft;
pos = (14,1600);
}
);
layerId = "1DFA7D5B-2E97-4B89-827F-FB43F8066DC1";
shapes = (
{
closed = 1;
nodes = (
(614,0,l),
(614,510,l),
(644,510,l),
(701,742,l),
(436,742,l),
(406,1212,l),
(320,1600,l),
(14,1600,l),
(282,510,l),
(314,510,l),
(314,0,l)
);
},
{
closed = 1;
nodes = (
(740,834,l),
(954,1600,l),
(648,1600,l),
(562,1212,l),
(540,834,l)
);
}
);
width = 968;
},
{
anchors = (
{
name = bottom;
pos = (467,0);
},
{
name = top;
pos = (455,1600);
},
{
name = topleft;
pos = (15,1600);
}
);
layerId = "5013C991-8699-46CB-BB1C-82E334DBD38B";
shapes = (
{
closed = 1;
nodes = (
(615,0,l),
(615,382,l),
(615,384,l),
(703,742,l),
(437,742,l),
(407,1212,l),
(321,1600,l),
(15,1600,l),
(315,384,l),
(315,382,l),
(315,0,l)
);
},
{
closed = 1;
nodes = (
(727,812,l),
(927,1600,l),
(621,1600,l),
(535,1212,l),
(499,812,l)
);
}
);
width = 942;
},
{
anchors = (
{
name = bottom;
pos = (244,0);
},
{
name = top;
pos = (244,1600);
},
{
name = topleft;
pos = (50,1600);
}
);
layerId = "3D06B89B-468F-44E0-A3D7-A5BC6911123E";
shapes = (
{
closed = 1;
nodes = (
(264,0,l),
(264,438,l),
(264,440,l),
(297,662,l),
(230,662,l),
(164,1112,l),
(92,1600,l),
(50,1600,l),
(224,440,l),
(224,438,l),
(224,0,l)
);
},
{
closed = 1;
nodes = (
(308,702,l),
(442,1600,l),
(402,1600,l),
(330,1112,l),
(270,702,l)
);
}
);
width = 492;
},
{
anchors = (
{
name = bottom;
pos = (349,0);
},
{
name = top;
pos = (349,1600);
},
{
name = topleft;
pos = (61,1600);
}
);
layerId = "EB6D3A46-95FC-4F29-8169-EF2A3FEDBD5C";
shapes = (
{
closed = 1;
nodes = (
(415,0,l),
(415,562,l),
(469,562,l),
(493,682,l),
(325,682,l),
(253,1138,l),
(185,1600,l),
(45,1600,l),
(227,562,l),
(281,562,l),
(281,0,l)
);
},
{
closed = 1;
nodes = (
(507,754,l),
(651,1600,l),
(511,1600,l),
(445,1138,l),
(387,754,l)
);
}
);
width = 696;
},
{
anchors = (
{
name = bottom;
pos = (303,0);
},
{
name = top;
pos = (299,1600);
},
{
name = topleft;
pos = (45,1600);
}
);
layerId = "C388322D-F001-4130-A10A-708FB59AF746";
shapes = (
{
closed = 1;
nodes = (
(355,0,l),
(355,424,l),
(355,426,l),
(401,682,l),
(297,682,l),
(223,1138,l),
(153,1600,l),
(45,1600,l),
(249,426,l),
(249,424,l),
(249,0,l)
);
},
{
closed = 1;
nodes = (
(429,746,l),
(581,1600,l),
(471,1600,l),
(401,1138,l),
(341,748,l)
);
}
);
width = 626;
}
);
unicode = 89;
},
{
glyphname = Z;
kernLeft = Z;
kernRight = Z;
layers = (
{
anchors = (
{
name = bottom;
pos = (250,0);
},
{
name = center;
pos = (250,800);
},
{
name = top;
pos = (276,1600);
}
);
layerId = "3B122060-26E0-4730-9241-82784E6CB359";
shapes = (
{
closed = 1;
nodes = (
(448,0,l),
(448,76,l),
(50,76,l),
(50,0,l)
);
},
{
closed = 1;
nodes = (
(488,1524,l),
(488,1600,l),
(72,1600,l),
(72,1524,l)
);
},
{
closed = 1;
nodes = (
(152,138,l),
(468,1462,l),
(386,1462,l),
(70,138,l)
);
}
);
width = 538;
},
{
anchors = (
{
name = bottom;
pos = (408,0);
},
{
name = center;
pos = (408,800);
},
{
name = top;
pos = (440,1600);
}
);
layerId = "1DFA7D5B-2E97-4B89-827F-FB43F8066DC1";
shapes = (
{
closed = 1;
nodes = (
(806,0,l),
(806,264,l),
(30,264,l),
(30,0,l)
);
},
{
closed = 1;
nodes = (
(836,1336,l),
(836,1600,l),
(54,1600,l),
(54,1336,l)
);
},
{
closed = 1;
nodes = (
(376,356,l),
(790,1244,l),
(476,1244,l),
(76,356,l)
);
}
);
width = 866;
},
{
anchors = (
{
name = bottom;
pos = (413,0);
},
{
name = center;
pos = (413,800);
},
{
name = top;
pos = (413,1600);
}
);
layerId = "5013C991-8699-46CB-BB1C-82E334DBD38B";
shapes = (
{
closed = 1;
nodes = (
(771,0,l),
(771,264,l),
(35,264,l),
(35,0,l)
);
},
{
closed = 1;
nodes = (
(801,1336,l),
(801,1600,l),
(59,1600,l),
(59,1336,l)
);
},
{
closed = 1;
nodes = (
(369,334,l),
(765,1266,l),
(449,1266,l),
(71,334,l)
);
}
);
width = 836;
},
{
anchors = (
{
name = bottom;
pos = (240,0);
},
{
name = center;
pos = (240,800);
},
{
name = top;
pos = (240,1600);
}
);
layerId = "3D06B89B-468F-44E0-A3D7-A5BC6911123E";
shapes = (
{
closed = 1;
nodes = (
(398,0,l),
(398,40,l),
(40,40,l),
(40,0,l)
);
},
{
closed = 1;
nodes = (
(438,1560,l),
(438,1600,l),
(62,1600,l),
(62,1560,l)
);
},
{
closed = 1;
nodes = (
(98,80,l),
(422,1520,l),
(378,1520,l),
(56,80,l)
);
}
);
width = 478;
},
{
anchors = (
{
name = bottom;
pos = (282,0);
},
{
name = center;
pos = (282,800);
},
{
name = top;
pos = (309,1600);
}
);
layerId = "EB6D3A46-95FC-4F29-8169-EF2A3FEDBD5C";
shapes = (
{
closed = 1;
nodes = (
(530,0,l),
(530,123,l),
(37,123,l),
(37,0,l)
);
},
{
closed = 1;
nodes = (
(567,1477,l),
(567,1600,l),
(60,1600,l),
(60,1477,l)
);
},
{
closed = 1;
nodes = (
(200,193,l),
(541,1408,l),
(401,1408,l),
(64,193,l)
);
}
);
width = 604;
},
{
anchors = (
{
name = bottom;
pos = (277,0);
},
{
name = center;
pos = (277,800);
},
{
name = top;
pos = (277,1600);
}
);
layerId = "C388322D-F001-4130-A10A-708FB59AF746";
shapes = (
{
closed = 1;
nodes = (
(485,0,l),
(485,96,l),
(32,96,l),
(32,0,l)
);
},
{
closed = 1;
nodes = (
(522,1504,l),
(522,1600,l),
(55,1600,l),
(55,1504,l)
);
},
{
closed = 1;
nodes = (
(159,144,l),
(501,1457,l),
(389,1457,l),
(53,144,l)
);
}
);
width = 557;
}
);
unicode = 90;
},
{
glyphname = R.ss01;
kernLeft = H;
kernRight = R;
layers = (
{
anchors = (
{
name = bottom;
pos = (350,0);
},
{
name = top;
pos = (330,1600);
}
);
layerId = "3B122060-26E0-4730-9241-82784E6CB359";
shapes = (
{
closed = 1;
nodes = (
(220,0,l),
(220,1600,l),
(140,1600,l),
(140,0,l)
);
},
{
closed = 1;
nodes = (
(558,0,l),
(560,230,o),
(558,398,o),
(556,588,cs),
(554,690,o),
(516,740,o),
(430,752,c),
(430,760,l),
(512,774,o),
(548,824,o),
(552,924,cs),
(558,1066,o),
(558,1206,o),
(552,1414,cs),
(548,1546,o),
(482,1600,o),
(320,1600,cs),
(312,1600,l),
(312,1520,l),
(320,1520,ls),
(436,1520,o),
(468,1498,o),
(472,1414,cs),
(478,1238,o),
(478,1096,o),
(472,920,cs),
(468,820,o),
(438,792,o),
(338,792,cs),
(312,792,l),
(312,716,l),
(344,716,ls),
(446,716,o),
(474,688,o),
(476,588,cs),
(480,400,o),
(480,232,o),
(478,0,c)
);
}
);
width = 698;
},
{
anchors = (
{
name = bottom;
pos = (508,0);
},
{
name = top;
pos = (492,1600);
}
);
background = {
shapes = (
{
closed = 1;
nodes = (
(530,1310,o),
(576,1270,o),
(576,1200,cs),
(576,1010,ls),
(576,926,o),
(530,880,o),
(446,880,cs),
(266,880,l),
(266,726,l),
(446,728,ls),
(746,732,o),
(868,822,o),
(876,1066,cs),
(878,1124,o),
(878,1150,o),
(876,1210,cs),
(866,1488,o),
(742,1600,o),
(446,1600,cs),
(274,1600,l),
(274,1310,l),
(446,1310,ls)
);
},
{
closed = 1;
nodes = (
(360,0,l),
(360,1600,l),
(60,1600,l),
(60,0,l)
);
},
{
closed = 1;
nodes = (
(924,18,l),
(898,54,o),
(876,130,o),
(874,176,cs),
(868,430,ls),
(862,686,o),
(744,788,o),
(454,788,cs),
(266,788,l),
(266,620,l),
(442,620,ls),
(524,620,o),
(566,568,o),
(568,476,cs),
(574,176,ls),
(576,106,o),
(602,44,o),
(646,0,c),
(924,0,l)
);
},
{
closed = 1;
nodes = (
(614,734,l),
(678,734,l),
(678,782,l),
(614,782,l)
);
}
);
};
layerId = "1DFA7D5B-2E97-4B89-827F-FB43F8066DC1";
shapes = (
{
closed = 1;
nodes = (
(380,0,l),
(380,1600,l),
(80,1600,l),
(80,0,l)
);
},
{
closed = 1;
nodes = (
(950,0,l),
(952,138,o),
(948,290,o),
(942,428,cs),
(934,592,o),
(872,678,o),
(726,714,c),
(726,760,l),
(874,798,o),
(938,886,o),
(944,1044,cs),
(946,1102,o),
(946,1150,o),
(944,1210,cs),
(934,1488,o),
(812,1600,o),
(514,1600,cs),
(512,1600,l),
(512,1336,l),
(514,1336,ls),
(598,1336,o),
(644,1296,o),
(644,1226,cs),
(644,1154,o),
(644,1082,o),
(644,1010,cs),
(644,926,o),
(598,880,o),
(514,880,cs),
(512,880,l),
(512,614,l),
(514,614,ls),
(596,614,o),
(638,562,o),
(642,470,cs),
(648,322,o),
(652,148,o),
(650,0,c)
);
}
);
width = 1030;
},
{
anchors = (
{
name = bottom;
pos = (512,0);
},
{
name = top;
pos = (472,1600);
}
);
background = {
shapes = (
{
closed = 1;
nodes = (
(530,1310,o),
(576,1270,o),
(576,1200,cs),
(576,1010,ls),
(576,926,o),
(530,880,o),
(446,880,cs),
(266,880,l),
(266,726,l),
(446,728,ls),
(746,732,o),
(868,822,o),
(876,1066,cs),
(878,1124,o),
(878,1150,o),
(876,1210,cs),
(866,1488,o),
(742,1600,o),
(446,1600,cs),
(274,1600,l),
(274,1310,l),
(446,1310,ls)
);
},
{
closed = 1;
nodes = (
(360,0,l),
(360,1600,l),
(60,1600,l),
(60,0,l)
);
},
{
closed = 1;
nodes = (
(924,18,l),
(898,54,o),
(876,130,o),
(874,176,cs),
(868,430,ls),
(862,686,o),
(744,788,o),
(454,788,cs),
(266,788,l),
(266,620,l),
(442,620,ls),
(524,620,o),
(566,568,o),
(568,476,cs),
(574,176,ls),
(576,106,o),
(602,44,o),
(646,0,c),
(924,0,l)
);
},
{
closed = 1;
nodes = (
(614,734,l),
(678,734,l),
(678,782,l),
(614,782,l)
);
}
);
};
layerId = "5013C991-8699-46CB-BB1C-82E334DBD38B";
shapes = (
{
closed = 1;
nodes = (
(380,0,l),
(380,1600,l),
(80,1600,l),
(80,0,l)
);
},
{
closed = 1;
nodes = (
(922,0,l),
(924,138,o),
(920,290,o),
(914,428,cs),
(906,592,o),
(844,678,o),
(698,714,c),
(698,760,l),
(846,798,o),
(910,886,o),
(916,1044,cs),
(918,1102,o),
(918,1150,o),
(916,1210,cs),
(906,1488,o),
(784,1600,o),
(486,1600,cs),
(480,1600,l),
(480,1336,l),
(486,1336,ls),
(570,1336,o),
(616,1296,o),
(616,1226,cs),
(616,1154,o),
(616,1082,o),
(616,1010,cs),
(616,926,o),
(570,880,o),
(486,880,cs),
(480,880,l),
(480,614,l),
(482,614,ls),
(564,614,o),
(610,562,o),
(614,470,cs),
(620,322,o),
(624,148,o),
(622,0,c)
);
}
);
width = 1002;
},
{
anchors = (
{
name = bottom;
pos = (294,0);
},
{
name = top;
pos = (280,1600);
}
);
layerId = "3D06B89B-468F-44E0-A3D7-A5BC6911123E";
shapes = (
{
closed = 1;
nodes = (
(160,0,l),
(160,1600,l),
(120,1600,l),
(120,0,l)
);
},
{
closed = 1;
nodes = (
(458,0,l),
(460,138,o),
(458,306,o),
(456,588,cs),
(454,676,o),
(428,722,o),
(370,742,c),
(370,770,l),
(424,790,o),
(450,838,o),
(452,924,cs),
(458,1066,o),
(458,1206,o),
(452,1414,cs),
(448,1546,o),
(398,1600,o),
(280,1600,cs),
(240,1600,l),
(240,1560,l),
(280,1560,ls),
(370,1560,o),
(408,1518,o),
(412,1414,cs),
(418,1238,o),
(418,1096,o),
(412,920,cs),
(408,816,o),
(370,774,o),
(278,774,cs),
(240,774,l),
(240,734,l),
(284,734,ls),
(376,734,o),
(414,692,o),
(416,588,cs),
(420,400,o),
(420,232,o),
(418,0,c)
);
}
);
width = 578;
},
{
anchors = (
{
name = bottom;
pos = (390,0);
},
{
name = top;
pos = (371,1600);
}
);
layerId = "EB6D3A46-95FC-4F29-8169-EF2A3FEDBD5C";
shapes = (
{
closed = 1;
nodes = (
(260,0,l),
(260,1600,l),
(125,1600,l),
(125,0,l)
);
},
{
closed = 1;
nodes = (
(656,0,l),
(658,207,o),
(656,371,o),
(653,548,cs),
(649,666,o),
(605,725,o),
(504,743,c),
(504,760,l),
(603,780,o),
(646,840,o),
(650,954,cs),
(655,1075,o),
(655,1192,o),
(650,1363,cs),
(645,1532,o),
(565,1600,o),
(369,1600,cs),
(362,1600,l),
(362,1474,l),
(369,1474,ls),
(477,1474,o),
(512,1448,o),
(515,1367,cs),
(520,1217,o),
(520,1093,o),
(515,943,cs),
(512,847,o),
(478,814,o),
(382,814,cs),
(362,814,l),
(362,691,l),
(387,691,ls),
(484,691,o),
(515,657,o),
(518,559,cs),
(522,381,o),
(523,211,o),
(521,0,c)
);
}
);
width = 781;
},
{
anchors = (
{
name = bottom;
pos = (349,0);
},
{
name = top;
pos = (328,1600);
}
);
layerId = "C388322D-F001-4130-A10A-708FB59AF746";
shapes = (
{
closed = 1;
nodes = (
(215,0,l),
(215,1600,l),
(110,1600,l),
(110,0,l)
);
},
{
closed = 1;
nodes = (
(574,0,l),
(576,138,o),
(574,302,o),
(571,548,cs),
(567,655,o),
(532,711,o),
(452,735,c),
(452,768,l),
(530,792,o),
(565,850,o),
(568,954,cs),
(573,1075,o),
(573,1192,o),
(568,1363,cs),
(563,1532,o),
(495,1600,o),
(332,1600,cs),
(300,1600,l),
(300,1504,l),
(332,1504,ls),
(420,1504,o),
(460,1463,o),
(463,1367,cs),
(468,1217,o),
(468,1093,o),
(463,943,cs),
(460,844,o),
(420,801,o),
(330,801,cs),
(300,801,l),
(300,704,l),
(334,704,ls),
(423,704,o),
(463,660,o),
(466,559,cs),
(470,381,o),
(471,211,o),
(469,0,c)
);
}
);
width = 684;
}
);
},
{
glyphname = C_H_I_R_E_C_T;
layers = (
{
layerId = "3B122060-26E0-4730-9241-82784E6CB359";
shapes = (
{
closed = 1;
nodes = (
(2196,0,l),
(2196,1600,l),
(140,1600,l),
(140,0,l)
);
}
);
width = 2336;
},
{
layerId = "1DFA7D5B-2E97-4B89-827F-FB43F8066DC1";
shapes = (
{
closed = 1;
nodes = (
(2136,0,l),
(2136,1600,l),
(80,1600,l),
(80,0,l)
);
}
);
width = 2216;
},
{
layerId = "3D06B89B-468F-44E0-A3D7-A5BC6911123E";
shapes = (
{
closed = 1;
nodes = (
(2196,0,l),
(2196,1600,l),
(140,1600,l),
(140,0,l)
);
}
);
width = 2336;
},
{
layerId = "5013C991-8699-46CB-BB1C-82E334DBD38B";
shapes = (
{
closed = 1;
nodes = (
(2136,0,l),
(2136,1600,l),
(80,1600,l),
(80,0,l)
);
}
);
width = 2216;
},
{
layerId = "EB6D3A46-95FC-4F29-8169-EF2A3FEDBD5C";
shapes = (
{
closed = 1;
nodes = (
(2181,0,l),
(2181,1600,l),
(125,1600,l),
(125,0,l)
);
}
);
width = 2306;
},
{
layerId = "C388322D-F001-4130-A10A-708FB59AF746";
shapes = (
{
closed = 1;
nodes = (
(2181,0,l),
(2181,1600,l),
(125,1600,l),
(125,0,l)
);
}
);
width = 2306;
}
);
},
{
glyphname = C_H_I_S_T_A_R;
kernLeft = bullet;
kernRight = bullet;
layers = (
{
layerId = "3B122060-26E0-4730-9241-82784E6CB359";
shapes = (
{
closed = 1;
nodes = (
(1038,534,l),
(1630,370,l),
(1192,800,l),
(1630,1230,l),
(1038,1066,l),
(884,1660,l),
(732,1066,l),
(140,1230,l),
(578,800,l),
(140,370,l),
(732,534,l),
(884,-60,l)
);
}
);
width = 1770;
},
{
layerId = "1DFA7D5B-2E97-4B89-827F-FB43F8066DC1";
shapes = (
{
closed = 1;
nodes = (
(1038,534,l),
(1630,370,l),
(1192,800,l),
(1630,1230,l),
(1038,1066,l),
(884,1660,l),
(732,1066,l),
(140,1230,l),
(578,800,l),
(140,370,l),
(732,534,l),
(884,-60,l)
);
}
);
width = 1770;
},
{
layerId = "5013C991-8699-46CB-BB1C-82E334DBD38B";
shapes = (
{
closed = 1;
nodes = (
(1038,534,l),
(1630,370,l),
(1192,800,l),
(1630,1230,l),
(1038,1066,l),
(884,1660,l),
(732,1066,l),
(140,1230,l),
(578,800,l),
(140,370,l),
(732,534,l),
(884,-60,l)
);
}
);
width = 1770;
},
{
layerId = "3D06B89B-468F-44E0-A3D7-A5BC6911123E";
shapes = (
{
closed = 1;
nodes = (
(1038,534,l),
(1630,370,l),
(1192,800,l),
(1630,1230,l),
(1038,1066,l),
(884,1660,l),
(732,1066,l),
(140,1230,l),
(578,800,l),
(140,370,l),
(732,534,l),
(884,-60,l)
);
}
);
width = 1770;
},
{
layerId = "EB6D3A46-95FC-4F29-8169-EF2A3FEDBD5C";
shapes = (
{
closed = 1;
nodes = (
(1038,534,l),
(1630,370,l),
(1192,800,l),
(1630,1230,l),
(1038,1066,l),
(884,1660,l),
(732,1066,l),
(140,1230,l),
(578,800,l),
(140,370,l),
(732,534,l),
(884,-60,l)
);
}
);
width = 1770;
},
{
layerId = "C388322D-F001-4130-A10A-708FB59AF746";
shapes = (
{
closed = 1;
nodes = (
(1038,534,l),
(1630,370,l),
(1192,800,l),
(1630,1230,l),
(1038,1066,l),
(884,1660,l),
(732,1066,l),
(140,1230,l),
(578,800,l),
(140,370,l),
(732,534,l),
(884,-60,l)
);
}
);
width = 1770;
}
);
},
{
glyphname = a;
kernLeft = a;
kernRight = n;
layers = (
{
anchors = (
{
name = bottom;
pos = (347,0);
},
{
name = ogonek;
pos = (493,0);
},
{
name = top;
pos = (323,1200);
}
);
background = {
shapes = (
{
closed = 1;
nodes = (
(363,-10,l),
(455,8,l),
(455,252,l),
(363,252,l)
);
}
);
};
layerId = "3B122060-26E0-4730-9241-82784E6CB359";
shapes = (
{
closed = 1;
nodes = (
(87,64,o),
(155,-10,o),
(281,-10,cs),
(315,-10,o),
(341,-4,o),
(363,6,c),
(363,70,l),
(341,60,o),
(317,56,o),
(289,56,cs),
(213,56,o),
(165,112,o),
(159,198,cs),
(157,224,o),
(157,262,o),
(157,300,cs),
(157,394,o),
(181,488,o),
(269,550,cs),
(305,576,o),
(335,596,o),
(363,610,c),
(363,678,l),
(327,660,o),
(291,640,o),
(263,622,cs),
(119,534,o),
(83,434,o),
(77,302,cs),
(75,260,o),
(77,234,o),
(79,194,c)
);
},
{
closed = 1;
nodes = (
(173,808,l),
(171,860,o),
(169,938,o),
(173,1018,cs),
(176,1098,o),
(217,1132,o),
(279,1141,c),
(279,1210,l),
(148,1198,o),
(98,1132,o),
(93,1004,cs),
(91,948,o),
(91,886,o),
(95,808,c)
);
},
{
closed = 1;
nodes = (
(535,0,l),
(535,998,ls),
(535,1132,o),
(495,1198,o),
(371,1210,c),
(371,1140,l),
(433,1126,o),
(455,1086,o),
(455,1008,cs),
(455,0,l)
);
}
);
width = 653;
},
{
anchors = (
{
name = bottom;
pos = (487,0);
},
{
name = ogonek;
pos = (695,0);
},
{
name = top;
pos = (509,1200);
}
);
background = {
shapes = (
{
closed = 1;
nodes = (
(851,0,l),
(853,262,o),
(857,666,o),
(847,824,cs),
(831,1110,o),
(737,1220,o),
(435,1220,cs),
(327,1220,o),
(137,1206,o),
(105,1200,c),
(105,974,l),
(181,974,o),
(363,974,o),
(439,974,cs),
(517,974,o),
(547,938,o),
(549,874,cs),
(559,562,o),
(553,292,o),
(551,0,c)
);
},
{
closed = 1;
nodes = (
(407,-16,o),
(451,22,o),
(513,130,c),
(573,130,l),
(573,284,l),
(553,284,l),
(529,232,o),
(477,198,o),
(423,198,cs),
(361,198,o),
(331,232,o),
(331,296,cs),
(331,328,o),
(331,442,o),
(331,464,cs),
(331,518,o),
(337,564,o),
(413,584,cs),
(475,600,o),
(579,602,o),
(603,602,c),
(595,792,l),
(505,788,o),
(421,780,o),
(335,764,cs),
(105,720,o),
(31,620,o),
(31,420,cs),
(31,392,o),
(31,346,o),
(31,318,cs),
(31,96,o),
(139,-16,o),
(307,-16,cs)
);
}
);
};
layerId = "1DFA7D5B-2E97-4B89-827F-FB43F8066DC1";
shapes = (
{
closed = 1;
nodes = (
(73,60,o),
(157,-16,o),
(345,-16,cs),
(407,-16,o),
(452,-4,o),
(487,23,c),
(487,199,l),
(482,198,o),
(476,198,o),
(471,198,cs),
(401,198,o),
(363,232,o),
(357,296,cs),
(355,324,o),
(355,326,o),
(357,360,cs),
(361,420,o),
(375,478,o),
(459,510,cs),
(468,513,o),
(477,517,o),
(487,520,c),
(487,712,l),
(453,703,o),
(420,694,o),
(383,682,cs),
(151,604,o),
(69,524,o),
(55,360,cs),
(53,340,o),
(53,296,o),
(55,274,c)
);
},
{
closed = 1;
nodes = (
(387,738,l),
(385,750,o),
(385,884,o),
(387,906,cs),
(390,950,o),
(407,976,o),
(441,988,c),
(441,1218,l),
(189,1203,o),
(104,1096,o),
(95,872,cs),
(93,818,o),
(95,754,o),
(97,738,c)
);
},
{
closed = 1;
nodes = (
(911,0,l),
(913,824,ls),
(914,1084,o),
(831,1202,o),
(573,1218,c),
(573,981,l),
(604,966,o),
(619,936,o),
(619,892,cs),
(619,0,l)
);
}
);
width = 1003;
},
{
anchors = (
{
name = bottom;
pos = (463,0);
},
{
name = ogonek;
pos = (651,0);
},
{
name = top;
pos = (483,1200);
}
);
background = {
shapes = (
{
closed = 1;
nodes = (
(851,0,l),
(853,262,o),
(857,666,o),
(847,824,cs),
(831,1110,o),
(737,1220,o),
(435,1220,cs),
(327,1220,o),
(137,1206,o),
(105,1200,c),
(105,974,l),
(181,974,o),
(363,974,o),
(439,974,cs),
(517,974,o),
(547,938,o),
(549,874,cs),
(559,562,o),
(553,292,o),
(551,0,c)
);
},
{
closed = 1;
nodes = (
(407,-16,o),
(451,22,o),
(513,130,c),
(573,130,l),
(573,284,l),
(553,284,l),
(529,232,o),
(477,198,o),
(423,198,cs),
(361,198,o),
(331,232,o),
(331,296,cs),
(331,328,o),
(331,442,o),
(331,464,cs),
(331,518,o),
(337,564,o),
(413,584,cs),
(475,600,o),
(579,602,o),
(603,602,c),
(595,792,l),
(505,788,o),
(421,780,o),
(335,764,cs),
(105,720,o),
(31,620,o),
(31,420,cs),
(31,392,o),
(31,346,o),
(31,318,cs),
(31,96,o),
(139,-16,o),
(307,-16,cs)
);
}
);
};
layerId = "5013C991-8699-46CB-BB1C-82E334DBD38B";
shapes = (
{
closed = 1;
nodes = (
(73,60,o),
(149,-16,o),
(327,-16,cs),
(393,-16,o),
(439,1,o),
(475,39,c),
(475,200,l),
(468,199,o),
(461,198,o),
(453,198,cs),
(391,198,o),
(357,232,o),
(351,296,cs),
(349,316,o),
(349,334,o),
(351,360,cs),
(355,424,o),
(373,478,o),
(443,510,cs),
(453,514,o),
(464,519,o),
(475,523,c),
(475,717,l),
(439,707,o),
(403,696,o),
(365,682,cs),
(149,604,o),
(69,524,o),
(55,360,cs),
(53,336,o),
(53,296,o),
(55,272,c)
);
},
{
closed = 1;
nodes = (
(387,738,l),
(385,774,o),
(385,878,o),
(387,906,cs),
(390,954,o),
(402,980,o),
(435,991,c),
(435,1219,l),
(188,1207,o),
(102,1099,o),
(93,872,cs),
(91,828,o),
(93,752,o),
(95,738,c)
);
},
{
closed = 1;
nodes = (
(871,0,l),
(873,824,ls),
(874,1088,o),
(792,1206,o),
(535,1219,c),
(535,985,l),
(565,970,o),
(575,940,o),
(575,896,cs),
(575,0,l)
);
}
);
width = 951;
},
{
anchors = (
{
name = bottom;
pos = (262,0);
},
{
name = ogonek;
pos = (404,0);
},
{
name = top;
pos = (262,1200);
}
);
background = {
shapes = (
{
closed = 0;
nodes = (
(54,358,ls),
(54,518,o),
(94,586,o),
(190,622,cs)
);
},
{
closed = 0;
nodes = (
(194,578,ls),
(106,544,o),
(100,442,o),
(96,358,cs)
);
},
{
closed = 0;
nodes = (
(58,170,ls),
(60,42,o),
(108,-10,o),
(234,-10,cs)
);
},
{
closed = 0;
nodes = (
(234,30,ls),
(138,30,o),
(100,60,o),
(98,170,cs)
);
}
);
};
layerId = "3D06B89B-468F-44E0-A3D7-A5BC6911123E";
shapes = (
{
closed = 1;
nodes = (
(86,64,o),
(134,-10,o),
(236,-10,cs),
(263,-10,o),
(286,-5,o),
(304,5,c),
(304,46,l),
(285,35,o),
(262,30,o),
(236,30,cs),
(170,30,o),
(126,84,o),
(120,180,cs),
(118,222,o),
(118,268,o),
(118,290,cs),
(122,396,o),
(138,490,o),
(220,560,cs),
(253,587,o),
(280,608,o),
(304,625,c),
(304,670,l),
(274,650,o),
(246,629,o),
(220,610,cs),
(108,522,o),
(82,418,o),
(78,290,cs),
(76,252,o),
(78,220,o),
(80,180,c)
);
},
{
closed = 1;
nodes = (
(128,820,l),
(126,892,o),
(126,970,o),
(128,1028,cs),
(132,1122,o),
(164,1158,o),
(222,1168,c),
(222,1208,l),
(134,1196,o),
(92,1142,o),
(88,1028,cs),
(86,970,o),
(88,892,o),
(90,820,c)
);
},
{
closed = 1;
nodes = (
(424,0,l),
(424,1028,ls),
(424,1140,o),
(392,1196,o),
(302,1208,c),
(302,1166,l),
(362,1154,o),
(384,1112,o),
(384,1028,cs),
(384,0,l)
);
}
);
width = 540;
},
{
anchors = (
{
name = bottom;
pos = (386,0);
},
{
name = ogonek;
pos = (549,0);
},
{
name = top;
pos = (374,1200);
}
);
layerId = "EB6D3A46-95FC-4F29-8169-EF2A3FEDBD5C";
shapes = (
{
closed = 1;
nodes = (
(88,63,o),
(160,-12,o),
(301,-12,cs),
(342,-12,o),
(373,-4,o),
(398,10,c),
(398,102,l),
(380,95,o),
(361,92,o),
(339,92,cs),
(264,92,o),
(219,142,o),
(213,223,cs),
(211,249,o),
(211,278,o),
(211,315,cs),
(212,401,o),
(234,486,o),
(321,540,cs),
(350,560,o),
(375,576,o),
(398,588,c),
(398,687,l),
(362,671,o),
(327,653,o),
(297,637,cs),
(131,552,o),
(84,457,o),
(76,317,cs),
(74,280,o),
(75,250,o),
(77,214,c)
);
},
{
closed = 1;
nodes = (
(231,791,l),
(229,833,o),
(227,925,o),
(231,990,cs),
(234,1061,o),
(268,1093,o),
(324,1103,c),
(324,1212,l),
(162,1199,o),
(104,1123,o),
(98,971,cs),
(96,916,o),
(96,853,o),
(100,791,c)
);
},
{
closed = 1;
nodes = (
(633,0,l),
(634,955,ls),
(634,1120,o),
(583,1199,o),
(426,1212,c),
(426,1100,l),
(480,1086,o),
(500,1049,o),
(500,979,cs),
(500,0,l)
);
}
);
width = 742;
},
{
anchors = (
{
name = bottom;
pos = (321,0);
},
{
name = ogonek;
pos = (474,0);
},
{
name = top;
pos = (326,1200);
}
);
layerId = "C388322D-F001-4130-A10A-708FB59AF746";
shapes = (
{
closed = 1;
nodes = (
(91,63,o),
(146,-12,o),
(267,-12,cs),
(304,-12,o),
(332,-3,o),
(355,14,c),
(355,84,l),
(339,76,o),
(320,72,o),
(299,72,cs),
(234,72,o),
(192,121,o),
(186,209,cs),
(184,246,o),
(184,285,o),
(185,308,cs),
(189,403,o),
(205,487,o),
(284,548,cs),
(311,569,o),
(334,586,o),
(355,599,c),
(355,681,l),
(324,664,o),
(293,646,o),
(265,628,cs),
(127,543,o),
(87,445,o),
(81,308,cs),
(79,273,o),
(80,239,o),
(82,203,c)
);
},
{
closed = 1;
nodes = (
(201,800,l),
(199,863,o),
(199,947,o),
(201,998,cs),
(205,1080,o),
(232,1114,o),
(284,1124,c),
(284,1211,l),
(156,1199,o),
(103,1131,o),
(98,989,cs),
(96,935,o),
(98,857,o),
(100,800,c)
);
},
{
closed = 1;
nodes = (
(544,0,l),
(545,977,ls),
(545,1127,o),
(500,1198,o),
(369,1211,c),
(369,1121,l),
(421,1108,o),
(440,1069,o),
(440,995,cs),
(440,0,l)
);
}
);
width = 653;
}
);
metricRight = n;
unicode = 97;
},
{
glyphname = ae;
kernLeft = a;
kernRight = e;
layers = (
{
anchors = (
{
name = top;
pos = (479,1200);
}
);
background = {
shapes = (
{
closed = 1;
nodes = (
(299,-10,o),
(337,34,o),
(357,94,c),
(383,94,l),
(383,172,l),
(373,172,l),
(347,76,o),
(299,30,o),
(221,30,cs),
(155,30,o),
(111,84,o),
(105,180,cs),
(103,222,o),
(103,268,o),
(103,290,cs),
(107,396,o),
(123,490,o),
(205,560,cs),
(293,634,o),
(341,660,o),
(393,686,c),
(393,734,l),
(329,698,o),
(259,652,o),
(205,610,cs),
(93,522,o),
(67,418,o),
(63,290,cs),
(61,252,o),
(63,220,o),
(65,180,cs),
(71,64,o),
(119,-10,o),
(221,-10,cs)
);
}
);
};
layerId = "3B122060-26E0-4730-9241-82784E6CB359";
shapes = (
{
closed = 1;
nodes = (
(157,808,l),
(153,868,o),
(155,972,o),
(157,1010,cs),
(161,1094,o),
(193,1130,o),
(249,1140,c),
(249,1210,l),
(133,1198,o),
(83,1134,o),
(79,1012,cs),
(77,932,o),
(77,886,o),
(79,808,c)
);
},
{
closed = 1;
nodes = (
(605,58,l),
(537,68,o),
(505,102,o),
(505,190,cs),
(505,1010,ls),
(505,1090,o),
(537,1130,o),
(605,1140,c),
(605,1210,l),
(541,1204,o),
(495,1184,o),
(467,1150,c),
(443,1182,o),
(403,1204,o),
(341,1210,c),
(341,1140,l),
(405,1124,o),
(423,1078,o),
(423,1008,cs),
(425,244,l),
(419,118,o),
(361,68,o),
(293,58,c),
(293,-6,l),
(357,6,o),
(405,44,o),
(427,100,c),
(439,100,l),
(459,34,o),
(511,-2,o),
(605,-10,c)
);
},
{
closed = 1;
nodes = (
(865,600,l),
(873,798,o),
(869,960,o),
(867,1004,cs),
(861,1138,o),
(807,1198,o),
(697,1210,c),
(697,1140,l),
(757,1128,o),
(783,1088,o),
(787,1008,cs),
(791,946,o),
(791,812,o),
(787,666,c),
(597,666,l),
(597,600,l)
);
},
{
closed = 1;
nodes = (
(215,75,l),
(183,98,o),
(163,139,o),
(159,198,cs),
(155,248,o),
(157,278,o),
(157,300,cs),
(159,412,o),
(235,482,o),
(345,548,c),
(345,617,l),
(201,538,o),
(83,450,o),
(77,302,cs),
(75,260,o),
(77,236,o),
(79,192,cs),
(86,82,o),
(129,12,o),
(215,-6,c)
);
},
{
closed = 1;
nodes = (
(815,2,o),
(861,62,o),
(867,196,cs),
(869,238,o),
(869,336,o),
(865,394,c),
(785,394,l),
(789,316,o),
(789,246,o),
(787,190,cs),
(783,106,o),
(759,70,o),
(697,60,c),
(697,-10,l)
);
}
);
width = 960;
},
{
anchors = (
{
name = top;
pos = (713,1200);
}
);
background = {
shapes = (
{
closed = 1;
nodes = (
(395,-16,o),
(453,28,o),
(501,130,c),
(561,130,l),
(561,284,l),
(543,284,l),
(519,232,o),
(469,198,o),
(415,198,cs),
(353,198,o),
(319,232,o),
(313,296,cs),
(311,316,o),
(311,334,o),
(313,360,cs),
(317,424,o),
(335,478,o),
(405,510,cs),
(453,532,o),
(519,548,o),
(585,562,c),
(577,752,l),
(487,730,o),
(413,712,o),
(327,682,cs),
(111,604,o),
(31,524,o),
(17,360,cs),
(15,336,o),
(15,296,o),
(17,272,cs),
(35,60,o),
(111,-16,o),
(289,-16,cs)
);
}
);
};
layerId = "1DFA7D5B-2E97-4B89-827F-FB43F8066DC1";
shapes = (
{
closed = 1;
nodes = (
(353,738,l),
(351,774,o),
(351,864,o),
(353,906,cs),
(355,948,o),
(365,974,o),
(393,986,c),
(393,1218,l),
(151,1202,o),
(65,1094,o),
(55,872,cs),
(53,836,o),
(55,750,o),
(57,738,c)
);
},
{
closed = 1;
nodes = (
(905,214,l),
(871,228,o),
(853,256,o),
(853,304,cs),
(853,906,ls),
(853,948,o),
(869,974,o),
(901,986,c),
(901,1218,l),
(825,1212,o),
(763,1198,o),
(711,1172,c),
(665,1198,o),
(605,1212,o),
(525,1218,c),
(525,978,l),
(549,958,o),
(555,928,o),
(555,896,cs),
(555,402,l),
(549,278,o),
(515,228,o),
(479,210,c),
(479,12,l),
(521,34,o),
(551,72,o),
(579,130,c),
(603,130,l),
(657,38,o),
(757,-8,o),
(905,-18,c)
);
},
{
closed = 1;
nodes = (
(1367,550,l),
(1373,662,o),
(1371,824,o),
(1369,872,cs),
(1359,1100,o),
(1259,1202,o),
(1033,1218,c),
(1033,984,l),
(1057,970,o),
(1069,946,o),
(1071,908,cs),
(1071,890,o),
(1073,826,o),
(1073,756,c),
(985,756,l),
(985,550,l)
);
},
{
closed = 1;
nodes = (
(387,226,l),
(372,242,o),
(363,265,o),
(357,294,cs),
(353,316,o),
(353,336,o),
(355,360,cs),
(363,436,o),
(393,488,o),
(461,513,c),
(461,709,l),
(223,642,o),
(75,560,o),
(57,360,cs),
(55,336,o),
(55,302,o),
(57,272,cs),
(71,61,o),
(224,-15,o),
(387,-16,c)
);
},
{
closed = 1;
nodes = (
(1261,-2,o),
(1359,104,o),
(1369,336,cs),
(1371,380,o),
(1369,452,o),
(1367,466,c),
(1073,466,l),
(1075,412,o),
(1075,382,o),
(1071,302,cs),
(1069,266,o),
(1063,236,o),
(1037,218,c),
(1037,-18,l)
);
}
);
width = 1431;
},
{
anchors = (
{
name = top;
pos = (692,1200);
}
);
background = {
shapes = (
{
closed = 1;
nodes = (
(394,-16,o),
(452,28,o),
(500,130,c),
(560,130,l),
(560,284,l),
(542,284,l),
(518,232,o),
(468,198,o),
(414,198,cs),
(352,198,o),
(318,232,o),
(312,296,cs),
(310,316,o),
(310,334,o),
(312,360,cs),
(316,424,o),
(334,478,o),
(404,510,cs),
(452,532,o),
(518,548,o),
(584,562,c),
(576,752,l),
(486,730,o),
(412,712,o),
(326,682,cs),
(110,604,o),
(30,524,o),
(16,360,cs),
(14,336,o),
(14,296,o),
(16,272,cs),
(34,60,o),
(110,-16,o),
(288,-16,cs)
);
}
);
};
layerId = "5013C991-8699-46CB-BB1C-82E334DBD38B";
shapes = (
{
closed = 1;
nodes = (
(348,738,l),
(346,774,o),
(346,878,o),
(348,906,cs),
(350,950,o),
(360,976,o),
(388,988,c),
(388,1218,l),
(146,1204,o),
(64,1096,o),
(54,872,cs),
(52,828,o),
(62,756,o),
(64,742,c)
);
},
{
closed = 1;
nodes = (
(890,210,l),
(850,222,o),
(830,252,o),
(830,304,cs),
(830,906,ls),
(830,952,o),
(848,978,o),
(886,990,c),
(886,1218,l),
(806,1214,o),
(742,1200,o),
(690,1172,c),
(640,1202,o),
(574,1216,o),
(488,1220,c),
(488,988,l),
(524,976,o),
(534,944,o),
(534,896,cs),
(536,402,l),
(530,266,o),
(494,220,o),
(454,204,c),
(454,6,l),
(494,28,o),
(530,68,o),
(560,130,c),
(582,130,l),
(636,36,o),
(736,-10,o),
(890,-18,c)
);
},
{
closed = 1;
nodes = (
(1326,550,l),
(1332,662,o),
(1330,828,o),
(1328,872,cs),
(1316,1104,o),
(1218,1206,o),
(986,1218,c),
(986,988,l),
(1016,976,o),
(1032,950,o),
(1034,906,cs),
(1034,894,o),
(1036,828,o),
(1036,756,c),
(930,756,l),
(930,550,l)
);
},
{
closed = 1;
nodes = (
(394,213,l),
(370,229,o),
(356,257,o),
(352,296,cs),
(350,316,o),
(350,336,o),
(352,360,cs),
(360,452,o),
(388,492,o),
(474,522,c),
(474,716,l),
(226,648,o),
(74,568,o),
(56,360,cs),
(54,336,o),
(54,296,o),
(56,272,cs),
(70,64,o),
(239,-13,o),
(394,-16,c)
);
},
{
closed = 1;
nodes = (
(1218,-6,o),
(1316,98,o),
(1328,336,cs),
(1330,380,o),
(1328,452,o),
(1326,466,c),
(1034,466,l),
(1036,396,o),
(1036,336,o),
(1034,304,cs),
(1032,254,o),
(1018,226,o),
(990,212,c),
(990,-18,l)
);
}
);
width = 1385;
},
{
anchors = (
{
name = top;
pos = (412,1200);
}
);
background = {
shapes = (
{
closed = 1;
nodes = (
(304,-10,o),
(342,34,o),
(362,94,c),
(388,94,l),
(388,172,l),
(378,172,l),
(352,76,o),
(304,30,o),
(226,30,cs),
(160,30,o),
(116,84,o),
(110,180,cs),
(108,222,o),
(108,268,o),
(108,290,cs),
(112,396,o),
(128,490,o),
(210,560,cs),
(298,634,o),
(346,660,o),
(398,686,c),
(398,734,l),
(334,698,o),
(264,652,o),
(210,610,cs),
(98,522,o),
(72,418,o),
(68,290,cs),
(66,252,o),
(68,220,o),
(70,180,cs),
(76,64,o),
(124,-10,o),
(226,-10,cs)
);
}
);
};
layerId = "3D06B89B-468F-44E0-A3D7-A5BC6911123E";
shapes = (
{
closed = 1;
nodes = (
(118,820,l),
(116,892,o),
(116,970,o),
(118,1028,cs),
(122,1122,o),
(154,1158,o),
(212,1168,c),
(212,1208,l),
(124,1196,o),
(82,1142,o),
(78,1028,cs),
(76,970,o),
(78,892,o),
(80,820,c)
);
},
{
closed = 1;
nodes = (
(520,32,l),
(450,40,o),
(418,74,o),
(418,170,cs),
(418,1028,ls),
(418,1114,o),
(450,1156,o),
(520,1168,c),
(520,1208,l),
(460,1202,o),
(422,1180,o),
(400,1138,c),
(380,1178,o),
(346,1200,o),
(292,1208,c),
(292,1166,l),
(352,1154,o),
(378,1112,o),
(378,1028,cs),
(378,212,l),
(374,104,o),
(326,50,o),
(266,36,c),
(266,-6,l),
(322,6,o),
(360,44,o),
(376,94,c),
(386,94,l),
(404,30,o),
(446,0,o),
(520,-8,c)
);
},
{
closed = 1;
nodes = (
(730,610,l),
(738,830,o),
(734,956,o),
(732,1028,cs),
(726,1142,o),
(690,1196,o),
(600,1208,c),
(600,1166,l),
(660,1156,o),
(686,1114,o),
(692,1028,cs),
(696,952,o),
(696,826,o),
(692,650,c),
(496,650,l),
(496,610,l)
);
},
{
closed = 1;
nodes = (
(196,38,l),
(153,56,o),
(125,105,o),
(120,180,cs),
(118,222,o),
(118,268,o),
(118,290,cs),
(122,406,o),
(196,482,o),
(306,556,c),
(306,601,l),
(182,520,o),
(82,428,o),
(78,290,cs),
(76,252,o),
(78,220,o),
(80,180,cs),
(85,80,o),
(121,12,o),
(196,-6,c)
);
},
{
closed = 1;
nodes = (
(696,2,o),
(726,56,o),
(732,170,cs),
(734,228,o),
(734,296,o),
(730,382,c),
(690,382,l),
(694,296,o),
(694,230,o),
(692,170,cs),
(688,78,o),
(664,42,o),
(600,32,c),
(600,-8,l)
);
}
);
width = 821;
},
{
anchors = (
{
name = top;
pos = (541,1200);
}
);
layerId = "EB6D3A46-95FC-4F29-8169-EF2A3FEDBD5C";
shapes = (
{
closed = 1;
nodes = (
(210,791,l),
(206,845,o),
(208,945,o),
(210,984,cs),
(213,1058,o),
(240,1091,o),
(289,1102,c),
(289,1212,l),
(141,1199,o),
(82,1124,o),
(77,977,cs),
(75,908,o),
(75,852,o),
(77,791,c)
);
},
{
closed = 1;
nodes = (
(684,97,l),
(624,108,o),
(596,141,o),
(596,219,cs),
(596,984,ls),
(596,1055,o),
(624,1091,o),
(683,1102,c),
(683,1212,l),
(616,1206,o),
(566,1188,o),
(532,1156,c),
(502,1186,o),
(457,1206,o),
(391,1212,c),
(391,1100,l),
(445,1083,o),
(460,1041,o),
(460,980,cs),
(461,284,l),
(455,158,o),
(403,108,o),
(343,96,c),
(343,-2,l),
(402,13,o),
(445,51,o),
(469,108,c),
(484,108,l),
(512,35,o),
(576,-4,o),
(684,-12,c)
);
},
{
closed = 1;
nodes = (
(994,588,l),
(1002,764,o),
(998,926,o),
(996,971,cs),
(989,1129,o),
(924,1199,o),
(785,1212,c),
(785,1101,l),
(836,1089,o),
(858,1053,o),
(862,983,cs),
(865,932,o),
(865,816,o),
(862,689,c),
(698,689,l),
(698,588,l)
);
},
{
closed = 1;
nodes = (
(262,113,l),
(234,134,o),
(216,171,o),
(212,222,cs),
(208,265,o),
(210,293,o),
(210,315,cs),
(214,418,o),
(278,484,o),
(378,539,c),
(378,640,l),
(210,564,o),
(85,478,o),
(76,317,cs),
(74,279,o),
(75,253,o),
(77,212,cs),
(86,77,o),
(156,5,o),
(262,-9,c)
);
},
{
closed = 1;
nodes = (
(930,1,o),
(989,73,o),
(996,231,cs),
(998,274,o),
(998,365,o),
(994,412,c),
(861,412,l),
(864,340,o),
(864,280,o),
(862,218,cs),
(858,146,o),
(839,112,o),
(786,100,c),
(786,-12,l)
);
}
);
width = 1081;
},
{
anchors = (
{
name = top;
pos = (491,1200);
}
);
layerId = "C388322D-F001-4130-A10A-708FB59AF746";
shapes = (
{
closed = 1;
nodes = (
(185,800,l),
(183,863,o),
(183,947,o),
(185,998,cs),
(188,1079,o),
(215,1113,o),
(265,1123,c),
(265,1211,l),
(139,1198,o),
(87,1131,o),
(81,989,cs),
(79,935,o),
(83,858,o),
(85,801,c)
);
},
{
closed = 1;
nodes = (
(622,77,l),
(559,86,o),
(530,119,o),
(530,204,cs),
(530,998,ls),
(530,1074,o),
(559,1112,o),
(621,1124,c),
(621,1211,l),
(556,1205,o),
(511,1185,o),
(482,1147,c),
(454,1184,o),
(412,1204,o),
(350,1211,c),
(350,1122,l),
(404,1110,o),
(426,1070,o),
(426,995,cs),
(427,260,l),
(422,145,o),
(377,93,o),
(322,78,c),
(322,-3,l),
(374,12,o),
(412,50,o),
(431,103,c),
(444,103,l),
(471,32,o),
(528,-3,o),
(622,-11,c)
);
},
{
closed = 1;
nodes = (
(888,595,l),
(896,788,o),
(892,924,o),
(890,989,cs),
(883,1133,o),
(831,1199,o),
(706,1211,c),
(706,1122,l),
(758,1111,o),
(782,1073,o),
(787,998,cs),
(790,938,o),
(790,827,o),
(787,677,c),
(614,677,l),
(614,595,l)
);
},
{
closed = 1;
nodes = (
(255,82,l),
(216,99,o),
(191,143,o),
(187,209,cs),
(185,246,o),
(185,285,o),
(186,308,cs),
(191,418,o),
(253,485,o),
(357,548,c),
(357,630,l),
(202,552,o),
(89,463,o),
(82,308,cs),
(80,273,o),
(81,239,o),
(83,203,cs),
(90,76,o),
(160,6,o),
(255,-8,c)
);
},
{
closed = 1;
nodes = (
(836,0,o),
(883,67,o),
(890,212,cs),
(892,266,o),
(892,335,o),
(888,403,c),
(785,403,l),
(789,321,o),
(789,257,o),
(787,204,cs),
(783,122,o),
(762,88,o),
(707,77,c),
(707,-11,l)
);
}
);
width = 977;
}
);
metricLeft = a;
metricRight = e;
unicode = 230;
},
{
glyphname = b;
kernLeft = h;
kernRight = o;
layers = (
{
background = {
shapes = (
{
closed = 0;
nodes = (
(122,170,ls),
(124,42,o),
(162,-10,o),
(288,-10,cs),
(414,-10,o),
(452,42,o),
(454,170,cs)
);
},
{
closed = 0;
nodes = (
(414,170,ls),
(412,60,o),
(384,30,o),
(288,30,cs),
(192,30,o),
(164,60,o),
(162,170,cs)
);
}
);
};
layerId = "3B122060-26E0-4730-9241-82784E6CB359";
shapes = (
{
closed = 1;
nodes = (
(206,0,l),
(206,1600,l),
(124,1600,l),
(124,0,l)
);
},
{
closed = 1;
nodes = (
(325,-4,o),
(359,-12,o),
(402,-12,cs),
(530,-12,o),
(586,48,o),
(590,194,cs),
(596,452,o),
(594,778,o),
(590,1006,cs),
(588,1156,o),
(526,1212,o),
(406,1212,cs),
(361,1212,o),
(326,1204,o),
(298,1186,c),
(298,1128,l),
(323,1139,o),
(352,1144,o),
(388,1144,cs),
(474,1144,o),
(506,1106,o),
(508,1010,cs),
(516,660,o),
(516,496,o),
(508,190,cs),
(506,94,o),
(474,56,o),
(388,56,cs),
(354,56,o),
(324,61,o),
(298,73,c),
(298,13,l)
);
}
);
width = 694;
},
{
layerId = "1DFA7D5B-2E97-4B89-827F-FB43F8066DC1";
shapes = (
{
closed = 1;
nodes = (
(400,0,l),
(400,1600,l),
(94,1600,l),
(94,0,l)
);
},
{
closed = 1;
nodes = (
(570,-8,o),
(615,-20,o),
(678,-20,cs),
(854,-20,o),
(964,76,o),
(976,318,cs),
(982,448,o),
(982,742,o),
(976,882,cs),
(964,1124,o),
(874,1220,o),
(698,1220,cs),
(623,1220,o),
(573,1203,o),
(534,1171,c),
(534,999,l),
(545,1001,o),
(556,1002,o),
(566,1002,cs),
(642,1002,o),
(668,966,o),
(672,904,cs),
(682,734,o),
(680,450,o),
(670,292,cs),
(666,228,o),
(640,198,o),
(566,198,cs),
(556,198,o),
(545,199,o),
(534,201,c),
(534,14,l)
);
}
);
width = 1050;
},
{
layerId = "5013C991-8699-46CB-BB1C-82E334DBD38B";
shapes = (
{
closed = 1;
nodes = (
(382,0,l),
(382,1600,l),
(82,1600,l),
(82,0,l)
);
},
{
closed = 1;
nodes = (
(519,-1,o),
(566,-20,o),
(642,-20,cs),
(808,-20,o),
(912,76,o),
(924,318,cs),
(930,444,o),
(930,756,o),
(924,882,cs),
(912,1124,o),
(828,1220,o),
(662,1220,cs),
(572,1220,o),
(523,1193,o),
(482,1142,c),
(482,994,l),
(499,999,o),
(516,1002,o),
(532,1002,cs),
(594,1002,o),
(620,972,o),
(624,908,cs),
(634,734,o),
(634,448,o),
(624,292,cs),
(620,228,o),
(594,198,o),
(532,198,cs),
(516,198,o),
(499,201,o),
(482,206,c),
(482,36,l)
);
}
);
width = 993;
},
{
background = {
shapes = (
{
closed = 0;
nodes = (
(118,170,ls),
(120,42,o),
(158,-10,o),
(284,-10,cs),
(410,-10,o),
(448,42,o),
(450,170,cs)
);
},
{
closed = 0;
nodes = (
(410,170,ls),
(408,60,o),
(380,30,o),
(284,30,cs),
(188,30,o),
(160,60,o),
(158,170,cs)
);
}
);
};
layerId = "3D06B89B-468F-44E0-A3D7-A5BC6911123E";
shapes = (
{
closed = 1;
nodes = (
(160,0,l),
(160,1600,l),
(120,1600,l),
(120,0,l)
);
},
{
closed = 1;
nodes = (
(262,-4,o),
(289,-10,o),
(322,-10,cs),
(426,-10,o),
(468,42,o),
(470,172,cs),
(474,458,o),
(474,704,o),
(470,1028,cs),
(468,1158,o),
(426,1210,o),
(322,1210,cs),
(289,1210,o),
(262,1204,o),
(240,1191,c),
(240,1152,l),
(262,1164,o),
(289,1170,o),
(322,1170,cs),
(398,1170,o),
(428,1130,o),
(430,1028,cs),
(436,698,o),
(436,454,o),
(430,172,cs),
(428,70,o),
(398,30,o),
(322,30,cs),
(289,30,o),
(262,36,o),
(240,48,c),
(240,9,l)
);
}
);
width = 569;
},
{
layerId = "EB6D3A46-95FC-4F29-8169-EF2A3FEDBD5C";
shapes = (
{
closed = 1;
nodes = (
(252,0,l),
(252,1600,l),
(114,1600,l),
(114,0,l)
);
},
{
closed = 1;
nodes = (
(384,-5,o),
(420,-14,o),
(469,-14,cs),
(609,-14,o),
(678,55,o),
(684,225,cs),
(690,451,o),
(689,769,o),
(684,975,cs),
(680,1148,o),
(611,1214,o),
(477,1214,cs),
(424,1214,o),
(385,1204,o),
(355,1182,c),
(355,1095,l),
(376,1104,o),
(401,1109,o),
(430,1109,cs),
(514,1109,o),
(544,1071,o),
(547,984,cs),
(555,679,o),
(555,485,o),
(546,216,cs),
(544,128,o),
(513,92,o),
(430,92,cs),
(402,92,o),
(377,95,o),
(355,105,c),
(355,13,l)
);
}
);
width = 780;
},
{
layerId = "C388322D-F001-4130-A10A-708FB59AF746";
shapes = (
{
closed = 1;
nodes = (
(219,0,l),
(219,1600,l),
(114,1600,l),
(114,0,l)
);
},
{
closed = 1;
nodes = (
(330,-3,o),
(362,-13,o),
(406,-13,cs),
(525,-13,o),
(583,51,o),
(587,209,cs),
(592,455,o),
(592,717,o),
(587,992,cs),
(583,1150,o),
(530,1213,o),
(411,1213,cs),
(363,1213,o),
(331,1201,o),
(304,1179,c),
(304,1113,l),
(325,1123,o),
(350,1128,o),
(378,1128,cs),
(451,1128,o),
(480,1091,o),
(482,998,cs),
(489,707,o),
(489,453,o),
(482,202,cs),
(480,110,o),
(451,72,o),
(378,72,cs),
(350,72,o),
(325,77,o),
(304,87,c),
(304,16,l)
);
}
);
width = 685;
}
);
metricLeft = n;
metricRight = o;
unicode = 98;
},
{
glyphname = c;
kernLeft = o;
kernRight = c;
layers = (
{
anchors = (
{
name = bottom;
pos = (333,0);
},
{
name = top;
pos = (335,1200);
}
);
layerId = "3B122060-26E0-4730-9241-82784E6CB359";
shapes = (
{
closed = 1;
nodes = (
(109,63,o),
(161,1,o),
(289,-10,c),
(289,59,l),
(219,68,o),
(187,105,o),
(185,190,cs),
(179,468,o),
(179,760,o),
(185,1008,cs),
(187,1094,o),
(217,1131,o),
(289,1141,c),
(289,1210,l),
(161,1199,o),
(109,1137,o),
(105,1002,cs),
(97,730,o),
(99,424,o),
(105,196,c)
);
},
{
closed = 1;
nodes = (
(509,1,o),
(560,63,o),
(565,196,cs),
(567,244,o),
(567,328,o),
(563,394,c),
(483,394,l),
(487,314,o),
(485,254,o),
(485,190,cs),
(485,103,o),
(453,68,o),
(381,59,c),
(381,-10,l)
);
},
{
closed = 1;
nodes = (
(563,808,l),
(567,882,o),
(565,944,o),
(565,1004,cs),
(565,1137,o),
(510,1199,o),
(381,1210,c),
(381,1141,l),
(453,1132,o),
(485,1097,o),
(485,1010,cs),
(485,948,o),
(487,884,o),
(483,808,c)
);
}
);
width = 651;
},
{
anchors = (
{
name = bottom;
pos = (479,0);
},
{
name = top;
pos = (495,1200);
}
);
layerId = "1DFA7D5B-2E97-4B89-827F-FB43F8066DC1";
shapes = (
{
closed = 1;
nodes = (
(90,107,o),
(185,-1,o),
(429,-18,c),
(429,215,l),
(396,229,o),
(382,256,o),
(381,302,cs),
(373,522,o),
(373,662,o),
(381,906,cs),
(382,949,o),
(395,975,o),
(429,987,c),
(429,1218,l),
(196,1202,o),
(92,1097,o),
(75,860,cs),
(69,772,o),
(67,460,o),
(75,336,c)
);
},
{
closed = 1;
nodes = (
(795,-3,o),
(896,102,o),
(907,336,cs),
(909,380,o),
(907,450,o),
(905,466,c),
(607,466,l),
(609,388,o),
(609,344,o),
(607,304,cs),
(604,259,o),
(594,229,o),
(561,214,c),
(561,-18,l)
);
},
{
closed = 1;
nodes = (
(905,738,l),
(907,748,o),
(909,828,o),
(907,872,cs),
(896,1100,o),
(796,1203,o),
(561,1218,c),
(561,986,l),
(594,972,o),
(604,945,o),
(607,906,cs),
(609,866,o),
(609,778,o),
(607,738,c)
);
}
);
width = 970;
},
{
anchors = (
{
name = bottom;
pos = (453,0);
},
{
name = top;
pos = (469,1200);
}
);
layerId = "5013C991-8699-46CB-BB1C-82E334DBD38B";
shapes = (
{
closed = 1;
nodes = (
(82,99,o),
(184,-5,o),
(419,-19,c),
(419,212,l),
(385,225,o),
(370,254,o),
(369,304,cs),
(363,490,o),
(363,716,o),
(369,906,cs),
(370,952,o),
(385,978,o),
(419,989,c),
(419,1219,l),
(187,1206,o),
(86,1101,o),
(69,860,cs),
(63,760,o),
(63,426,o),
(69,336,c)
);
},
{
closed = 1;
nodes = (
(750,-7,o),
(850,97,o),
(861,336,cs),
(863,380,o),
(861,452,o),
(859,466,c),
(567,466,l),
(569,396,o),
(569,336,o),
(567,304,cs),
(564,253,o),
(550,224,o),
(519,211,c),
(519,-19,l)
);
},
{
closed = 1;
nodes = (
(859,738,l),
(861,752,o),
(863,828,o),
(861,872,cs),
(850,1104,o),
(751,1206,o),
(519,1219,c),
(519,988,l),
(550,977,o),
(564,951,o),
(567,906,cs),
(569,878,o),
(569,774,o),
(567,738,c)
);
}
);
width = 918;
},
{
anchors = (
{
name = bottom;
pos = (276,0);
},
{
name = top;
pos = (276,1200);
}
);
layerId = "3D06B89B-468F-44E0-A3D7-A5BC6911123E";
shapes = (
{
closed = 1;
nodes = (
(102,57,o),
(140,3,o),
(236,-8,c),
(236,32,l),
(169,41,o),
(142,77,o),
(140,170,cs),
(134,508,o),
(134,690,o),
(140,1028,cs),
(142,1123,o),
(169,1159,o),
(236,1168,c),
(236,1208,l),
(140,1197,o),
(102,1143,o),
(100,1028,cs),
(94,742,o),
(94,456,o),
(100,170,c)
);
},
{
closed = 1;
nodes = (
(412,3,o),
(448,57,o),
(452,170,cs),
(454,228,o),
(454,296,o),
(450,382,c),
(410,382,l),
(414,298,o),
(412,232,o),
(412,170,cs),
(412,77,o),
(383,41,o),
(316,32,c),
(316,-8,l)
);
},
{
closed = 1;
nodes = (
(450,820,l),
(454,906,o),
(452,972,o),
(452,1028,cs),
(452,1143,o),
(413,1197,o),
(316,1208,c),
(316,1168,l),
(383,1159,o),
(412,1123,o),
(412,1028,cs),
(412,968,o),
(414,904,o),
(410,820,c)
);
}
);
width = 535;
},
{
anchors = (
{
name = bottom;
pos = (369,0);
},
{
name = top;
pos = (375,1200);
}
);
layerId = "EB6D3A46-95FC-4F29-8169-EF2A3FEDBD5C";
shapes = (
{
closed = 1;
nodes = (
(103,74,o),
(166,0,o),
(324,-12,c),
(324,98,l),
(263,109,o),
(235,143,o),
(234,218,cs),
(227,482,o),
(227,736,o),
(234,983,cs),
(235,1057,o),
(261,1092,o),
(324,1103,c),
(324,1212,l),
(169,1200,o),
(104,1127,o),
(97,967,cs),
(90,741,o),
(91,433,o),
(97,231,c)
);
},
{
closed = 1;
nodes = (
(580,0,o),
(643,73,o),
(650,231,cs),
(652,278,o),
(652,359,o),
(648,412,c),
(514,412,l),
(517,333,o),
(516,277,o),
(515,219,cs),
(514,142,o),
(488,108,o),
(426,97,c),
(426,-12,l)
);
},
{
closed = 1;
nodes = (
(648,791,l),
(652,849,o),
(651,915,o),
(650,971,cs),
(647,1128,o),
(581,1200,o),
(426,1212,c),
(426,1103,l),
(487,1092,o),
(514,1059,o),
(515,984,cs),
(516,928,o),
(517,858,o),
(514,791,c)
);
}
);
width = 737;
},
{
anchors = (
{
name = bottom;
pos = (326,0);
},
{
name = top;
pos = (330,1200);
}
);
layerId = "C388322D-F001-4130-A10A-708FB59AF746";
shapes = (
{
closed = 1;
nodes = (
(103,67,o),
(156,1,o),
(288,-11,c),
(288,77,l),
(229,87,o),
(205,121,o),
(203,204,cs),
(197,504,o),
(197,697,o),
(203,998,cs),
(205,1080,o),
(229,1114,o),
(288,1123,c),
(288,1211,l),
(157,1199,o),
(104,1133,o),
(98,986,cs),
(92,747,o),
(92,449,o),
(98,212,c)
);
},
{
closed = 1;
nodes = (
(502,0,o),
(555,67,o),
(560,212,cs),
(562,266,o),
(562,335,o),
(558,403,c),
(455,403,l),
(459,323,o),
(457,258,o),
(457,204,cs),
(456,121,o),
(431,87,o),
(373,77,c),
(373,-11,l)
);
},
{
closed = 1;
nodes = (
(558,800,l),
(562,868,o),
(561,936,o),
(560,989,cs),
(557,1133,o),
(503,1200,o),
(373,1211,c),
(373,1123,l),
(431,1113,o),
(456,1080,o),
(457,998,cs),
(457,946,o),
(459,872,o),
(455,800,c)
);
}
);
width = 641;
}
);
metricLeft = o;
unicode = 99;
},
{
glyphname = d;
kernLeft = o;
kernRight = d;
layers = (
{
anchors = (
{
name = bottom;
pos = (336,0);
},
{
name = center;
pos = (336,600);
},
{
name = top;
pos = (332,1600);
},
{
name = topright;
pos = (576,1300);
}
);
background = {
shapes = (
{
closed = 1;
nodes = (
(398,-84,l),
(488,-84,l),
(488,1324,l),
(398,1324,l)
);
}
);
};
layerId = "3B122060-26E0-4730-9241-82784E6CB359";
shapes = (
{
closed = 1;
nodes = (
(108,48,o),
(160,-12,o),
(288,-12,cs),
(334,-12,o),
(368,-2,o),
(398,16,c),
(398,74,l),
(372,62,o),
(342,56,o),
(306,56,cs),
(228,56,o),
(186,88,o),
(184,198,cs),
(180,406,o),
(180,736,o),
(186,1010,cs),
(188,1106,o),
(220,1144,o),
(308,1144,cs),
(342,1144,o),
(372,1138,o),
(398,1126,c),
(398,1186,l),
(370,1204,o),
(336,1212,o),
(292,1212,cs),
(172,1212,o),
(106,1158,o),
(104,1006,cs),
(100,760,o),
(98,458,o),
(104,194,c)
);
},
{
closed = 1;
nodes = (
(570,0,l),
(570,1600,l),
(488,1600,l),
(488,0,l)
);
}
);
width = 694;
},
{
anchors = (
{
name = bottom;
pos = (515,0);
},
{
name = center;
pos = (515,600);
},
{
name = top;
pos = (513,1600);
},
{
name = topright;
pos = (1001,1210);
}
);
layerId = "1DFA7D5B-2E97-4B89-827F-FB43F8066DC1";
shapes = (
{
closed = 1;
nodes = (
(87,76,o),
(181,-20,o),
(359,-20,cs),
(432,-20,o),
(483,-3,o),
(523,28,c),
(523,202,l),
(510,199,o),
(497,198,o),
(485,198,cs),
(411,198,o),
(385,228,o),
(381,292,cs),
(369,484,o),
(369,714,o),
(381,916,cs),
(385,972,o),
(417,1002,o),
(485,1002,cs),
(497,1002,o),
(510,1001,o),
(523,998,c),
(523,1174,l),
(484,1204,o),
(436,1220,o),
(363,1220,cs),
(187,1220,o),
(87,1124,o),
(75,882,cs),
(69,756,o),
(67,454,o),
(75,318,c)
);
},
{
closed = 1;
nodes = (
(957,0,l),
(957,1600,l),
(651,1600,l),
(651,0,l)
);
}
);
width = 1051;
},
{
anchors = (
{
name = bottom;
pos = (489,0);
},
{
name = center;
pos = (489,600);
},
{
name = top;
pos = (511,1600);
},
{
name = topright;
pos = (911,1240);
}
);
layerId = "5013C991-8699-46CB-BB1C-82E334DBD38B";
shapes = (
{
closed = 1;
nodes = (
(81,76,o),
(171,-20,o),
(337,-20,cs),
(420,-20,o),
(470,4,o),
(511,47,c),
(511,206,l),
(494,201,o),
(477,198,o),
(461,198,cs),
(399,198,o),
(373,228,o),
(369,292,cs),
(359,448,o),
(359,734,o),
(369,908,cs),
(373,972,o),
(399,1002,o),
(461,1002,cs),
(477,1002,o),
(494,999,o),
(511,994,c),
(511,1154,l),
(472,1197,o),
(424,1220,o),
(341,1220,cs),
(175,1220,o),
(81,1124,o),
(69,882,cs),
(63,756,o),
(63,444,o),
(69,318,c)
);
},
{
closed = 1;
nodes = (
(911,0,l),
(911,1600,l),
(611,1600,l),
(611,0,l)
);
}
);
width = 993;
},
{
anchors = (
{
name = bottom;
pos = (273,0);
},
{
name = center;
pos = (273,600);
},
{
name = top;
pos = (263,1600);
},
{
name = topright;
pos = (469,1320);
}
);
layerId = "3D06B89B-468F-44E0-A3D7-A5BC6911123E";
shapes = (
{
closed = 1;
nodes = (
(101,42,o),
(143,-10,o),
(247,-10,cs),
(280,-10,o),
(307,-3,o),
(329,11,c),
(329,48,l),
(307,36,o),
(280,30,o),
(247,30,cs),
(171,30,o),
(141,70,o),
(139,172,cs),
(135,454,o),
(135,698,o),
(139,1028,cs),
(141,1130,o),
(173,1170,o),
(249,1170,cs),
(281,1170,o),
(307,1165,o),
(329,1153,c),
(329,1192,l),
(307,1204,o),
(281,1210,o),
(249,1210,cs),
(145,1210,o),
(101,1158,o),
(99,1028,cs),
(95,704,o),
(95,458,o),
(99,172,c)
);
},
{
closed = 1;
nodes = (
(449,0,l),
(449,1600,l),
(409,1600,l),
(409,0,l)
);
}
);
width = 569;
},
{
anchors = (
{
name = bottom;
pos = (381,0);
},
{
name = center;
pos = (381,600);
},
{
name = top;
pos = (377,1600);
},
{
name = topright;
pos = (682,1285);
}
);
layerId = "EB6D3A46-95FC-4F29-8169-EF2A3FEDBD5C";
shapes = (
{
closed = 1;
nodes = (
(103,55,o),
(165,-14,o),
(306,-14,cs),
(358,-14,o),
(396,-2,o),
(429,19,c),
(429,106,l),
(406,96,o),
(381,92,o),
(351,92,cs),
(274,92,o),
(236,123,o),
(233,222,cs),
(227,426,o),
(227,731,o),
(235,987,cs),
(237,1073,o),
(269,1109,o),
(352,1109,cs),
(381,1109,o),
(406,1104,o),
(429,1094,c),
(429,1183,l),
(398,1204,o),
(361,1214,o),
(310,1214,cs),
(176,1214,o),
(101,1150,o),
(97,975,cs),
(92,759,o),
(90,457,o),
(97,225,c)
);
},
{
closed = 1;
nodes = (
(667,0,l),
(667,1600,l),
(529,1600,l),
(529,0,l)
);
}
);
width = 781;
},
{
anchors = (
{
name = bottom;
pos = (333,0);
},
{
name = center;
pos = (333,600);
},
{
name = top;
pos = (331,1600);
},
{
name = topright;
pos = (586,1300);
}
);
layerId = "C388322D-F001-4130-A10A-708FB59AF746";
shapes = (
{
closed = 1;
nodes = (
(102,51,o),
(156,-13,o),
(276,-13,cs),
(321,-13,o),
(354,-1,o),
(381,20,c),
(381,87,l),
(359,77,o),
(335,72,o),
(307,72,cs),
(234,72,o),
(205,110,o),
(203,202,cs),
(197,453,o),
(197,707,o),
(203,998,cs),
(205,1091,o),
(236,1128,o),
(308,1128,cs),
(336,1128,o),
(360,1123,o),
(381,1113,c),
(381,1182,l),
(354,1202,o),
(323,1213,o),
(278,1213,cs),
(159,1213,o),
(102,1150,o),
(98,992,cs),
(93,717,o),
(93,455,o),
(98,209,c)
);
},
{
closed = 1;
nodes = (
(571,0,l),
(571,1600,l),
(466,1600,l),
(466,0,l)
);
}
);
width = 685;
}
);
metricLeft = o;
unicode = 100;
},
{
glyphname = dcroat;
kernLeft = o;
kernRight = d;
layers = (
{
layerId = "3B122060-26E0-4730-9241-82784E6CB359";
shapes = (
{
closed = 1;
nodes = (
(533,1338,l),
(533,1406,l),
(378,1406,l),
(378,1338,l)
);
},
{
closed = 1;
nodes = (
(698,1338,l),
(698,1406,l),
(632,1406,l),
(632,1338,l)
);
},
{
ref = d;
}
);
width = 718;
},
{
layerId = "1DFA7D5B-2E97-4B89-827F-FB43F8066DC1";
shapes = (
{
closed = 1;
nodes = (
(835,1334,l),
(835,1478,l),
(488,1478,l),
(488,1334,l)
);
},
{
closed = 1;
nodes = (
(1124,1334,l),
(1124,1478,l),
(1022,1478,l),
(1022,1334,l)
);
},
{
ref = d;
}
);
width = 1144;
},
{
layerId = "5013C991-8699-46CB-BB1C-82E334DBD38B";
shapes = (
{
closed = 1;
nodes = (
(827,1334,l),
(827,1478,l),
(488,1478,l),
(488,1334,l)
);
},
{
closed = 1;
nodes = (
(1044,1334,l),
(1044,1478,l),
(970,1478,l),
(970,1334,l)
);
},
{
ref = d;
}
);
width = 1054;
},
{
layerId = "3D06B89B-468F-44E0-A3D7-A5BC6911123E";
shapes = (
{
closed = 1;
nodes = (
(438,1366,l),
(438,1406,l),
(268,1406,l),
(268,1366,l)
);
},
{
closed = 1;
nodes = (
(548,1366,l),
(548,1406,l),
(491,1406,l),
(491,1366,l)
);
},
{
ref = d;
}
);
width = 568;
},
{
layerId = "EB6D3A46-95FC-4F29-8169-EF2A3FEDBD5C";
shapes = (
{
closed = 1;
nodes = (
(578,1336,l),
(578,1424,l),
(378,1424,l),
(378,1336,l)
);
},
{
closed = 1;
nodes = (
(777,1336,l),
(777,1424,l),
(711,1424,l),
(711,1336,l)
);
},
{
alignment = -1;
ref = d;
}
);
width = 807;
},
{
layerId = "C388322D-F001-4130-A10A-708FB59AF746";
shapes = (
{
closed = 1;
nodes = (
(530,1358,l),
(530,1424,l),
(313,1424,l),
(313,1358,l)
);
},
{
closed = 1;
nodes = (
(682,1358,l),
(682,1424,l),
(607,1424,l),
(607,1358,l)
);
},
{
alignment = -1;
ref = d;
}
);
width = 702;
}
);
metricLeft = d;
unicode = 273;
},
{
glyphname = eth;
kernLeft = o;
kernRight = d;
layers = (
{
layerId = "3B122060-26E0-4730-9241-82784E6CB359";
shapes = (
{
closed = 1;
nodes = (
(502,-14,o),
(570,50,o),
(570,202,cs),
(570,410,o),
(570,566,o),
(570,812,cs),
(570,1272,o),
(438,1442,o),
(206,1610,c),
(164,1540,l),
(360,1400,o),
(490,1234,o),
(490,842,cs),
(490,640,o),
(490,424,o),
(490,196,cs),
(490,100,o),
(442,58,o),
(342,58,cs),
(242,58,o),
(188,90,o),
(186,198,cs),
(182,368,o),
(180,628,o),
(184,890,cs),
(186,988,o),
(224,1034,o),
(318,1034,cs),
(414,1034,o),
(488,984,o),
(490,894,c),
(518,908,l),
(518,942,o),
(490,972,o),
(470,998,c),
(468,1056,o),
(388,1104,o),
(300,1104,cs),
(172,1104,o),
(106,1038,o),
(104,896,cs),
(98,598,o),
(98,372,o),
(104,206,cs),
(110,50,o),
(178,-14,o),
(342,-14,c)
);
},
{
closed = 1;
nodes = (
(504,982,l),
(504,1032,l),
(458,1032,l),
(470,980,l)
);
},
{
closed = 1;
nodes = (
(446,1280,l),
(414,1342,l),
(224,1258,l),
(256,1196,l)
);
},
{
closed = 1;
nodes = (
(644,1370,l),
(612,1432,l),
(422,1348,l),
(454,1286,l)
);
}
);
width = 682;
},
{
layerId = "1DFA7D5B-2E97-4B89-827F-FB43F8066DC1";
shapes = (
{
closed = 1;
nodes = (
(830,-20,o),
(946,94,o),
(960,384,cs),
(964,460,o),
(964,624,o),
(960,696,cs),
(940,1104,o),
(798,1410,o),
(420,1620,c),
(256,1366,l),
(516,1234,o),
(650,1004,o),
(654,752,cs),
(656,636,o),
(662,480,o),
(654,324,cs),
(650,260,o),
(604,224,o),
(518,224,cs),
(428,224,o),
(382,260,o),
(380,326,cs),
(376,448,o),
(374,628,o),
(376,714,cs),
(378,778,o),
(422,820,o),
(512,820,cs),
(604,820,o),
(648,784,o),
(656,720,c),
(678,840,ls),
(682,862,o),
(636,904,o),
(614,904,c),
(596,994,o),
(508,1062,o),
(372,1062,cs),
(204,1062,o),
(76,928,o),
(72,724,cs),
(70,616,o),
(68,490,o),
(74,382,cs),
(88,94,o),
(214,-20,o),
(520,-20,c)
);
},
{
closed = 1;
nodes = (
(686,886,l),
(686,952,l),
(588,952,l),
(590,886,l)
);
},
{
closed = 1;
nodes = (
(606,1198,l),
(530,1318,l),
(320,1222,l),
(384,1096,l)
);
},
{
closed = 1;
nodes = (
(904,1360,l),
(840,1486,l),
(628,1390,l),
(702,1268,l)
);
}
);
width = 1022;
},
{
layerId = "5013C991-8699-46CB-BB1C-82E334DBD38B";
shapes = (
{
closed = 1;
nodes = (
(792,-20,o),
(900,94,o),
(914,382,cs),
(918,460,o),
(918,616,o),
(914,696,cs),
(894,1104,o),
(764,1410,o),
(408,1620,c),
(246,1366,l),
(488,1234,o),
(610,998,o),
(614,752,cs),
(616,628,o),
(620,452,o),
(614,326,cs),
(610,260,o),
(568,224,o),
(492,224,cs),
(414,224,o),
(370,260,o),
(368,326,cs),
(364,452,o),
(364,628,o),
(366,718,cs),
(368,784,o),
(414,820,o),
(488,820,cs),
(570,820,o),
(608,784,o),
(616,720,c),
(634,840,ls),
(638,862,o),
(596,904,o),
(574,904,c),
(556,994,o),
(478,1062,o),
(348,1062,cs),
(192,1062,o),
(70,928,o),
(66,724,cs),
(64,616,o),
(64,462,o),
(68,382,cs),
(82,94,o),
(200,-20,o),
(494,-20,c)
);
},
{
closed = 1;
nodes = (
(644,886,l),
(644,952,l),
(550,952,l),
(550,886,l)
);
},
{
closed = 1;
nodes = (
(560,1228,l),
(500,1318,l),
(308,1222,l),
(356,1126,l)
);
},
{
closed = 1;
nodes = (
(840,1390,l),
(792,1486,l),
(598,1390,l),
(656,1298,l)
);
}
);
width = 976;
},
{
layerId = "3D06B89B-468F-44E0-A3D7-A5BC6911123E";
shapes = (
{
closed = 1;
nodes = (
(402,-12,o),
(458,42,o),
(458,174,cs),
(458,364,o),
(458,584,o),
(458,832,cs),
(458,1302,o),
(340,1452,o),
(156,1608,c),
(136,1572,l),
(302,1430,o),
(418,1276,o),
(418,858,cs),
(418,614,o),
(418,372,o),
(418,174,cs),
(418,70,o),
(374,28,o),
(284,28,cs),
(184,28,o),
(144,70,o),
(140,174,cs),
(134,378,o),
(134,602,o),
(140,926,cs),
(142,1030,o),
(176,1072,o),
(260,1072,cs),
(348,1072,o),
(416,1020,o),
(418,926,c),
(444,920,l),
(444,958,o),
(418,988,o),
(404,1016,c),
(404,1068,o),
(332,1112,o),
(260,1112,cs),
(150,1112,o),
(102,1058,o),
(100,926,cs),
(94,602,o),
(94,378,o),
(100,174,cs),
(104,42,o),
(156,-12,o),
(284,-12,c)
);
},
{
closed = 1;
nodes = (
(428,1000,l),
(428,1046,l),
(394,1046,l),
(406,996,l)
);
},
{
closed = 1;
nodes = (
(362,1314,l),
(346,1350,l),
(148,1254,l),
(166,1218,l)
);
},
{
closed = 1;
nodes = (
(500,1382,l),
(482,1418,l),
(346,1350,l),
(362,1314,l)
);
}
);
width = 580;
},
{
layerId = "EB6D3A46-95FC-4F29-8169-EF2A3FEDBD5C";
shapes = (
{
closed = 1;
nodes = (
(584,-16,o),
(664,61,o),
(667,248,cs),
(668,423,o),
(668,581,o),
(667,783,cs),
(662,1230,o),
(528,1434,o),
(259,1613,c),
(187,1497,l),
(399,1359,o),
(530,1177,o),
(531,820,cs),
(531,639,o),
(533,438,o),
(531,228,cs),
(530,140,o),
(482,100,o),
(386,100,cs),
(288,100,o),
(236,133,o),
(234,230,cs),
(230,388,o),
(228,628,o),
(232,846,cs),
(234,936,o),
(273,981,o),
(366,981,cs),
(461,981,o),
(528,934,o),
(531,851,c),
(558,891,l),
(559,922,o),
(526,955,o),
(506,975,c),
(500,1041,o),
(418,1094,o),
(318,1094,cs),
(180,1094,o),
(98,1011,o),
(96,853,cs),
(91,603,o),
(90,402,o),
(96,250,cs),
(104,61,o),
(187,-16,o),
(386,-16,c)
);
},
{
closed = 1;
nodes = (
(549,958,l),
(549,1012,l),
(490,1012,l),
(500,957,l)
);
},
{
closed = 1;
nodes = (
(486,1260,l),
(443,1336,l),
(248,1249,l),
(288,1171,l)
);
},
{
closed = 1;
nodes = (
(709,1368,l),
(669,1446,l),
(473,1359,l),
(516,1282,l)
);
}
);
width = 767;
},
{
layerId = "C388322D-F001-4130-A10A-708FB59AF746";
shapes = (
{
closed = 1;
nodes = (
(506,-14,o),
(575,55,o),
(578,226,cs),
(579,388,o),
(579,592,o),
(578,798,cs),
(573,1253,o),
(452,1442,o),
(225,1611,c),
(170,1521,l),
(355,1381,o),
(472,1207,o),
(473,832,cs),
(474,618,o),
(475,392,o),
(473,212,cs),
(472,118,o),
(429,77,o),
(342,77,cs),
(248,77,o),
(207,118,o),
(203,212,cs),
(198,397,o),
(198,609,o),
(203,874,cs),
(205,969,o),
(242,1009,o),
(323,1009,cs),
(410,1009,o),
(470,961,o),
(474,875,c),
(498,900,l),
(499,934,o),
(469,967,o),
(453,988,c),
(448,1050,o),
(375,1100,o),
(288,1100,cs),
(167,1100,o),
(100,1026,o),
(98,876,cs),
(93,606,o),
(93,399,o),
(98,226,cs),
(105,55,o),
(173,-14,o),
(343,-14,c)
);
},
{
closed = 1;
nodes = (
(488,972,l),
(488,1023,l),
(439,1023,l),
(448,969,l)
);
},
{
closed = 1;
nodes = (
(418,1293,l),
(391,1342,l),
(194,1246,l),
(220,1195,l)
);
},
{
closed = 1;
nodes = (
(591,1384,l),
(566,1435,l),
(415,1360,l),
(442,1310,l)
);
}
);
width = 685;
}
);
metricLeft = o;
unicode = 240;
},
{
glyphname = e;
kernLeft = o;
kernRight = e;
layers = (
{
anchors = (
{
name = bottom;
pos = (335,0);
},
{
name = ogonek;
pos = (469,0);
},
{
name = top;
pos = (335,1200);
}
);
layerId = "3B122060-26E0-4730-9241-82784E6CB359";
shapes = (
{
closed = 1;
nodes = (
(109,63,o),
(161,1,o),
(293,-10,c),
(293,58,l),
(220,67,o),
(187,103,o),
(185,190,cs),
(179,470,o),
(179,762,o),
(185,1008,cs),
(187,1084,o),
(216,1129,o),
(293,1141,c),
(293,1210,l),
(164,1199,o),
(109,1137,o),
(105,1002,cs),
(97,730,o),
(99,424,o),
(105,196,c)
);
},
{
closed = 1;
nodes = (
(513,1,o),
(558,63,o),
(565,196,cs),
(567,238,o),
(567,332,o),
(563,394,c),
(483,394,l),
(487,320,o),
(487,230,o),
(485,190,cs),
(482,106,o),
(453,70,o),
(385,59,c),
(385,-10,l)
);
},
{
closed = 1;
nodes = (
(563,578,l),
(571,746,o),
(567,960,o),
(565,1004,cs),
(559,1130,o),
(511,1198,o),
(385,1210,c),
(385,1140,l),
(447,1130,o),
(481,1092,o),
(485,1008,cs),
(489,958,o),
(489,786,o),
(485,644,c),
(273,644,l),
(273,578,l)
);
}
);
width = 658;
},
{
anchors = (
{
name = bottom;
pos = (491,0);
},
{
name = ogonek;
pos = (701,0);
},
{
name = top;
pos = (491,1200);
}
);
layerId = "1DFA7D5B-2E97-4B89-827F-FB43F8066DC1";
shapes = (
{
closed = 1;
nodes = (
(90,107,o),
(185,-1,o),
(429,-18,c),
(429,215,l),
(396,229,o),
(382,256,o),
(381,302,cs),
(373,522,o),
(373,662,o),
(381,906,cs),
(382,949,o),
(395,975,o),
(429,987,c),
(429,1218,l),
(196,1202,o),
(92,1097,o),
(75,860,cs),
(69,772,o),
(67,460,o),
(75,336,c)
);
},
{
closed = 1;
nodes = (
(795,-3,o),
(896,102,o),
(907,336,cs),
(909,380,o),
(907,450,o),
(905,466,c),
(607,466,l),
(611,388,o),
(609,344,o),
(607,304,cs),
(604,256,o),
(592,228,o),
(561,214,c),
(561,-18,l)
);
},
{
closed = 1;
nodes = (
(905,550,l),
(911,662,o),
(909,824,o),
(907,872,cs),
(895,1100,o),
(795,1202,o),
(561,1218,c),
(561,986,l),
(591,972,o),
(605,948,o),
(607,906,cs),
(609,888,o),
(609,824,o),
(609,756,c),
(473,756,l),
(473,550,l)
);
}
);
width = 969;
},
{
anchors = (
{
name = bottom;
pos = (465,0);
},
{
name = ogonek;
pos = (637,0);
},
{
name = top;
pos = (465,1200);
}
);
layerId = "5013C991-8699-46CB-BB1C-82E334DBD38B";
shapes = (
{
closed = 1;
nodes = (
(82,99,o),
(184,-5,o),
(419,-19,c),
(419,212,l),
(385,225,o),
(370,254,o),
(369,304,cs),
(363,490,o),
(363,716,o),
(369,906,cs),
(370,952,o),
(385,978,o),
(419,989,c),
(419,1219,l),
(187,1206,o),
(86,1101,o),
(69,860,cs),
(63,760,o),
(63,426,o),
(69,336,c)
);
},
{
closed = 1;
nodes = (
(750,-7,o),
(850,97,o),
(861,336,cs),
(863,380,o),
(861,452,o),
(859,466,c),
(567,466,l),
(569,396,o),
(569,336,o),
(567,304,cs),
(564,253,o),
(550,224,o),
(519,211,c),
(519,-19,l)
);
},
{
closed = 1;
nodes = (
(859,550,l),
(865,662,o),
(863,828,o),
(861,872,cs),
(849,1104,o),
(751,1206,o),
(519,1218,c),
(519,988,l),
(549,976,o),
(565,950,o),
(567,906,cs),
(567,894,o),
(569,828,o),
(569,756,c),
(465,756,l),
(465,550,l)
);
}
);
width = 918;
},
{
anchors = (
{
name = bottom;
pos = (276,0);
},
{
name = ogonek;
pos = (398,0);
},
{
name = top;
pos = (276,1200);
}
);
layerId = "3D06B89B-468F-44E0-A3D7-A5BC6911123E";
shapes = (
{
closed = 1;
nodes = (
(102,57,o),
(139,3,o),
(238,-8,c),
(238,32,l),
(170,40,o),
(142,76,o),
(140,170,cs),
(134,512,o),
(134,690,o),
(140,1028,cs),
(142,1114,o),
(170,1156,o),
(238,1167,c),
(238,1208,l),
(142,1196,o),
(102,1142,o),
(100,1028,cs),
(94,742,o),
(94,456,o),
(100,170,c)
);
},
{
closed = 1;
nodes = (
(416,2,o),
(447,56,o),
(452,170,cs),
(454,228,o),
(454,296,o),
(450,382,c),
(410,382,l),
(414,296,o),
(414,230,o),
(412,170,cs),
(409,78,o),
(383,42,o),
(318,33,c),
(318,-8,l)
);
},
{
closed = 1;
nodes = (
(450,584,l),
(458,804,o),
(454,956,o),
(452,1028,cs),
(446,1144,o),
(408,1196,o),
(318,1208,c),
(318,1168,l),
(380,1156,o),
(406,1114,o),
(412,1028,cs),
(416,952,o),
(416,802,o),
(412,624,c),
(196,624,l),
(196,584,l)
);
}
);
width = 541;
},
{
anchors = (
{
name = bottom;
pos = (374,0);
},
{
name = ogonek;
pos = (527,0);
},
{
name = top;
pos = (374,1200);
}
);
layerId = "EB6D3A46-95FC-4F29-8169-EF2A3FEDBD5C";
shapes = (
{
closed = 1;
nodes = (
(103,74,o),
(167,0,o),
(327,-12,c),
(327,97,l),
(264,108,o),
(235,142,o),
(234,218,cs),
(227,483,o),
(227,737,o),
(234,983,cs),
(235,1051,o),
(260,1090,o),
(327,1102,c),
(327,1212,l),
(171,1200,o),
(104,1127,o),
(97,967,cs),
(90,741,o),
(91,433,o),
(97,231,c)
);
},
{
closed = 1;
nodes = (
(583,0,o),
(642,73,o),
(650,231,cs),
(652,274,o),
(652,362,o),
(648,412,c),
(514,412,l),
(518,337,o),
(517,259,o),
(515,219,cs),
(512,144,o),
(487,109,o),
(429,98,c),
(429,-12,l)
);
},
{
closed = 1;
nodes = (
(648,571,l),
(656,725,o),
(652,926,o),
(650,971,cs),
(643,1123,o),
(582,1199,o),
(429,1212,c),
(429,1102,l),
(483,1091,o),
(512,1056,o),
(515,983,cs),
(519,941,o),
(519,796,o),
(516,672,c),
(323,672,l),
(323,571,l)
);
}
);
width = 735;
},
{
anchors = (
{
name = bottom;
pos = (329,0);
},
{
name = ogonek;
pos = (464,0);
},
{
name = top;
pos = (329,1200);
}
);
layerId = "C388322D-F001-4130-A10A-708FB59AF746";
shapes = (
{
closed = 1;
nodes = (
(103,67,o),
(156,1,o),
(289,-11,c),
(289,77,l),
(229,86,o),
(205,120,o),
(203,204,cs),
(197,507,o),
(197,697,o),
(203,998,cs),
(205,1073,o),
(230,1111,o),
(289,1123,c),
(289,1210,l),
(159,1199,o),
(104,1132,o),
(98,986,cs),
(92,747,o),
(92,449,o),
(98,212,c)
);
},
{
closed = 1;
nodes = (
(505,0,o),
(553,66,o),
(560,212,cs),
(562,266,o),
(562,335,o),
(558,403,c),
(455,403,l),
(459,321,o),
(459,257,o),
(457,204,cs),
(453,122,o),
(430,87,o),
(374,77,c),
(374,-11,l)
);
},
{
closed = 1;
nodes = (
(558,576,l),
(566,769,o),
(562,924,o),
(560,989,cs),
(553,1134,o),
(500,1199,o),
(374,1211,c),
(374,1123,l),
(428,1111,o),
(452,1073,o),
(457,998,cs),
(460,938,o),
(460,809,o),
(457,657,c),
(269,657,l),
(269,576,l)
);
}
);
width = 647;
}
);
metricLeft = o;
unicode = 101;
},
